<?xml version="1.0" encoding="UTF-8"?><svg id="Layer_1" xmlns="http://www.w3.org/2000/svg" width="79" height="37" viewBox="0 0 79 37"><defs><style>.cls-1{fill:none;}.cls-1,.cls-2,.cls-3{stroke:#ab5200;stroke-miterlimit:10;stroke-width:3px;}.cls-2{fill:#ab5200;}.cls-3,.cls-4{fill:#f8a779;}.cls-4{stroke-width:0px;}</style></defs><rect class="cls-4" x=".5" y=".5" width="78" height="36" rx="9.04" ry="9.04"/><path class="cls-4" d="m69.46,1c4.71,0,8.54,3.83,8.54,8.54v17.93c0,4.71-3.83,8.54-8.54,8.54H9.54c-4.71,0-8.54-3.83-8.54-8.54V9.54C1,4.83,4.83,1,9.54,1h59.93M69.46,0H9.54C4.27,0,0,4.27,0,9.54v17.93c0,5.27,4.27,9.54,9.54,9.54h59.93c5.27,0,9.54-4.27,9.54-9.54V9.54C79,4.27,74.73,0,69.46,0h0Z"/><line class="cls-1" x1="15" y1="18.5" x2="60.5" y2="18.5"/><line class="cls-2" x1="22.5" y1="29.5" x2="13.82" y2="17.5"/><line class="cls-3" x1="13.74" y1="19.49" x2="22.5" y2="7.5"/></svg>