<svg width="125" height="148" viewBox="0 0 125 148" fill="none" xmlns="http://www.w3.org/2000/svg">
<path d="M62.6144 0.916763C65.0882 0.968843 71.2337 21.7227 70.498 24.0273C69.9056 25.8761 74.2868 16.7231 75.9925 17.1007C80.6276 18.1357 78.9154 35.3156 78.4988 36.7478C78.0822 38.18 81.4804 34.0071 82.8605 34.5409C84.5531 35.1984 84.182 40.6799 83.3357 44.5143C82.3592 48.9671 80.1719 52.502 78.1994 56.6359C77.4963 58.1071 76.1096 59.9299 75.1331 62.612C75.042 62.8659 74.9899 63.8815 75.387 63.7969C76.0901 63.6536 77.3205 60.9976 80.1654 56.688C80.1654 56.688 82.2746 53.4915 86.3173 49.4618C87.7495 48.0296 89.2924 46.6886 89.5398 47.3135C90.0345 48.5504 89.709 50.4839 89.8978 51.1349C90.1582 52.0398 93.0096 48.583 96.8245 45.1652C97.1435 44.8853 102.156 41.3764 103.81 41.8842C104.942 42.2292 103.575 47.1964 102.553 48.6351C100.958 50.8876 118.698 40.2111 120.944 40.9338C122.884 41.5522 113.314 55.9523 110.613 57.8337C109.278 58.7646 116.849 56.7205 117.357 57.6384C118.229 59.2138 108.868 67.6573 105.652 69.8967C104.649 70.5933 108.894 70.2613 109.233 71.2703C109.708 72.683 105.047 76.0552 99.9753 78.0212C96.0758 79.5315 95.1774 78.9456 89.045 80.9442C87.1701 81.5561 81.8254 83.3008 82.0012 84.1666C82.1053 84.7005 84.2927 84.7656 85.8226 84.6419C90.0801 84.2969 91.278 82.3308 95.6136 80.9963C99.8777 79.6878 104.116 79.9417 104.33 80.7554C104.48 81.3348 102.599 82.0704 102.781 82.6043C103.015 83.3269 106.524 82.2983 111.14 83.2032C112.279 83.4245 114.375 83.8346 114.486 84.6939C114.629 85.8592 109.864 87.337 110.964 87.7406C113.724 88.7562 124.088 91.1454 124.043 92.519C123.997 93.8861 115.43 95.8456 110.665 96.399C109.33 96.5552 114.323 98.9378 114.069 99.8037C113.653 101.216 106.212 101.229 102.547 100.878C101.759 100.8 103.614 102.369 103.321 103.026C102.827 104.139 98.1265 104.087 93.9471 102.069C90.1582 100.246 88.0815 97.421 84.0323 96.9327C83.212 96.8351 82.5741 96.8612 82.4178 97.1736C82.3007 97.4145 82.3853 98.0265 86.122 101.112C89.3315 103.762 91.2194 104.927 90.959 105.65C90.7246 106.301 88.9929 105.877 88.7521 106.548C88.4396 107.42 91.2063 108.573 93.2309 111.802C93.4848 112.205 94.8259 114.347 94.2465 114.965C93.576 115.682 90.321 113.403 90.3666 114.308C90.4121 115.213 91.6946 117.185 94.0056 122.016C95.5094 125.16 95.1839 125.512 95.0212 125.655C94.0121 126.521 86.8577 120.851 84.6898 119.386C83.8631 118.826 85.2237 122.66 84.6313 122.966C83.6157 123.494 79.0782 119.483 77.288 116.697C76.8583 116.027 76.7476 118.084 76.1552 118.247C74.1241 118.806 71.1295 108.143 64.333 104.634C62.8162 103.846 62.0611 104.914 61.1692 104.751C50.317 102.837 57.3934 0.799576 62.6014 0.910246L62.6144 0.916763Z" fill="#AA5531" stroke="#AA5531" stroke-miterlimit="10"/>
<path d="M62.7644 0.916763C60.2906 0.968843 54.1452 21.7227 54.8808 24.0273C55.4732 25.8761 51.092 16.7231 49.3864 17.1007C44.7513 18.1357 46.4634 35.3156 46.88 36.7478C47.2967 38.18 43.8985 34.0071 42.5184 34.5409C40.8258 35.1984 41.1968 40.6799 42.0431 44.5143C43.0196 48.9671 45.207 52.502 47.1795 56.6359C47.8826 58.1071 49.2692 59.9299 50.2457 62.612C50.3369 62.8659 50.3889 63.8815 49.9918 63.7969C49.2887 63.6536 48.0583 60.9976 45.2135 56.688C45.2135 56.688 43.1043 53.4915 39.0615 49.4618C37.6293 48.0296 36.0865 46.6886 35.8391 47.3135C35.3443 48.5504 35.6698 50.4839 35.481 51.1349C35.2206 52.0398 32.3693 48.583 28.5544 45.1652C28.2354 44.8853 23.2227 41.3764 21.5692 41.8842C20.4364 42.2292 21.8035 47.1964 22.8256 48.6351C24.4206 50.8876 6.6808 40.2111 4.43485 40.9338C2.49487 41.5522 12.0646 55.9523 14.7662 57.8337C16.1008 58.7646 8.52961 56.7205 8.02183 57.6384C7.14949 59.2138 16.5109 67.6573 19.7268 69.8967C20.7294 70.5933 16.4849 70.2613 16.1463 71.2703C15.6711 72.683 20.3322 76.0552 25.4035 78.0212C29.303 79.5315 30.2014 78.9456 36.3339 80.9442C38.2087 81.5561 43.5534 83.3008 43.3777 84.1666C43.2735 84.7005 41.0861 84.7656 39.5563 84.6419C35.2987 84.2969 34.1009 82.3308 29.7652 80.9963C25.5012 79.6878 21.2632 79.9417 21.0483 80.7554C20.8986 81.3348 22.78 82.0704 22.5977 82.6043C22.3634 83.3269 18.8545 82.2983 14.2389 83.2032C13.0997 83.4245 11.0034 83.8346 10.8928 84.6939C10.7495 85.8592 15.5148 87.337 14.4147 87.7406C11.6544 88.7562 1.29052 91.1454 1.33609 92.519C1.38166 93.8861 9.94881 95.8456 14.7141 96.399C16.0487 96.5552 11.0555 98.9378 11.3094 99.8037C11.7261 101.216 19.167 101.229 22.8321 100.878C23.6198 100.8 21.7645 102.369 22.0574 103.026C22.5522 104.139 27.2524 104.087 31.4318 102.069C35.2206 100.246 37.2973 97.421 41.3465 96.9327C42.1668 96.8351 42.8048 96.8612 42.961 97.1736C43.0782 97.4145 42.9936 98.0265 39.2568 101.112C36.0474 103.762 34.1595 104.927 34.4199 105.65C34.6543 106.301 36.3859 105.877 36.6268 106.548C36.9393 107.42 34.1725 108.573 32.1479 111.802C31.894 112.205 30.5529 114.347 31.1323 114.965C31.8029 115.682 35.0579 113.403 35.0123 114.308C34.9667 115.193 33.6843 117.185 31.3732 122.016C29.8694 125.16 30.1949 125.512 30.3577 125.655C31.3667 126.521 38.5212 120.851 40.689 119.386C41.5158 118.826 40.1552 122.66 40.7476 122.966C41.7632 123.494 46.3007 119.483 48.0909 116.697C48.5206 116.027 48.6312 118.084 49.2236 118.247C51.2548 118.806 54.2493 108.143 61.0458 104.634C62.5626 103.846 63.3178 104.914 64.2097 104.751C75.0619 102.837 67.9855 0.799576 62.7775 0.910246L62.7644 0.916763Z" fill="#AA5531" stroke="#AA5531" stroke-miterlimit="10"/>
<path d="M60.5576 146.89H64.7435L63.8126 102.752H61.2542L60.5576 146.89Z" fill="#AA5531" stroke="#AA5531" stroke-miterlimit="10"/>
</svg>
