<?xml version="1.0" encoding="UTF-8"?>
<svg id="Layer_7" data-name="Layer 7" xmlns="http://www.w3.org/2000/svg" viewBox="0 0 1000 1000">
  <defs>
    <style>
      .cls-1 {
        fill: #ba8a3f;
        stroke: #ba8a3f;
        stroke-miterlimit: 10;
      }
    </style>
  </defs>
  <path class="cls-1" d="M500.01,170.41c9.64.2,33.59,81.1,30.72,90.06-2.31,7.21,14.78-28.48,21.41-27,18.06,4.04,11.4,70.98,9.77,76.56s11.61-10.69,16.99-8.61c6.59,2.55,5.14,23.92,1.86,38.86-3.81,17.35-12.33,31.13-20.01,47.24-2.74,5.74-8.14,12.84-11.94,23.3-.36.99-.55,4.95,1,4.63,2.73-.56,7.53-10.9,18.62-27.69,0,0,8.23-12.47,23.97-28.16,5.59-5.57,11.6-10.81,12.57-8.38,1.92,4.83.66,12.36,1.4,14.89,1.02,3.52,12.12-9.95,27-23.27,1.23-1.1,20.78-14.76,27.23-12.8,4.4,1.34-.92,20.7-4.89,26.3-6.22,8.77,62.93-32.82,71.68-30.02,7.56,2.42-29.74,58.54-40.26,65.86-5.21,3.63,24.31-4.35,26.29-.77,3.4,6.13-33.08,39.04-45.61,47.78-3.9,2.72,12.63,1.41,13.96,5.35,1.86,5.5-16.31,18.66-36.07,26.3-15.21,5.88-18.71,3.6-42.59,11.4-7.3,2.39-28.13,9.19-27.46,12.57.41,2.09,8.93,2.34,14.89,1.86,16.59-1.34,21.25-9.02,38.17-14.2,16.61-5.09,33.13-4.11,33.98-.93.6,2.25-6.74,5.13-6.05,7.21.92,2.81,14.59-1.19,32.58,2.33,4.44.87,12.62,2.46,13.03,5.82.56,4.54-18.02,10.29-13.73,11.87,10.76,3.95,51.15,13.26,50.97,18.62-.18,5.33-33.55,12.97-52.13,15.13-5.21.6,14.25,9.9,13.26,13.27-1.62,5.49-30.62,5.56-44.91,4.19-3.06-.29,4.16,5.81,3.03,8.38-1.92,4.33-20.25,4.13-36.54-3.72-14.77-7.12-22.85-18.1-38.63-20.01-3.2-.39-5.69-.28-6.28.93-.46.95-.13,3.33,14.43,15.36,12.51,10.33,19.87,14.86,18.85,17.69-.92,2.55-7.67.88-8.61,3.49-1.23,3.4,9.57,7.9,17.45,20.48.99,1.58,6.22,9.92,3.96,12.33-2.62,2.79-15.3-6.09-15.13-2.56s5.17,11.21,14.19,30.04c5.87,12.25,4.6,13.63,3.96,14.18-3.94,3.37-31.82-18.72-40.26-24.44-3.22-2.18,2.09,12.76-.23,13.96-3.96,2.06-21.64-13.59-28.62-24.44-1.68-2.62-2.1,5.41-4.42,6.05-7.91,2.19-19.6-39.38-46.08-53.06-5.92-3.06-8.85,1.08-12.33.47-42.3-7.45-14.73-405.12,5.59-404.7Z"/>
  <path class="cls-1" d="M500.59,170.41c-9.64.2-33.59,81.1-30.72,90.06,2.31,7.21-14.78-28.48-21.41-27-18.06,4.04-11.4,70.98-9.77,76.56,1.63,5.59-11.61-10.69-16.99-8.61-6.59,2.55-5.14,23.92-1.86,38.86,3.81,17.35,12.33,31.13,20.01,47.24,2.74,5.74,8.14,12.84,11.94,23.3.36.99.55,4.95-1,4.63-2.73-.56-7.53-10.9-18.62-27.69,0,0-8.23-12.47-23.97-28.16-5.59-5.57-11.6-10.81-12.57-8.38-1.92,4.83-.66,12.36-1.4,14.89-1.02,3.52-12.12-9.95-27-23.27-1.23-1.1-20.78-14.76-27.23-12.8-4.4,1.34.92,20.7,4.89,26.3,6.22,8.77-62.93-32.82-71.68-30.02-7.56,2.42,29.74,58.54,40.26,65.86,5.21,3.63-24.31-4.35-26.29-.77-3.4,6.13,33.08,39.04,45.61,47.78,3.9,2.72-12.63,1.41-13.96,5.35-1.86,5.5,16.31,18.66,36.07,26.3,15.21,5.88,18.71,3.6,42.59,11.4,7.3,2.39,28.13,9.19,27.46,12.57-.41,2.09-8.93,2.34-14.89,1.86-16.59-1.34-21.25-9.02-38.17-14.2-16.61-5.09-33.13-4.11-33.98-.93-.6,2.25,6.74,5.13,6.05,7.21-.92,2.81-14.59-1.19-32.58,2.33-4.44.87-12.62,2.46-13.03,5.82-.56,4.54,18.02,10.29,13.73,11.87-10.76,3.95-51.15,13.26-50.97,18.62.18,5.33,33.55,12.97,52.13,15.13,5.21.6-14.25,9.9-13.26,13.27,1.62,5.49,30.62,5.56,44.91,4.19,3.06-.29-4.16,5.81-3.03,8.38,1.92,4.33,20.25,4.13,36.54-3.72,14.77-7.12,22.85-18.1,38.63-20.01,3.2-.39,5.69-.28,6.28.93.46.95.13,3.33-14.43,15.36-12.51,10.33-19.87,14.86-18.85,17.69.92,2.55,7.67.88,8.61,3.49,1.23,3.4-9.57,7.9-17.45,20.48-.99,1.58-6.22,9.92-3.96,12.33,2.62,2.79,15.3-6.09,15.13-2.56-.17,3.44-5.17,11.21-14.19,30.04-5.87,12.25-4.6,13.63-3.96,14.18,3.94,3.37,31.82-18.72,40.26-24.44,3.22-2.18-2.09,12.76.23,13.96,3.96,2.06,21.64-13.59,28.62-24.44,1.68-2.62,2.1,5.41,4.42,6.05,7.91,2.19,19.6-39.38,46.08-53.06,5.92-3.06,8.85,1.08,12.33.47,42.3-7.45,14.73-405.12-5.59-404.7Z"/>
  <polygon class="cls-1" points="492 739.29 508.33 739.29 504.7 567.27 494.72 567.27 492 739.29"/>
</svg>