<?xml version="1.0" encoding="UTF-8"?>
<svg id="blyant" xmlns="http://www.w3.org/2000/svg" viewBox="0 0 1000 1000">
  <defs>
    <style>
      .cls-1 {
        fill: #ba8a3f;
      }

      .cls-1, .cls-2 {
        stroke-width: 0px;
      }

      .cls-2 {
        fill: #fff;
      }
    </style>
  </defs>
  <polyline class="cls-1" points="605.1 251.08 484.43 661.4 484.38 661.58 588.71 691.91 588.8 691.6 709.48 281.28"/>
  <path class="cls-1" d="M711,274.27s-.02.07-.03.11l-86.66-25.34-17.66-5.16c6.16-20.36,27.59-31.99,48.06-26.01l29.78,8.71c20.42,5.97,32.21,27.25,26.51,47.69Z"/>
  <polygon class="cls-1" points="481.03 668.57 512.05 762.97 589.04 700.15 481.03 668.57"/>
  <path class="cls-1" d="M275,765.47c13.52,1.79,27.77-3.73,36.63-14.08l-3.93-.51c3.45,7.68,10.8,14.45,19.21,16.09,4.49.88,8.67-.15,12.77-1.99,3.67-1.65,7.11-3.88,11.04-4.89.97-.25,1.99-.46,3-.35,1.09.12,1.92.72,2.81,1.3,1.86,1.23,3.86,2.04,6.07,2.39,4.59.73,9.29.38,13.9.98s9.43,1.77,13.95,3.34,8.54,3.87,13.02,5.21c4.94,1.48,9.92,1.04,14.11-2.1,3.1-2.33,5.78-5.93,9.62-7.05l-3.08-1.75c3.37,9.5,14.64,12.15,23.63,10.41,1.26-.25,2.52-.68,3.81-.69,1.53-.02,2.97.61,4.39,1.1,2.73.94,5.53,1.67,8.38,2.17,5.79,1.01,11.68,1.19,17.51.44,6.69-.86,13.13-2.82,19.15-5.88,2.87-1.46.34-5.78-2.52-4.32-9.46,4.82-20.4,6.62-30.93,5.23-2.65-.35-5.28-.93-7.84-1.69s-5.3-2.1-8.13-2.05c-2.51.04-4.94.99-7.37,1.16-1.97.14-3.97.06-5.88-.33-4.02-.84-7.97-2.94-9.37-6.87-.45-1.26-1.7-2.15-3.08-1.75-3.67,1.07-6.39,3.67-9.17,6.15s-5.55,4.15-9.36,3.6c-4.49-.65-8.6-3.12-12.76-4.77s-8.86-3.01-13.45-3.85-9.1-1.17-13.71-1.29c-2.05-.05-4.13-.13-6.08-.84s-3.42-2.24-5.41-2.87c-4.22-1.35-9.02.78-12.78,2.59-3.47,1.68-6.83,3.74-10.66,4.46-4.47.84-9-1.26-12.54-3.82s-6.17-6.07-7.94-9.99c-.63-1.41-2.95-1.64-3.93-.51-8.13,9.49-20.73,14.25-33.1,12.61-1.34-.18-2.5,1.28-2.5,2.5,0,1.5,1.16,2.32,2.5,2.5h0Z"/>
  <line class="cls-1" x1="709.48" y1="281.45" x2="605.1" y2="251.08"/>
  <rect class="cls-2" x="612.23" y="344.53" width="5.86" height="266.94" transform="translate(158.07 -152.85) rotate(16.23)"/>
  <rect class="cls-2" x="575.36" y="333.58" width="5.86" height="266.94" transform="translate(153.54 -142.98) rotate(16.23)"/>
</svg>