<?xml version="1.0" encoding="UTF-8"?>
<svg id="Layer_13" data-name="Layer 13" xmlns="http://www.w3.org/2000/svg" viewBox="0 0 1000 1000">
  <defs>
    <style>
      .cls-1 {
        fill: #a5a2ae;
        stroke-width: 0px;
      }
    </style>
  </defs>
  <g>
    <path class="cls-1" d="M185.83,479.99c17.95.76,34.21-7.18,48.06-17.95,12.66-9.84,22.8-22.08,33.38-34.01,5.27-5.94,10.71-11.76,16.6-17.09,1.39-1.25,2.79-2.48,4.23-3.67.36-.3,1.86-1.86,2.31-1.86-.1,0-1.88,1.4-.27.21.39-.29.79-.59,1.18-.87,3.13-2.28,6.4-4.37,9.82-6.18.74-.39,1.49-.77,2.24-1.13.31-.15,3.09-1.42,1.74-.82-1.25.55,1.01-.39,1.46-.55,1-.37,2.02-.71,3.04-1.03,1.71-.53,3.45-.98,5.21-1.33.83-.17,2.1-.14,2.85-.5-.04.02-2,.21-.85.12.61-.05,1.22-.13,1.83-.17,1.71-.13,3.43-.16,5.15-.1.91.03,1.82.1,2.73.18.33.03.69.12,1.02.11-2.49.06-.81-.11.04.05,1.57.28,3.13.64,4.66,1.07.88.25,1.75.52,2.61.81.43.15.86.3,1.29.46.32.12,2.22.73.72.25-1.27-.41-.22-.1.07.04.62.29,1.25.57,1.86.88.82.41,1.63.83,2.43,1.28,1.8,1.01,3.54,2.12,5.22,3.32.35.25.74.63,1.11.82-.93-.48-1.22-.96-.14-.07.79.66,1.57,1.34,2.33,2.04,1.43,1.33,2.78,2.73,4.05,4.2.3.35.59.7.88,1.05.62.75,1.39.87-.08-.14.63.43,1.15,1.58,1.58,2.24,1.14,1.71,2.18,3.48,3.1,5.31.2.41.4.82.6,1.23.15.33.78,2.17.32.68-.4-1.31-.09-.2,0,.07.23.64.47,1.28.69,1.93.65,1.96,1.15,3.95,1.54,5.98l14.69-11.29c-10.03-7.51-25.22-6.11-35.07.98-11.94,8.6-16.22,23.31-12.59,37.39,7.58,29.43,43.49,39.54,69.83,31.08,25.46-8.17,39.64-32.89,53.21-54.09,2.98-4.66,6.01-9.3,9.24-13.79.8-1.11,1.61-2.2,2.43-3.29,1.42-1.9-1.39,1.72.09-.12.42-.53.84-1.06,1.27-1.58,1.69-2.07,3.45-4.09,5.3-6.03s3.74-3.75,5.74-5.48c.71-.61,1.69-1.71,2.55-2.09-2.13.94-.63.49.09-.02s1.44-1.02,2.18-1.5c2.24-1.47,4.57-2.8,6.98-3.96.53-.26,1.07-.49,1.61-.74,1.47-.68-2.22.75.27-.08,1.82-.61,3.6-1.26,5.46-1.74,1.75-.46,3.8-1.14,5.62-1.16-2.53.03.13,0,.6-.04.95-.09,1.91-.15,2.86-.19,1.78-.08,3.55-.07,5.33.02.82.04,1.64.1,2.45.18.54.05,1.09.11,1.63.18-1.3-.18-1.38-.18-.22,0,3.5.71,6.92,1.5,10.27,2.77.36.14,2.81,1.27.64.24.94.44,1.88.88,2.79,1.36,1.51.79,2.99,1.66,4.42,2.59.61.4,1.22.81,1.82,1.24.4.28.79.57,1.18.87-.96-.75-1.15-.89-.58-.44,1.21,1.04,2.43,2.04,3.58,3.14,1.24,1.18,2.42,2.42,3.54,3.71.48.55.94,1.12,1.41,1.69.68.86.61.77-.22-.28.29.39.58.79.86,1.19,1.83,2.6,3.44,5.35,4.8,8.22.21.45,1.39,2.63.18.29.44.85.73,1.84,1.04,2.74.56,1.62,1.04,3.26,1.45,4.92l14.69-11.29c-10.58-6.17-21.8-11.39-34.33-9.38-10.86,1.74-18.97,10.29-22.88,20.14s-2.43,20.45,2.51,29.36c5.15,9.28,13.94,15.91,23.72,19.65,10.75,4.11,22.57,3.97,33.76,2.13,10.24-1.68,20.25-5.39,29.31-10.42,15.91-8.83,27.3-22.38,38.59-36.27,5.61-6.91,11.3-13.84,17.93-19.81.8-.72,1.61-1.43,2.44-2.12.41-.34.85-.66,1.25-1.01.68-.61-1.83,1.32,0,0,1.73-1.24,3.47-2.43,5.31-3.5.92-.53,1.85-1.04,2.79-1.51.38-.19.76-.38,1.15-.56.29-.14.58-.27.87-.4.79-.34.78-.34-.02,0-.72.81-.44.17.3-.09.61-.21,1.22-.44,1.83-.65,1.14-.38,2.3-.7,3.47-1,5.07-1.29,8.62-7.23,6.98-12.3s-6.87-8.37-12.3-6.98c-31.37,7.98-45.08,39.47-67.38,59.55-.73.66-1.48,1.31-2.24,1.94-.48.4-2.92,2.27-1.17.98-1.86,1.38-3.75,2.71-5.7,3.96-3.8,2.41-7.78,4.5-11.91,6.28,2.01-.87-.83.3-1.4.51-1.02.38-2.05.74-3.08,1.08-2.2.72-4.43,1.35-6.68,1.89-2.02.48-4.05.86-6.1,1.21-1.93.33-.3.05.09,0-.57.06-1.15.13-1.72.19-1.44.14-2.88.23-4.32.28-2.3.07-4.61.02-6.9-.19-.57-.05-1.14-.11-1.71-.18.39.05,2.01.35.11-.02-1.12-.22-2.24-.44-3.35-.72s-2.2-.6-3.28-.97c-.54-.18-1.07-.42-1.61-.59,1.65.52.57.26.15.06-1.94-.94-3.75-2.01-5.54-3.2-.52-.35-1.5-.67.31.28-.36-.19-.81-.67-1.1-.91-.63-.54-1.24-1.11-1.82-1.7-.67-.67-1.26-1.41-1.92-2.09-.95-.98,1.02,1.48.25.36-.33-.48-.69-.95-1.01-1.45-.51-.78-.99-1.59-1.42-2.42-.03-.06-.65-1.07-.62-1.26-.11.65.63,1.7.2.45-.31-.88-.61-1.76-.84-2.67-.12-.45-.2-.92-.31-1.37-.58-2.25.05,2.15-.03-.06-.03-.89-.09-1.77-.06-2.66,0,.11.08-1.33.09-1.33-.22,1.44-.27,1.78-.14,1.01.05-.33.11-.66.18-.98.2-.98.47-1.95.79-2.9.15-.44.29-1.73.09-.36s.1-.18.33-.62c.51-.99,1.09-1.91,1.71-2.84.85-1.28-.37.44-.36.46-.06-.13,1-1.12,1.1-1.21.3-.31.62-.61.94-.91,1.59-1.44-.29.04-.26.13-.06-.21,2.27-1.41,2.49-1.53l.29-.15c.79-.36.79-.37,0-.02-.79.33-.78.35.04.05l.63-.19c.2-.06,1.35-.47,1.66-.39-1.13.12-1.32.14-.58.07.42-.04.83-.07,1.25-.08.55-.02,1.11-.01,1.67.01.3.01,2.58.32,1.17.07s.43.12.75.19c.69.15,1.38.33,2.07.52,1.25.36,2.46.84,3.69,1.26,1.44.5-1.34-.67.04.02.66.33,1.34.62,2,.94,2.63,1.29,5.18,2.74,7.71,4.22,7.66,4.47,16.79-2.9,14.69-11.29-3.07-12.25-9.92-23.79-19.28-32.29-10.39-9.44-23.07-14.99-36.97-16.62s-27.15,1.35-38.91,7.86c-9.46,5.23-17.55,12.81-24.31,21.18-7.05,8.74-13.09,18.15-19.11,27.61-2.94,4.61-5.89,9.21-9.01,13.69-1.48,2.13-2.91,4.53-4.68,6.43.17-.18,1.4-1.77.3-.4-.43.53-.85,1.07-1.29,1.6-1.09,1.34-2.22,2.67-3.37,3.96-2.02,2.25-4.14,4.4-6.4,6.4-.51.45-1.03.9-1.56,1.34-.41.34-1.89,1.46-.23.22-1.53,1.14-3.11,2.22-4.75,3.19-1.18.7-2.4,1.29-3.61,1.93-2.48,1.3,1.82-.57-.82.37-.82.29-1.63.6-2.47.87-1.38.44-2.79.82-4.21,1.15-.85.19-1.71.33-2.57.51-1.17.18-1.15.19.07.03-.58.07-1.16.14-1.74.19-3,.28-6.03.34-9.04.16-.76-.05-1.52-.13-2.28-.18-1.87-.14.08.06.38.08-1.74-.12-3.55-.6-5.25-1.02-1.23-.31-2.45-.66-3.65-1.06-.72-.24-1.43-.52-2.14-.77-2.39-.86,1.85.99-.39-.18-1.34-.7-2.69-1.35-3.98-2.14-.43-.26-.85-.53-1.27-.81-.42-.28-.83-.56-1.23-.86,1.02.81,1.1.87.24.18-1.22-1.07-2.42-2.13-3.51-3.34-.36-.4-.94-.87-1.17-1.36.82,1.08.91,1.19.27.3-.27-.39-.54-.79-.8-1.2-.55-.87-2.08-2.74-2.06-3.79l.44,1.07c-.18-.44-.35-.89-.51-1.34-.32-.9-.6-1.82-.84-2.74-.18-.69-.3-1.39-.46-2.09-.53-2.32.09,2.21-.03-.16-.08-1.66-.08-3.27,0-4.93.12-2.37-.58,2.17.05-.12.19-.68.31-1.37.5-2.04.15-.5.33-1.61.68-2-.56,1.3-.61,1.45-.14.45.2-.4.41-.79.63-1.17.25-.42.63-.85.83-1.3.43-.61.22-.35-.64.79.26-.32.53-.63.8-.93.42-.45.85-.89,1.3-1.31.3-.28.61-.55.93-.81-1.22.92-1.4,1.07-.55.44,1.06-.67,2.1-1.27,3.2-1.88,1.91-1.05-2.19.69-.12.04.79-.25,1.55-.52,2.35-.73.4-.1.8-.17,1.2-.27,1.08-.19.8-.16-.85.07.4-.05.81-.08,1.21-.11.6-.04,1.21-.05,1.81-.03.4.01.8.03,1.2.07,1.09.11.8.07-.88-.12.44.33,2.91.99,3.44.97l-1.29-.53c.36.17.72.36,1.07.55.71.4,1.38.86,2.03,1.35,3.15,2.36,8.27,1.41,11.11-.78,3.33-2.57,4.37-6.46,3.58-10.51-3.18-16.41-14.26-30.7-28.32-39.4s-32.37-11.43-48.77-6.48c-33.42,10.08-51.38,41.69-75.47,64.21-1.71,1.6-3.45,3.16-5.24,4.66-.98.83-1.99,1.64-2.99,2.45-.53.42-.94,1.19.2-.15-.3.35-.85.64-1.23.92-3.74,2.75-7.68,5.26-11.82,7.36-.99.5-1.99.97-3,1.43-.57.26-1.39.94.36-.14-.5.31-1.17.46-1.71.66-2.05.76-4.15,1.41-6.28,1.93-1.06.26-2.14.49-3.22.68-.37.07-1.16.08-1.45.24.85-.46,1.7-.2.1-.05-2.36.23-4.72.26-7.09.16-5.23-.22-10.23,4.76-10,10,.25,5.61,4.39,9.76,10,10h0Z"/>
    <path class="cls-1" d="M671.68,397.35c4.01-1.21,8.1-2.11,12.26-2.69l-2.66.36c7.08-.95,14.25-.96,21.33-.03l-2.66-.36c4.92.68,9.88,1.69,14.48,3.59l-2.39-1.01c2.04.88,3.95,1.95,5.73,3.29l-2.02-1.56c3.92,3.04,7.36,6.9,10.4,10.79l-1.56-2.02c1.8,2.34,3.37,4.82,4.54,7.54l-1.01-2.39c.79,1.93,1.35,3.9,1.63,5.97l-.36-2.66c.19,1.61.19,3.21-.02,4.82l.36-2.66c-.07.44-.15.87-.24,1.3l12.3-6.98c-5.97-1.86-12.24-2.61-18.43-1.78s-11.55,3.3-16.29,7.32c-2.04,1.73-3.82,3.95-5.17,6.24-1.97,3.35-2.87,6.87-3.3,10.69-.71,6.3,1.2,12.53,3.8,18.2,2.14,4.65,5.4,9.02,9.16,12.49,4.5,4.15,9.54,6.99,15.16,9.29,4.33,1.77,8.89,2.89,13.51,3.62,5.59.89,11.29,1.58,16.97,1.57,6.38-.01,12.96-.87,18.93-3.19s11.62-5.5,17.14-8.91c2.17-1.34,3.91-3.49,4.6-5.98s.36-5.58-1.01-7.71c-2.88-4.46-8.92-6.53-13.68-3.59-4.37,2.7-8.77,5.38-13.5,7.4l2.39-1.01c-3.4,1.42-6.91,2.39-10.56,2.9l2.66-.36c-6.38.82-12.84.39-19.19-.46l2.66.36c-5.39-.74-10.73-1.92-15.78-4.01l2.39,1.01c-3.06-1.3-5.94-2.92-8.58-4.96l2.02,1.56c-2.1-1.67-3.98-3.56-5.64-5.66l1.56,2.02c-1.71-2.23-3.14-4.64-4.27-7.22l1.01,2.39c-.96-2.27-1.67-4.62-2.05-7.06l.36,2.66c-.24-1.79-.28-3.56-.06-5.36l-.36,2.66c.19-1.28.5-2.51.98-3.71l-1.01,2.39c.52-1.22,1.17-2.35,1.96-3.41l-1.56,2.02c.96-1.24,2.07-2.33,3.31-3.3l-2.02,1.56c1.37-1.03,2.83-1.87,4.41-2.54l-2.39,1.01c1.76-.72,3.56-1.18,5.44-1.46l-2.66.36c2.58-.33,5.16-.28,7.74.06l-2.66-.36c2.28.33,4.51.85,6.71,1.54,4.95,1.55,11.19-1.83,12.3-6.98,1.78-8.23-.03-16.57-4.4-23.71-1.97-3.23-4.4-6.22-6.92-9.04-2-2.25-4.07-4.48-6.37-6.43-1.59-1.35-3.26-2.67-5.03-3.79-1.98-1.25-4.14-2.15-6.31-3.04-2.83-1.16-5.77-1.97-8.75-2.6-6.92-1.46-14.07-2.22-21.15-2.02-7.91.22-15.91,1.46-23.49,3.75-2.45.74-4.67,2.37-5.98,4.6s-1.79,5.3-1.01,7.71c1.63,5.05,6.94,8.61,12.3,6.98h0Z"/>
  </g>
  <g>
    <path class="cls-1" d="M185.83,598.18c17.95.76,34.21-7.18,48.06-17.95,12.66-9.84,22.8-22.08,33.38-34.01,5.27-5.94,10.71-11.76,16.6-17.09,1.39-1.25,2.79-2.48,4.23-3.67.36-.3,1.86-1.86,2.31-1.86-.1,0-1.88,1.4-.27.21.39-.29.79-.59,1.18-.87,3.13-2.28,6.4-4.37,9.82-6.18.74-.39,1.49-.77,2.24-1.13.31-.15,3.09-1.42,1.74-.82-1.25.55,1.01-.39,1.46-.55,1-.37,2.02-.71,3.04-1.03,1.71-.53,3.45-.98,5.21-1.33.83-.17,2.1-.14,2.85-.5-.04.02-2,.21-.85.12.61-.05,1.22-.13,1.83-.17,1.71-.13,3.43-.16,5.15-.1.91.03,1.82.1,2.73.18.33.03.69.12,1.02.11-2.49.06-.81-.11.04.05,1.57.28,3.13.64,4.66,1.07.88.25,1.75.52,2.61.81.43.15.86.3,1.29.46.32.12,2.22.73.72.25-1.27-.41-.22-.1.07.04.62.29,1.25.57,1.86.88.82.41,1.63.83,2.43,1.28,1.8,1.01,3.54,2.12,5.22,3.32.35.25.74.63,1.11.82-.93-.48-1.22-.96-.14-.07.79.66,1.57,1.34,2.33,2.04,1.43,1.33,2.78,2.73,4.05,4.2.3.35.59.7.88,1.05.62.75,1.39.87-.08-.14.63.43,1.15,1.58,1.58,2.24,1.14,1.71,2.18,3.48,3.1,5.31.2.41.4.82.6,1.23.15.33.78,2.17.32.68-.4-1.31-.09-.2,0,.07.23.64.47,1.28.69,1.93.65,1.96,1.15,3.95,1.54,5.98l14.69-11.29c-10.03-7.51-25.22-6.11-35.07.98-11.94,8.6-16.22,23.31-12.59,37.39,7.58,29.43,43.49,39.54,69.83,31.08,25.46-8.17,39.64-32.89,53.21-54.09,2.98-4.66,6.01-9.3,9.24-13.79.8-1.11,1.61-2.2,2.43-3.29,1.42-1.9-1.39,1.72.09-.12.42-.53.84-1.06,1.27-1.58,1.69-2.07,3.45-4.09,5.3-6.03s3.74-3.75,5.74-5.48c.71-.61,1.69-1.71,2.55-2.09-2.13.94-.63.49.09-.02s1.44-1.02,2.18-1.5c2.24-1.47,4.57-2.8,6.98-3.96.53-.26,1.07-.49,1.61-.74,1.47-.68-2.22.75.27-.08,1.82-.61,3.6-1.26,5.46-1.74,1.75-.46,3.8-1.14,5.62-1.16-2.53.03.13,0,.6-.04.95-.09,1.91-.15,2.86-.19,1.78-.08,3.55-.07,5.33.02.82.04,1.64.1,2.45.18.54.05,1.09.11,1.63.18-1.3-.18-1.38-.18-.22,0,3.5.71,6.92,1.5,10.27,2.77.36.14,2.81,1.27.64.24.94.44,1.88.88,2.79,1.36,1.51.79,2.99,1.66,4.42,2.59.61.4,1.22.81,1.82,1.24.4.28.79.57,1.18.87-.96-.75-1.15-.89-.58-.44,1.21,1.04,2.43,2.04,3.58,3.14,1.24,1.18,2.42,2.42,3.54,3.71.48.55.94,1.12,1.41,1.69.68.86.61.77-.22-.28.29.39.58.79.86,1.19,1.83,2.6,3.44,5.35,4.8,8.22.21.45,1.39,2.63.18.29.44.85.73,1.84,1.04,2.74.56,1.62,1.04,3.26,1.45,4.92l14.69-11.29c-10.58-6.17-21.8-11.39-34.33-9.38-10.86,1.74-18.97,10.29-22.88,20.14s-2.43,20.45,2.51,29.36c5.15,9.28,13.94,15.91,23.72,19.65,10.75,4.11,22.57,3.97,33.76,2.13,10.24-1.68,20.25-5.39,29.31-10.42,15.91-8.83,27.3-22.38,38.59-36.27,5.61-6.91,11.3-13.84,17.93-19.81.8-.72,1.61-1.43,2.44-2.12.41-.34.85-.66,1.25-1.01.68-.61-1.83,1.32,0,0,1.73-1.24,3.47-2.43,5.31-3.5.92-.53,1.85-1.04,2.79-1.51.38-.19.76-.38,1.15-.56.29-.14.58-.27.87-.4.79-.34.78-.34-.02,0-.72.81-.44.17.3-.09.61-.21,1.22-.44,1.83-.65,1.14-.38,2.3-.7,3.47-1,5.07-1.29,8.62-7.23,6.98-12.3s-6.87-8.37-12.3-6.98c-31.37,7.98-45.08,39.47-67.38,59.55-.73.66-1.48,1.31-2.24,1.94-.48.4-2.92,2.27-1.17.98-1.86,1.38-3.75,2.71-5.7,3.96-3.8,2.41-7.78,4.5-11.91,6.28,2.01-.87-.83.3-1.4.51-1.02.38-2.05.74-3.08,1.08-2.2.72-4.43,1.35-6.68,1.89-2.02.48-4.05.86-6.1,1.21-1.93.33-.3.05.09,0-.57.06-1.15.13-1.72.19-1.44.14-2.88.23-4.32.28-2.3.07-4.61.02-6.9-.19-.57-.05-1.14-.11-1.71-.18.39.05,2.01.35.11-.02-1.12-.22-2.24-.44-3.35-.72s-2.2-.6-3.28-.97c-.54-.18-1.07-.42-1.61-.59,1.65.52.57.26.15.06-1.94-.94-3.75-2.01-5.54-3.2-.52-.35-1.5-.67.31.28-.36-.19-.81-.67-1.1-.91-.63-.54-1.24-1.11-1.82-1.7-.67-.67-1.26-1.41-1.92-2.09-.95-.98,1.02,1.48.25.36-.33-.48-.69-.95-1.01-1.45-.51-.78-.99-1.59-1.42-2.42-.03-.06-.65-1.07-.62-1.26-.11.65.63,1.7.2.45-.31-.88-.61-1.76-.84-2.67-.12-.45-.2-.92-.31-1.37-.58-2.25.05,2.15-.03-.06-.03-.89-.09-1.77-.06-2.66,0,.11.08-1.33.09-1.33-.22,1.44-.27,1.78-.14,1.01.05-.33.11-.66.18-.98.2-.98.47-1.95.79-2.9.15-.44.29-1.73.09-.36s.1-.18.33-.62c.51-.99,1.09-1.91,1.71-2.84.85-1.28-.37.44-.36.46-.06-.13,1-1.12,1.1-1.21.3-.31.62-.61.94-.91,1.59-1.44-.29.04-.26.13-.06-.21,2.27-1.41,2.49-1.53l.29-.15c.79-.36.79-.37,0-.02-.79.33-.78.35.04.05l.63-.19c.2-.06,1.35-.47,1.66-.39-1.13.12-1.32.14-.58.07.42-.04.83-.07,1.25-.08.55-.02,1.11-.01,1.67.01.3.01,2.58.32,1.17.07s.43.12.75.19c.69.15,1.38.33,2.07.52,1.25.36,2.46.84,3.69,1.26,1.44.5-1.34-.67.04.02.66.33,1.34.62,2,.94,2.63,1.29,5.18,2.74,7.71,4.22,7.66,4.47,16.79-2.9,14.69-11.29-3.07-12.25-9.92-23.79-19.28-32.29-10.39-9.44-23.07-14.99-36.97-16.62s-27.15,1.35-38.91,7.86c-9.46,5.23-17.55,12.81-24.31,21.18-7.05,8.74-13.09,18.15-19.11,27.61-2.94,4.61-5.89,9.21-9.01,13.69-1.48,2.13-2.91,4.53-4.68,6.43.17-.18,1.4-1.77.3-.4-.43.53-.85,1.07-1.29,1.6-1.09,1.34-2.22,2.67-3.37,3.96-2.02,2.25-4.14,4.4-6.4,6.4-.51.45-1.03.9-1.56,1.34-.41.34-1.89,1.46-.23.22-1.53,1.14-3.11,2.22-4.75,3.19-1.18.7-2.4,1.29-3.61,1.93-2.48,1.3,1.82-.57-.82.37-.82.29-1.63.6-2.47.87-1.38.44-2.79.82-4.21,1.15-.85.19-1.71.33-2.57.51-1.17.18-1.15.19.07.03-.58.07-1.16.14-1.74.19-3,.28-6.03.34-9.04.16-.76-.05-1.52-.13-2.28-.18-1.87-.14.08.06.38.08-1.74-.12-3.55-.6-5.25-1.02-1.23-.31-2.45-.66-3.65-1.06-.72-.24-1.43-.52-2.14-.77-2.39-.86,1.85.99-.39-.18-1.34-.7-2.69-1.35-3.98-2.14-.43-.26-.85-.53-1.27-.81-.42-.28-.83-.56-1.23-.86,1.02.81,1.1.87.24.18-1.22-1.07-2.42-2.13-3.51-3.34-.36-.4-.94-.87-1.17-1.36.82,1.08.91,1.19.27.3-.27-.39-.54-.79-.8-1.2-.55-.87-2.08-2.74-2.06-3.79l.44,1.07c-.18-.44-.35-.89-.51-1.34-.32-.9-.6-1.82-.84-2.74-.18-.69-.3-1.39-.46-2.09-.53-2.32.09,2.21-.03-.16-.08-1.66-.08-3.27,0-4.93.12-2.37-.58,2.17.05-.12.19-.68.31-1.37.5-2.04.15-.5.33-1.61.68-2-.56,1.3-.61,1.45-.14.45.2-.4.41-.79.63-1.17.25-.42.63-.85.83-1.3.43-.61.22-.35-.64.79.26-.32.53-.63.8-.93.42-.45.85-.89,1.3-1.31.3-.28.61-.55.93-.81-1.22.92-1.4,1.07-.55.44,1.06-.67,2.1-1.27,3.2-1.88,1.91-1.05-2.19.69-.12.04.79-.25,1.55-.52,2.35-.73.4-.1.8-.17,1.2-.27,1.08-.19.8-.16-.85.07.4-.05.81-.08,1.21-.11.6-.04,1.21-.05,1.81-.03.4.01.8.03,1.2.07,1.09.11.8.07-.88-.12.44.33,2.91.99,3.44.97l-1.29-.53c.36.17.72.36,1.07.55.71.4,1.38.86,2.03,1.35,3.15,2.36,8.27,1.41,11.11-.78,3.33-2.57,4.37-6.46,3.58-10.51-3.18-16.41-14.26-30.7-28.32-39.4s-32.37-11.43-48.77-6.48c-33.42,10.08-51.38,41.69-75.47,64.21-1.71,1.6-3.45,3.16-5.24,4.66-.98.83-1.99,1.64-2.99,2.45-.53.42-.94,1.19.2-.15-.3.35-.85.64-1.23.92-3.74,2.75-7.68,5.26-11.82,7.36-.99.5-1.99.97-3,1.43-.57.26-1.39.94.36-.14-.5.31-1.17.46-1.71.66-2.05.76-4.15,1.41-6.28,1.93-1.06.26-2.14.49-3.22.68-.37.07-1.16.08-1.45.24.85-.46,1.7-.2.1-.05-2.36.23-4.72.26-7.09.16-5.23-.22-10.23,4.76-10,10,.25,5.61,4.39,9.76,10,10h0Z"/>
    <path class="cls-1" d="M671.68,515.54c4.01-1.21,8.1-2.11,12.26-2.69l-2.66.36c7.08-.95,14.25-.96,21.33-.03l-2.66-.36c4.92.68,9.88,1.69,14.48,3.59l-2.39-1.01c2.04.88,3.95,1.95,5.73,3.29l-2.02-1.56c3.92,3.04,7.36,6.9,10.4,10.79l-1.56-2.02c1.8,2.34,3.37,4.82,4.54,7.54l-1.01-2.39c.79,1.93,1.35,3.9,1.63,5.97l-.36-2.66c.19,1.61.19,3.21-.02,4.82l.36-2.66c-.07.44-.15.87-.24,1.3l12.3-6.98c-5.97-1.86-12.24-2.61-18.43-1.78s-11.55,3.3-16.29,7.32c-2.04,1.73-3.82,3.95-5.17,6.24-1.97,3.35-2.87,6.87-3.3,10.69-.71,6.3,1.2,12.53,3.8,18.2,2.14,4.65,5.4,9.02,9.16,12.49,4.5,4.15,9.54,6.99,15.16,9.29,4.33,1.77,8.89,2.89,13.51,3.62,5.59.89,11.29,1.58,16.97,1.57,6.38-.01,12.96-.87,18.93-3.19s11.62-5.5,17.14-8.91c2.17-1.34,3.91-3.49,4.6-5.98s.36-5.58-1.01-7.71c-2.88-4.46-8.92-6.53-13.68-3.59-4.37,2.7-8.77,5.38-13.5,7.4l2.39-1.01c-3.4,1.42-6.91,2.39-10.56,2.9l2.66-.36c-6.38.82-12.84.39-19.19-.46l2.66.36c-5.39-.74-10.73-1.92-15.78-4.01l2.39,1.01c-3.06-1.3-5.94-2.92-8.58-4.96l2.02,1.56c-2.1-1.67-3.98-3.56-5.64-5.66l1.56,2.02c-1.71-2.23-3.14-4.64-4.27-7.22l1.01,2.39c-.96-2.27-1.67-4.62-2.05-7.06l.36,2.66c-.24-1.79-.28-3.56-.06-5.36l-.36,2.66c.19-1.28.5-2.51.98-3.71l-1.01,2.39c.52-1.22,1.17-2.35,1.96-3.41l-1.56,2.02c.96-1.24,2.07-2.33,3.31-3.3l-2.02,1.56c1.37-1.03,2.83-1.87,4.41-2.54l-2.39,1.01c1.76-.72,3.56-1.18,5.44-1.46l-2.66.36c2.58-.33,5.16-.28,7.74.06l-2.66-.36c2.28.33,4.51.85,6.71,1.54,4.95,1.55,11.19-1.83,12.3-6.98,1.78-8.23-.03-16.57-4.4-23.71-1.97-3.23-4.4-6.22-6.92-9.04-2-2.25-4.07-4.48-6.37-6.43-1.59-1.35-3.26-2.67-5.03-3.79-1.98-1.25-4.14-2.15-6.31-3.04-2.83-1.16-5.77-1.97-8.75-2.6-6.92-1.46-14.07-2.22-21.15-2.02-7.91.22-15.91,1.46-23.49,3.75-2.45.74-4.67,2.37-5.98,4.6s-1.79,5.3-1.01,7.71c1.63,5.05,6.94,8.61,12.3,6.98h0Z"/>
  </g>
</svg>