<?xml version="1.0" encoding="UTF-8"?>
<svg id="By" xmlns="http://www.w3.org/2000/svg" viewBox="0 0 1000 1000">
  <defs>
    <style>
      .cls-1 {
        stroke: #a5a2ae;
        stroke-miterlimit: 10;
        stroke-width: 3px;
      }

      .cls-1, .cls-2 {
        fill: #a5a2ae;
      }

      .cls-2 {
        stroke-width: 0px;
      }
    </style>
  </defs>
  <path class="cls-2" d="M327.21,241.34v492.37h74.48v-60.2h40.93v60.2h62.45V241.34h-177.86ZM435.99,288.93h24.99v50.75h-24.99v-50.75ZM435.99,353.99h23.62v50.75h-23.62v-50.75ZM435.99,419.05h23.62v50.75h-23.62v-50.75ZM435.99,484.11h23.62v50.75h-23.62v-50.75ZM406.45,599.92h-24.99v-50.75h24.99v50.75ZM406.45,534.86h-24.99v-50.75h24.99v50.75ZM406.45,469.8h-24.99v-50.75h24.99v50.75ZM406.45,404.74h-24.99v-50.75h24.99v50.75ZM406.45,339.68h-24.99v-50.75h24.99v50.75ZM435.99,599.92v-50.75h23.62v50.75h-23.62Z"/>
  <path class="cls-2" d="M459.61,343.07v390.64h86.48v-60.2h46.31v60.2h63.95v-390.64h-196.74ZM546.09,623.77h-29.65v-60.21h29.65v60.21ZM546.09,547.73h-29.65v-60.2h29.65v60.2ZM546.09,471.7h-29.65v-60.21h29.65v60.21ZM610.79,623.77h-29.66v-60.21h29.66v60.21ZM610.79,547.73h-29.66v-60.2h29.66v60.2ZM610.79,471.7h-29.66v-60.21h29.66v60.21Z"/>
  <line class="cls-1" x1="400.4" y1="732.2" x2="442.88" y2="732.2"/>
  <line class="cls-1" x1="546.09" y1="732.2" x2="592.4" y2="732.2"/>
</svg>