<?xml version="1.0" encoding="UTF-8"?>
<svg id="Layer_1" data-name="Layer 1" xmlns="http://www.w3.org/2000/svg" viewBox="0 0 1591.09 313.26">
  <defs>
    <style>
      .cls-1 {
        fill: #517d5b;
        stroke-width: 0px;
      }
    </style>
  </defs>
  <path class="cls-1" d="M105.69,286.37c-1.64,3.34-4.44,6.98-8.39,10.94-3.96,3.96-9.27,7.54-15.96,10.8-3.54,1.72-7.11,3.04-10.73,3.96-3.62.92-7.05,1.31-10.29,1.15-3.24-.16-6.16-.96-8.76-2.41-2.6-1.45-4.66-3.65-6.17-6.61-15.01-29.47-30.03-58.94-45.04-88.4-2.72-5.27,11.07-15.94,41.85-30.59,20.03-9.49,40.2-18.6,60.49-27.3,1.49.99,3,2.22,4.52,3.69,1.52,1.47,2.93,3.05,4.22,4.73,1.28,1.68,2.46,3.41,3.54,5.18,1.08,1.77,1.96,3.47,2.64,5.08,2.85,6.71,3.38,12.51,1.64,17.4-1.75,4.89-6.14,8.85-13.19,11.96-11.62,5.11-23.2,10.36-34.73,15.74-1.33.62-2.18,1.34-2.53,2.15-.35.81-.33,1.63.06,2.45.06.12.16.34.31.66.15.32.32.51.51.57,14.68-6.89,29.44-13.56,44.26-20.01,2.34,1.54,4.69,3.64,7.04,6.31,2.35,2.67,4.24,5.69,5.68,9.03,2.06,4.78,3.13,9.02,3.2,12.71.07,3.69-.26,6.66-1,8.9-16.05,7-32.02,14.26-47.9,21.79-.3.72-.3,1.37-.02,1.96.25.53.65.83,1.2.89.54.07,1.35-.08,2.41-.44,1.06-.35,2.44-.94,4.16-1.74,1.72-.8,3.92-1.8,6.6-2.97,3.46,7.47,6.93,14.94,10.39,22.42Z"/>
  <path class="cls-1" d="M220.6,249.4c-7.6,2.88-15.13,4.54-22.64,4.98-7.51.44-14.6-.53-21.3-2.93-6.7-2.4-12.86-6.26-18.47-11.62-5.61-5.35-10.28-12.39-13.96-21.16-3.32-7.92-4.96-15.66-4.86-23.21.1-7.55,1.75-14.63,4.96-21.21,3.21-6.58,7.89-12.51,14.04-17.74,6.15-5.23,13.58-9.51,22.26-12.79,8.68-3.28,17.11-4.9,25.22-4.86,8.12.04,15.56,1.57,22.32,4.55,6.76,2.98,12.65,7.33,17.69,13,5.04,5.67,8.88,12.47,11.55,20.37,2.75,8.14,3.95,15.91,3.64,23.31-.31,7.4-2.06,14.21-5.22,20.45-3.16,6.24-7.69,11.79-13.61,16.7-5.92,4.91-13.12,8.94-21.63,12.16ZM204.03,212.55c.63.25,1.41.2,2.34-.16,1.26-.48,1.98-1.15,2.15-2.01.17-.86-.04-2.09-.64-3.67-1.64-4.36-3.28-8.71-4.91-13.07-1.03-2.74-1.95-5.04-2.76-6.89-.81-1.85-1.62-3.32-2.41-4.41-.8-1.09-1.52-1.72-2.17-1.9-.65-.17-1.31-.13-1.99.13-.61.23-1.07.51-1.37.83-.3.32-.55.66-.72,1.01.44.95.89,1.82,1.35,2.62.46.8.93,1.72,1.4,2.76.47,1.04,1.01,2.26,1.62,3.67.61,1.41,1.3,3.11,2.06,5.12,2.02,5.33,4.05,10.65,6.07,15.98Z"/>
  <path class="cls-1" d="M275.35,114.31c4.36-1.37,8.2-1.88,11.5-1.54,3.3.35,6.14,1.39,8.51,3.12-.65,1.15-1.19,2.47-1.61,3.96-.43,1.49-.75,2.94-.97,4.33-.22,1.4-.34,2.69-.35,3.89-.01,1.2.08,2.11.27,2.73.23.75.75,1.32,1.56,1.72.81.4,1.87.4,3.19,0-.09-5.01.61-9.44,2.08-13.29,1.48-3.85,3.51-7.17,6.09-9.97,2.58-2.8,5.58-5.12,9-6.96,3.42-1.84,7-3.29,10.76-4.35,3.05-.86,5.9-1.47,8.55-1.84,2.65-.36,5.08-.54,7.29-.54,2.21,0,4.19.16,5.95.46,1.75.3,3.26.66,4.5,1.07,1.84,2.34,3.4,4.92,4.68,7.75,1.28,2.83,2.29,5.66,3.04,8.49,1.35,5.1,1.97,9.48,1.86,13.15-.11,3.67-.45,6.76-1.04,9.27-.97.8-2.22,1.68-3.74,2.63-1.52.95-3.22,1.89-5.08,2.8-1.86.92-3.87,1.79-6.01,2.62-2.15.83-4.28,1.55-6.42,2.16-2.27.64-4.3,1.15-6.09,1.53-1.79.38-3.44.67-4.95.87-1.51.2-2.91.34-4.19.41-1.29.07-2.58.16-3.9.28-.4.66-.47,1.46-.19,2.4.26.87,1.1,1.37,2.51,1.5,1.42.13,3.85-.01,7.31-.4,4.55,15.7,9.09,31.39,13.64,47.09-1.87,2.03-3.84,3.81-5.92,5.34-2.08,1.53-4.16,2.86-6.24,3.99-2.08,1.13-4.11,2.08-6.08,2.85-1.97.77-3.82,1.42-5.54,1.95-3.7,1.14-7.27,1.89-10.72,2.26-3.44.37-6.58.27-9.42-.29-2.84-.56-5.29-1.63-7.34-3.22-2.05-1.59-3.55-3.81-4.48-6.66-5.19-15.94-10.39-31.88-15.58-47.82-2.9-1.93-5.4-4.37-7.47-7.32-2.08-2.95-3.71-6.21-4.89-9.8-.98-2.97-1.56-6.41-1.73-10.33-.17-3.92.34-7.62,1.54-11.09,5.37-1.75,10.74-3.47,16.12-5.17Z"/>
  <path class="cls-1" d="M482.4,122.03c.85,4.41,2.08,7.95,3.66,10.63,1.59,2.68,3.99,4.57,7.19,5.69.16.5.32,1.12.46,1.85.14.74.24,1.3.32,1.68.92,4.86.88,9.21-.09,13.04-.97,3.83-2.54,7.13-4.71,9.9-2.17,2.78-4.8,5.03-7.89,6.78-3.09,1.74-6.35,2.97-9.78,3.68-2.42.5-4.85.72-7.29.67-2.44-.05-4.8-.4-7.09-1.04-2.29-.64-4.44-1.62-6.47-2.95-2.02-1.32-3.76-3.02-5.22-5.1-1.15.25-1.95.73-2.4,1.43-.45.7-.57,1.53-.35,2.48.2.89.72,1.78,1.55,2.66.83.88,1.94,1.74,3.33,2.56-1.85,1.88-4.51,3.57-7.98,5.09-3.47,1.52-7.08,2.72-10.83,3.6-6.1,1.43-11.83,1.97-17.21,1.61-5.38-.36-10.26-1.62-14.63-3.8-4.38-2.18-8.14-5.23-11.29-9.16-3.14-3.93-5.48-8.78-6.99-14.58-1.56-5.98-1.83-11.45-.8-16.39,1.04-4.94,3.07-9.33,6.09-13.15,3.02-3.82,6.86-7.04,11.52-9.66,4.65-2.61,9.79-4.58,15.39-5.89,2.52-.59,4.78-1.03,6.78-1.32,2-.29,3.72-.5,5.16-.63,1.67-.11,3.09-.17,4.27-.16.07-.68.05-1.25-.05-1.69-.19-.83-.82-1.42-1.89-1.78-1.08-.36-2.42-.51-4.03-.44-1.61.07-3.45.27-5.52.61-2.07.34-4.15.76-6.26,1.26-4.77,1.12-9.43,2.74-13.96,4.85-4.53,2.11-8.44,4.63-11.71,7.53-2.12-1.95-4.11-4.6-5.98-7.96-1.86-3.36-3.27-6.89-4.22-10.62-.45-1.77-.78-3.58-.99-5.44-.21-1.86-.1-3.58.33-5.17,1.65-1.23,3.8-2.66,6.46-4.29,2.65-1.63,5.79-3.31,9.41-5.03,3.62-1.72,7.67-3.41,12.15-5.07,4.48-1.66,9.37-3.09,14.67-4.29,9.24-2.09,17.54-2.92,24.85-2.54,7.31.38,13.61,1.87,18.88,4.43,5.27,2.56,9.54,6.17,12.8,10.8,3.26,4.64,5.5,10.16,6.73,16.55,1.21,6.26,2.42,12.53,3.63,18.79ZM429.46,138.02c-1.59.36-2.62.98-3.11,1.86-.49.88-.62,1.8-.4,2.75.29,1.27.99,2.04,2.11,2.32,1.11.28,2.35.26,3.73-.05,2.2-.5,3.77-1.38,4.71-2.66.94-1.28,1.12-3.25.53-5.92-2.52.56-5.04,1.12-7.56,1.7Z"/>
  <path class="cls-1" d="M558.06,126.37c-.05.14-.09.38-.11.71-.02.33,0,.66.04.98.2,1.35,1.39,2.13,3.58,2.34,2.18.21,5.03.06,8.55-.44,5.11-.72,10.06-1.81,14.87-3.26,4.81-1.45,8.86-3.07,12.16-4.86,4.29.52,7.98,1.66,11.07,3.43,3.09,1.77,5.67,3.88,7.77,6.33,2.09,2.45,3.7,5.15,4.83,8.1,1.13,2.95,1.85,5.92,2.18,8.9.68,6.15-.15,11.74-2.45,16.78-2.3,5.04-5.79,9.46-10.47,13.27-4.67,3.81-10.39,6.98-17.17,9.55-6.78,2.57-14.31,4.45-22.61,5.67-8.3,1.22-15.67,1.59-22.12,1.08-6.45-.51-11.98-1.7-16.58-3.59-4.61-1.89-8.25-4.36-10.93-7.42-2.68-3.06-4.38-6.55-5.08-10.46-.31-1.73-.39-3.42-.23-5.07.16-1.65.47-3.21.95-4.68.47-1.47,1.08-2.79,1.82-3.94.74-1.15,1.58-2.08,2.51-2.77,3.64,2.01,8.87,3.32,15.66,3.99,6.8.66,14.83.27,24.12-1.12,5.16-.77,8.68-1.52,10.59-2.29,1.9-.76,2.76-1.82,2.57-3.18-.06-.45-.18-.81-.36-1.08-.18-.27-.35-.53-.52-.76-1.59.55-3.6,1.1-6.02,1.65-2.42.55-4.62.97-6.59,1.27-5.78.86-11.42,1.33-16.92,1.38-5.5.06-10.47-.52-14.91-1.75-4.45-1.23-8.19-3.17-11.23-5.85-3.04-2.67-4.98-6.31-5.8-10.93-.56-3.14-.41-6.29.46-9.45.87-3.16,2.67-5.74,5.41-7.73-1.75-.62-3.58-1.54-5.48-2.77-1.9-1.22-3.71-2.8-5.42-4.75-1.72-1.94-3.25-4.25-4.6-6.92-1.35-2.67-2.35-5.79-3-9.38-1.13-6.28-.77-12.13,1.13-17.57,1.9-5.43,5.03-10.28,9.4-14.53,4.37-4.25,9.85-7.84,16.43-10.74,6.57-2.9,13.93-4.97,22.05-6.16,4.64-.68,9.01-.93,13.1-.75,4.09.18,7.64.54,10.66,1.05-.3-2.26-.61-4.52-.91-6.78,1.59-.8,3.8-1.62,6.62-2.45,2.82-.82,5.94-1.45,9.36-1.88,3.42-.43,6.62-.58,9.59-.48,2.97.11,5.58.66,7.83,1.64,2.25.99,4.1,2.52,5.54,4.58,1.44,2.07,2.36,4.85,2.74,8.34.18,1.62.24,3.2.2,4.74-.05,1.54-.28,3.09-.69,4.65-.55,2.22-1.42,4.48-2.61,6.78,1.17,1.97,2.12,4.15,2.86,6.56.74,2.41,1.31,5.42,1.72,9.04.66,5.89.04,11.21-1.84,15.98-1.88,4.77-4.77,8.92-8.66,12.47-3.89,3.55-8.69,6.47-14.39,8.78-5.7,2.31-12.11,3.96-19.24,4.97-2.22.31-4.41.53-6.58.65-2.17.12-3.79.16-4.86.12ZM560.04,87c-.16-1.1-.51-1.92-1.06-2.46-.55-.55-1.32-.75-2.32-.6-.71.1-1.3.4-1.77.9-.47.5-.63,1.29-.46,2.39.49,3.32.97,6.63,1.46,9.95.7.36,1.44.48,2.21.37,1.55-.23,2.44-.8,2.66-1.72.23-.92.21-2.31-.06-4.18-.22-1.55-.44-3.09-.67-4.64Z"/>
  <path class="cls-1" d="M629.68,54.4c1.36-.99,2.73-1.81,4.13-2.47,1.39-.66,2.88-1.46,4.47-2.4-1.44-.52-2.93-1.29-4.5-2.31-1.56-1.02-3.03-2.3-4.39-3.83-1.36-1.53-2.54-3.33-3.52-5.39-.98-2.06-1.61-4.42-1.89-7.07-.43-4.14,0-8,1.32-11.57,1.31-3.57,3.29-6.71,5.94-9.42,2.65-2.71,5.84-4.93,9.58-6.64,3.73-1.72,7.84-2.77,12.3-3.14,4.53-.38,8.78,0,12.72,1.12,3.94,1.13,7.4,2.83,10.4,5.1,2.99,2.27,5.4,5.05,7.22,8.35,1.82,3.3,2.85,6.94,3.12,10.9.23,3.38-.2,6.56-1.28,9.53-1.08,2.98-2.59,5.68-4.53,8.1-1.94,2.42-4.26,4.5-6.97,6.24-2.7,1.74-5.54,3.02-8.53,3.85.08.97.38,1.82.91,2.52.53.71,1.37,1.02,2.52.93,3.6-.28,7.24-1.86,10.95-4.74.23.11.6.32,1.13.6.53.29,1.1.64,1.71,1.05.61.41,1.18.81,1.71,1.2.53.39.88.67,1.04.86.89,12.86,1.78,25.72,2.66,38.58.31,4.48,1.1,8.29,2.37,11.44,1.27,3.14,3.42,5.46,6.46,6.96.1.52.18,1.15.23,1.89.05.75.08,1.32.11,1.71.32,4.94-.14,9.24-1.35,12.91-1.21,3.67-3.05,6.74-5.49,9.23-2.45,2.49-5.42,4.41-8.93,5.79-3.51,1.37-7.37,2.23-11.6,2.58-3.28.27-6.75.04-10.43-.68-3.68-.72-7.12-2.17-10.33-4.35-3.21-2.18-6-5.23-8.37-9.15-2.37-3.92-3.88-8.95-4.5-15.11-2.12-21.05-4.25-42.1-6.37-63.16Z"/>
  <path class="cls-1" d="M728.88,34.43c3.06-.13,5.65.25,7.76,1.15,2.11.89,4,2.06,5.65,3.5-3.1,2.78-4.61,5.06-4.54,6.81.03.78.35,1.47.95,2.06.6.6,1.59.87,2.96.82,1.36-2.33,3.19-4.58,5.48-6.74,2.29-2.16,4.99-4.07,8.12-5.72,3.12-1.65,6.63-3,10.51-4.03,3.88-1.03,8.05-1.58,12.51-1.65,5.26-.08,10.62.48,16.06,1.68,5.44,1.2,10.35,3.35,14.71,6.41,4.36,3.07,7.88,7.26,10.58,12.55,2.7,5.3,3.99,11.95,3.9,19.96-.03,2.93-.12,6.22-.26,9.86-.14,3.65-.23,7.03-.26,10.15-.05,4.49.44,8.21,1.46,11.15,1.02,2.94,2.98,5.28,5.89,7.01.06.52.09,1.16.08,1.91-.01.75-.02,1.32-.03,1.71-.07,4.62-.9,8.7-2.46,12.22-1.57,3.53-3.67,6.48-6.31,8.86-2.64,2.38-5.68,4.17-9.15,5.36-3.47,1.19-7.14,1.79-11.04,1.8-4.11,0-8.03-.5-11.77-1.54-3.74-1.04-7.06-2.75-9.95-5.15-2.89-2.4-5.22-5.54-6.99-9.45-1.77-3.9-2.72-8.72-2.85-14.45-.06-3.06,0-5.96.18-8.7.19-2.74.42-5.3.68-7.68.27-2.38.52-4.58.77-6.61.24-2.02.35-3.88.32-5.57-.06-3.12-.48-5.25-1.25-6.37-.77-1.12-1.98-1.67-3.61-1.63-1.07.02-2.06.31-2.97.85.59,5.29,1.18,10.59,1.76,15.88-.31,1.96-.56,3.94-.76,5.93-.2,1.99-.35,3.87-.44,5.63-.1,1.76-.16,3.36-.2,4.79-.04,1.43-.04,2.61-.02,3.52.12,5.08.76,9.26,1.92,12.56,1.15,3.29,2.44,6.13,3.87,8.51-2.97,3.06-6.84,5.54-11.62,7.47-4.78,1.93-10.24,3-16.4,3.23-3.08.12-6.22-.18-9.44-.88-3.22-.71-6.16-1.85-8.81-3.45-2.66-1.6-4.88-3.63-6.67-6.11-1.79-2.48-2.78-5.47-2.98-8.98-.86-15.73-1.72-31.46-2.57-47.2-2.28-2.61-4.05-5.61-5.28-9-1.23-3.39-1.97-6.96-2.19-10.73-.18-3.12.14-6.59.97-10.42.83-3.83,2.26-7.27,4.29-10.31,6.48-.35,12.97-.67,19.46-.95Z"/>
  <path class="cls-1" d="M895.83,110.58c-.08.13-.16.35-.25.67-.09.32-.14.64-.16.97-.07,1.37.94,2.36,3.03,3,2.09.64,4.91,1.06,8.45,1.27,5.14.31,10.2.23,15.2-.24,4.99-.47,9.28-1.24,12.87-2.34,4.1,1.36,7.48,3.22,10.15,5.57,2.67,2.35,4.78,4.93,6.35,7.75,1.56,2.82,2.6,5.79,3.12,8.9.52,3.12.64,6.17.37,9.15-.56,6.16-2.49,11.47-5.74,15.96-3.26,4.48-7.56,8.12-12.89,10.92-5.33,2.8-11.57,4.77-18.71,5.94-7.15,1.17-14.88,1.51-23.25,1.05-8.36-.46-15.63-1.56-21.84-3.35-6.2-1.79-11.37-4.05-15.49-6.82-4.12-2.77-7.2-5.91-9.2-9.45-2.01-3.54-2.97-7.29-2.88-11.26.04-1.76.3-3.43.79-5.01.48-1.58,1.1-3.05,1.86-4.4.75-1.35,1.61-2.51,2.56-3.5.95-.98,1.96-1.72,3-2.21,3.16,2.7,8,5.02,14.51,7.03,6.51,2,14.43,3.22,23.8,3.71,5.19.27,8.8.24,10.81-.14,2.01-.37,3.06-1.24,3.14-2.6.03-.45-.02-.83-.14-1.13-.12-.3-.24-.59-.36-.85-1.67.23-3.74.37-6.22.42-2.48.06-4.71.03-6.7-.07-5.83-.3-11.43-.97-16.81-2.01-5.39-1.04-10.12-2.6-14.22-4.69-4.1-2.09-7.36-4.74-9.8-7.97-2.44-3.22-3.61-7.18-3.49-11.86.08-3.19.85-6.25,2.33-9.17,1.48-2.92,3.75-5.09,6.82-6.5-1.59-.96-3.19-2.23-4.8-3.8-1.61-1.57-3.06-3.48-4.35-5.73-1.29-2.25-2.33-4.81-3.11-7.69-.79-2.88-1.14-6.15-1.06-9.79.14-6.38,1.66-12.04,4.59-16.99,2.93-4.94,6.96-9.07,12.07-12.36,5.12-3.29,11.18-5.72,18.19-7.26,7-1.53,14.61-2.09,22.78-1.65,4.67.25,8.99.88,12.96,1.88,3.96.99,7.37,2.05,10.22,3.16.15-2.27.31-4.55.46-6.82,1.72-.47,4.04-.83,6.96-1.08,2.92-.25,6.1-.24,9.54.02,3.44.26,6.6.75,9.49,1.44,2.89.69,5.33,1.75,7.34,3.17,2.01,1.42,3.51,3.28,4.52,5.59,1,2.31,1.34,5.22,1.02,8.72-.15,1.62-.4,3.18-.75,4.69-.35,1.5-.89,2.98-1.6,4.42-.98,2.07-2.29,4.11-3.91,6.12.75,2.16,1.25,4.49,1.49,6.99.25,2.51.2,5.57-.12,9.21-.53,5.9-2.2,11-4.99,15.29-2.79,4.3-6.44,7.79-10.96,10.49-4.52,2.7-9.79,4.61-15.83,5.74-6.04,1.13-12.64,1.47-19.81,1.04-2.23-.13-4.42-.36-6.57-.68-2.15-.32-3.74-.6-4.78-.85ZM905.6,72.4c.06-1.1-.12-1.98-.55-2.62-.43-.64-1.14-1-2.14-1.05-.72-.04-1.35.14-1.91.53-.56.39-.87,1.14-.93,2.25-.18,3.35-.37,6.7-.55,10.04.61.49,1.31.76,2.09.8,1.56.09,2.54-.3,2.95-1.15.41-.86.66-2.23.77-4.11.09-1.56.18-3.12.27-4.68Z"/>
  <path class="cls-1" d="M1084.82,131.44c-.09.12-.2.33-.32.64-.12.31-.21.63-.27.95-.23,1.35.67,2.46,2.68,3.32,2.01.87,4.77,1.61,8.28,2.22,5.09.89,10.14,1.39,15.18,1.48,5.03.1,9.39-.19,13.09-.87,3.93,1.82,7.1,4.05,9.5,6.68,2.4,2.63,4.22,5.44,5.46,8.42,1.24,2.98,1.94,6.04,2.11,9.2.16,3.16-.06,6.2-.66,9.14-1.25,6.06-3.77,11.12-7.52,15.21-3.75,4.09-8.45,7.21-14.08,9.39-5.63,2.18-12.07,3.43-19.32,3.79-7.25.35-15.01-.18-23.29-1.58-8.28-1.4-15.4-3.32-21.38-5.79-5.98-2.48-10.87-5.31-14.66-8.52-3.8-3.22-6.5-6.69-8.1-10.43-1.6-3.74-2.14-7.58-1.6-11.51.24-1.74.69-3.37,1.35-4.89.66-1.52,1.44-2.91,2.34-4.16.9-1.25,1.89-2.32,2.95-3.19,1.06-.87,2.14-1.49,3.24-1.86,2.84,3.04,7.4,5.89,13.66,8.62,6.26,2.73,14.02,4.83,23.29,6.37,5.15.86,8.74,1.23,10.79,1.09,2.04-.14,3.19-.88,3.42-2.23.08-.45.07-.83-.01-1.14-.09-.31-.17-.61-.26-.89-1.69.04-3.77-.06-6.24-.28-2.48-.22-4.7-.5-6.67-.83-5.77-.96-11.28-2.26-16.52-3.9-5.25-1.64-9.79-3.72-13.64-6.26-3.85-2.54-6.8-5.54-8.87-9.02-2.06-3.48-2.79-7.54-2.14-12.18.44-3.16,1.55-6.11,3.35-8.85,1.8-2.74,4.31-4.64,7.52-5.69-1.48-1.13-2.92-2.57-4.35-4.32-1.43-1.75-2.66-3.81-3.69-6.18-1.03-2.38-1.77-5.04-2.23-8-.46-2.95-.45-6.24.04-9.85.86-6.32,3.01-11.78,6.48-16.36,3.48-4.58,7.95-8.23,13.41-10.93,5.47-2.69,11.78-4.42,18.93-5.16,7.15-.73,14.79-.43,22.88.93,4.63.78,8.86,1.89,12.7,3.33,3.84,1.44,7.12,2.87,9.83,4.29.41-2.24.82-4.48,1.23-6.73,1.77-.27,4.12-.37,7.06-.29,2.94.08,6.11.45,9.51,1.1,3.4.65,6.5,1.49,9.3,2.51,2.8,1.02,5.12,2.35,6.97,3.98,1.84,1.63,3.14,3.66,3.88,6.07.74,2.41.75,5.34.04,8.78-.33,1.59-.75,3.12-1.28,4.57-.52,1.45-1.22,2.86-2.09,4.21-1.21,1.94-2.74,3.82-4.59,5.64.51,2.23.74,4.6.7,7.12-.04,2.52-.42,5.56-1.15,9.13-1.19,5.8-3.43,10.68-6.69,14.63-3.26,3.96-7.3,7.01-12.11,9.19-4.81,2.17-10.28,3.47-16.43,3.91-6.15.44-12.76.03-19.87-1.21-2.21-.39-4.36-.86-6.47-1.42-2.11-.56-3.66-1.02-4.67-1.38ZM1098.85,94.6c.19-1.09.1-1.98-.25-2.67-.36-.69-1.03-1.12-2.02-1.29-.71-.12-1.36-.02-1.96.31-.6.33-.99,1.04-1.18,2.13-.56,3.31-1.12,6.61-1.68,9.92.56.56,1.22.9,1.99,1.03,1.54.26,2.57,0,3.07-.81.5-.81.91-2.14,1.23-4,.27-1.54.53-3.08.8-4.62Z"/>
  <path class="cls-1" d="M1267.61,155.01c-1.22,4.32-1.71,8.04-1.49,11.15.22,3.11,1.53,5.88,3.9,8.32-.08.52-.22,1.14-.42,1.86-.21.72-.36,1.27-.47,1.64-1.36,4.76-3.35,8.62-5.94,11.61-2.59,2.99-5.48,5.23-8.68,6.73-3.2,1.5-6.57,2.34-10.13,2.51-3.56.17-7.03-.2-10.43-1.11-2.4-.64-4.68-1.54-6.84-2.68-2.16-1.14-4.12-2.51-5.89-4.11-1.76-1.6-3.25-3.44-4.47-5.54-1.22-2.09-2.01-4.39-2.38-6.9-1.15-.29-2.08-.22-2.79.2-.72.42-1.19,1.11-1.43,2.06-.22.88-.16,1.91.19,3.07.35,1.16.96,2.42,1.83,3.78-2.5.85-5.64,1.16-9.42.97-3.79-.2-7.55-.75-11.3-1.65-6.1-1.46-11.46-3.55-16.1-6.28-4.64-2.73-8.43-6.05-11.36-9.96-2.93-3.91-4.92-8.32-5.96-13.24-1.04-4.92-.95-10.31.3-16.17,1.29-6.05,3.49-11.05,6.63-15.01,3.14-3.95,6.91-6.96,11.32-9.02,4.41-2.06,9.28-3.22,14.61-3.47,5.32-.25,10.79.29,16.39,1.63,2.52.6,4.74,1.22,6.66,1.86,1.92.63,3.55,1.22,4.9,1.75,1.54.65,2.84,1.24,3.9,1.77.37-.58.61-1.09.72-1.53.2-.82-.09-1.63-.9-2.44-.8-.8-1.94-1.54-3.41-2.2-1.47-.66-3.21-1.31-5.21-1.93-2-.62-4.06-1.18-6.16-1.68-4.77-1.14-9.66-1.78-14.65-1.93-4.99-.15-9.61.35-13.83,1.48-1.02-2.69-1.61-5.96-1.77-9.79-.16-3.83.17-7.63.99-11.38.39-1.78.91-3.55,1.55-5.31.65-1.76,1.51-3.25,2.61-4.48,2.02-.36,4.58-.67,7.68-.95,3.1-.27,6.65-.37,10.66-.28,4.01.09,8.38.39,13.13.92,4.75.53,9.76,1.44,15.05,2.75,9.21,2.28,17.02,5.26,23.4,8.88,6.38,3.63,11.36,7.79,14.95,12.44,3.58,4.66,5.79,9.8,6.64,15.41.85,5.61.37,11.55-1.39,17.82-1.73,6.14-3.46,12.28-5.19,18.42ZM1212.96,145.52c-1.58-.39-2.79-.3-3.62.27-.83.57-1.36,1.33-1.59,2.27-.31,1.27-.03,2.27.84,3.02.87.75,1.99,1.29,3.36,1.63,2.19.54,3.99.46,5.41-.26,1.42-.72,2.46-2.4,3.13-5.05-2.51-.63-5.01-1.26-7.52-1.88Z"/>
  <path class="cls-1" d="M1333.36,113.66c2.95.93,5.29,2.18,6.99,3.75,1.7,1.57,3.1,3.31,4.18,5.24-3.9,1.55-6.11,3.17-6.64,4.84-.24.74-.17,1.5.2,2.27.37.77,1.22,1.36,2.54,1.79,2.09-1.72,4.49-3.2,7.21-4.44,2.72-1.24,5.75-2.11,9.1-2.62,3.35-.51,7.01-.57,10.98-.2,3.97.37,8.23,1.34,12.78,2.91,3.5,1.21,6.6,2.7,9.31,4.48,2.71,1.78,5.04,3.68,6.99,5.69,1.95,2.01,3.51,4,4.67,5.98,1.17,1.98,1.99,3.82,2.47,5.52,2.37-1.35,4.94-2.37,7.71-3.06,2.77-.68,5.6-1.04,8.49-1.07,2.9-.03,5.82.23,8.78.79,2.96.56,5.79,1.36,8.49,2.4,6.37,2.45,11.65,5.53,15.82,9.2,4.17,3.68,7.23,7.84,9.19,12.46,1.96,4.62,2.82,9.62,2.61,14.98-.22,5.36-1.54,10.97-3.94,16.8-1.11,2.71-2.4,5.63-3.84,8.77-1.45,3.14-2.76,6.15-3.95,9.04-1.71,4.16-2.65,7.87-2.84,11.13-.19,3.27.77,6.25,2.88,8.96-.14.51-.31,1.03-.54,1.57-.22.54-.41.99-.56,1.35-1.78,4.27-4.08,7.73-6.91,10.4-2.82,2.67-5.92,4.61-9.3,5.83-3.38,1.22-6.93,1.72-10.68,1.5-3.75-.22-7.46-1.05-11.15-2.51-3.88-1.54-7.4-3.48-10.57-5.82-3.16-2.34-5.67-5.15-7.52-8.43-1.85-3.28-2.9-7.05-3.13-11.31-.24-4.26.64-9.08,2.65-14.44,3.6-9.63,7.21-19.27,10.81-28.9,1.53-4.08.8-6.69-2.18-7.8-.47-.18-1.01-.29-1.61-.34-.6-.05-1.07-.03-1.41.05-1.07,4.78-2.14,9.55-3.22,14.32-2.55,6.9-5.11,13.8-7.66,20.7-1.47,3.97-2.45,7.65-2.96,11.04-.51,3.39-.37,6.55.4,9.48-4.4,1.97-9.24,2.95-14.53,2.96-5.3,0-10.32-.83-15.1-2.53-3.47-1.23-6.63-2.79-9.5-4.68-2.87-1.89-5.18-4.24-6.95-7.04-1.76-2.8-2.8-6.11-3.1-9.92-.3-3.81.38-8.22,2.06-13.22,3.64-10.83,7.28-21.66,10.91-32.49,1.39-4.13.58-6.71-2.43-7.71-.48-.16-1.02-.25-1.62-.28-.6-.03-1.07,0-1.4.1-.91,4.81-1.82,9.62-2.74,14.42-2.72,8.19-5.44,16.37-8.16,24.56-1.11,3.34-1.89,6.32-2.36,8.94-.47,2.62-.46,5.32.01,8.08-3.86,1.87-8.39,2.88-13.59,3.07-5.21.18-10.77-.67-16.71-2.54-3.1-.98-6.06-2.35-8.89-4.1-2.83-1.76-5.21-3.85-7.16-6.27-1.95-2.43-3.31-5.13-4.09-8.11-.78-2.99-.66-6.22.38-9.72,4.43-14.91,8.87-29.83,13.3-44.74-1.29-3.24-1.96-6.66-1.99-10.26-.03-3.61.48-7.22,1.54-10.85.88-3,2.36-6.16,4.44-9.48,2.08-3.32,4.6-6.08,7.55-8.25,8.51,2.53,17,5.13,25.48,7.79Z"/>
  <path class="cls-1" d="M1509.55,299.99c-8.68-4.09-16.02-8.87-22.05-14.42-6.03-5.55-10.61-11.63-13.73-18.29-3.13-6.66-4.72-13.78-4.76-21.37-.04-7.59,1.62-15.41,5.03-23.44,3.59-8.45,8.27-15.27,14.1-20.42,5.83-5.15,12.32-8.77,19.48-10.82,7.16-2.05,14.75-2.61,22.73-1.65,7.99.96,15.87,3.25,23.59,6.87,8.2,3.84,15.07,8.41,20.58,13.65,5.52,5.25,9.66,10.83,12.42,16.72,2.77,5.89,4.14,11.87,4.14,17.92,0,6.06-1.41,11.81-4.19,17.26-2.63,5.16-5.92,9.08-9.84,11.76-3.92,2.68-8.29,4.32-13.11,4.93-4.82.61-9.99.28-15.52-.98-5.54-1.26-11.2-3.28-17.01-6.05-4.39-2.09-8.42-4.57-12.1-7.43-3.68-2.86-6.62-5.76-8.82-8.7-.44.09-.79.3-1.06.64-.27.34-.48.66-.61.95-.41.89-.09,2.09.95,3.6,1.04,1.51,2.53,3.13,4.48,4.86,1.95,1.73,4.28,3.5,6.98,5.3,2.7,1.81,5.5,3.4,8.4,4.78,4,1.9,7.75,3.41,11.27,4.5,3.52,1.09,6.76,1.92,9.72,2.47,2.96.55,5.62.87,7.99.96,2.36.09,4.39.05,6.09-.12.51,1.06.76,2.37.74,3.93-.02,1.56-.19,3.2-.51,4.94-.32,1.74-.77,3.46-1.35,5.17-.59,1.71-1.22,3.23-1.89,4.57-.68,1.34-1.4,2.56-2.16,3.67-.76,1.11-1.49,2.04-2.18,2.78-2.82.55-5.78.93-8.89,1.16-3.11.23-6.58.07-10.39-.47-3.82-.54-8.05-1.52-12.7-2.94-4.65-1.42-9.92-3.53-15.81-6.3ZM1536.42,239.57c1.65.77,3.03,1.05,4.15.82,1.12-.23,1.91-.84,2.39-1.84.56-1.18.47-2.23-.27-3.15-.74-.92-1.77-1.7-3.09-2.32-1.85-.87-3.54-1.1-5.06-.7-1.52.41-2.77,1.31-3.74,2.73.5.66,1.2,1.4,2.1,2.22.9.82,2.08,1.57,3.53,2.25Z"/>
</svg>