<?xml version="1.0" encoding="UTF-8"?>
<svg id="Layer_9" data-name="Layer 9" xmlns="http://www.w3.org/2000/svg" viewBox="0 0 1000 1000">
  <defs>
    <style>
      .cls-1 {
        fill: #2a6238;
        stroke-width: 0px;
      }
    </style>
  </defs>
  <path class="cls-1" d="M559.89,338.15c0,64.91-31.95,120.13-76.55,140.61-44.6-20.48-76.56-75.7-76.56-140.61s31.95-120.13,76.56-140.61c44.6,20.48,76.55,75.7,76.55,140.61Z"/>
  <path class="cls-1" d="M559.89,338.15c0,64.91-31.95,120.13-76.55,140.61-44.6-20.48-76.56-75.7-76.56-140.61s31.95-120.13,76.56-140.61c44.6,20.48,76.55,75.7,76.55,140.61Z"/>
  <path class="cls-1" d="M568.51,359.56c-10.96,63.33-46.11,109.67-85.61,119.14-32.58-30.49-49.08-91.9-38.11-155.23,10.96-63.33,46.11-109.67,85.61-119.14,32.58,30.49,49.08,91.9,38.11,155.23Z"/>
  <path class="cls-1" d="M551.09,726.66c-17.62,35.37-41.13,62.11-61.24,72.23-3.24,1.63-6.38,2.83-9.4,3.56-2.62-6.07-3.92-13.85-3.92-22.86,0-16.82,4.51-37.9,13.32-60.09,2.5-6.3,5.35-12.69,8.54-19.09,20.45-41.04,48.84-70.48,70.65-75.78,8.9,20.59,2.5,60.99-17.95,102.03Z"/>
  <path class="cls-1" d="M400.14,358.81c10.96,63.33,45.03,109.99,83.03,119.89,31.08-30.05,46.5-91.15,35.54-154.48s-45.03-109.99-83.03-119.89c-31.08,30.05-46.5,91.15-35.54,154.48Z"/>
  <path class="cls-1" d="M489.85,475.31v323.58c-3.24,1.63-6.38,2.83-9.4,3.56h-3.92v-327.14h13.32Z"/>
</svg>