<?xml version="1.0" encoding="UTF-8"?>
<svg xmlns="http://www.w3.org/2000/svg" viewBox="0 0 1000 1000">
  <defs>
    <style>
      .cls-1 {
        stroke: #ba8a3f;
        stroke-miterlimit: 10;
      }

      .cls-1, .cls-2 {
        fill: #ba8a3f;
      }

      .cls-2, .cls-3 {
        stroke-width: 0px;
      }

      .cls-3 {
        fill: #fff;
      }
    </style>
  </defs>
  <g id="Snefnug">
    <polygon class="cls-3" points="501.12 113.53 487.82 138.67 501.12 155.11 513.93 136.01 501.12 113.53"/>
  </g>
  <g id="Kurv">
    <path class="cls-1" d="M488.75,322.64h0c15.06,0,27.3,12.23,27.3,27.3v79.36c0,10.23-8.31,18.54-18.54,18.54h-17.52c-10.23,0-18.54-8.31-18.54-18.54v-79.36c0-15.06,12.23-27.3,27.3-27.3Z"/>
    <path class="cls-1" d="M623.09,339.59h0c18,0,32.62,14.61,32.62,32.62v159.67h-65.23v-159.67c0-18,14.61-32.62,32.62-32.62Z" transform="translate(1058.83 -187.35) rotate(90)"/>
    <path class="cls-1" d="M321.84,339.59h65.23v159.67c0,18-14.61,32.62-32.62,32.62h0c-18,0-32.62-14.61-32.62-32.62v-159.67h0Z" transform="translate(790.2 81.28) rotate(90)"/>
    <path class="cls-1" d="M529.72,443.14v25.21h-80.36v-25.21h1.28c4.43,9.45,19.92,16.42,38.34,16.42s33.92-6.97,38.35-16.42h2.39Z"/>
    <g>
      <path class="cls-2" d="M529.02,443.96c-.05.04-.12.06-.19.05.03,0,.06.01.08.02"/>
      <path class="cls-2" d="M527.76,441.8s-.03.02-.05.03l.6-.25s-.04.01-.07.02l.66-.09s-.04,0-.06,0l.66.09s0,0,0,0c-.33-.1-.66-.12-1-.04-.33.02-.64.11-.93.3-.29.16-.53.37-.7.64-.22.24-.37.52-.45.85l-.09.66c0,.45.12.87.34,1.26l.39.51c.31.31.68.52,1.1.64.03,0,.06.01.08.02.33.1.66.12,1,.04.33-.02.64-.11.93-.3.29-.16.53-.37.7-.64.22-.24.37-.52.45-.85l.09-.66c0-.45-.12-.87-.34-1.26l-.39-.51c-.31-.31-.68-.52-1.1-.64-.03,0-.06-.01-.08-.02l-1.33,4.82c.23.04.46.08.69.09,0,0,.02,0,.03,0,0,0,0,0,.01,0,.22-.02.71-.1.67-.09,0,0,.02,0,.03,0s.02,0,.02,0c.21-.07.42-.17.62-.26.02,0,.03-.02.04-.03.29-.16.53-.37.7-.64.22-.24.37-.52.45-.85.1-.33.12-.66.04-1-.02-.33-.11-.64-.3-.93l-.39-.51c-.31-.31-.68-.52-1.1-.64l-.66-.09c-.45,0-.87.12-1.26.34h0Z"/>
    </g>
    <g>
      <path class="cls-2" d="M529.56,439.8l-.26,1.53c-.2,1.19-.41,2.39-.87,3.5-.02.04-.03.09,0,.11s.05-.07.02-.05"/>
      <path class="cls-2" d="M527.15,439.14c-.16.93-.3,1.87-.49,2.79-.09.45-.19.9-.32,1.34-.06.21-.13.42-.21.63-.04.11-.08.22-.12.33-.12.44-.12.89,0,1.33.09.22.18.43.27.65l.39.51c.23.24.49.42.8.52.53.22,1.06.26,1.63.13.39-.09.87-.37,1.13-.65.31-.33.52-.69.65-1.13l.09-.66c.01-.34-.06-.67-.22-.96-.19-.46-.55-.98-1.02-1.2h-.02c-.29-.19-.6-.29-.93-.31-.33-.07-.66-.06-1,.04-.58.16-1.21.61-1.49,1.15-.31.58-.46,1.28-.25,1.93.19.58.57,1.23,1.15,1.49h.02c-.38-.93-.77-1.87-1.15-2.81v.03c.57-.58,1.15-1.16,1.74-1.75h-.03c.94.39,1.88.77,2.82,1.16l-.02-.05.25,1.93c.1-.41.29-.82.41-1.23s.2-.83.28-1.25c.17-.87.3-1.74.45-2.61.12-.68.11-1.31-.25-1.93-.3-.52-.9-1.01-1.49-1.15-.64-.15-1.36-.11-1.93.25-.52.33-1.04.86-1.15,1.49h0Z"/>
    </g>
    <g>
      <path class="cls-2" d="M448.76,443.51l-.15-.96"/>
      <path class="cls-2" d="M451.18,442.85l-.15-.96c-.08-.33-.23-.61-.45-.85-.18-.27-.41-.49-.7-.64-.29-.18-.6-.28-.93-.3-.33-.07-.66-.06-1,.04l-.6.25c-.38.22-.67.52-.9.9l-.25.6c-.12.44-.12.89,0,1.33l.15.96c.08.33.23.61.45.85.18.27.41.49.7.64.29.18.6.28.93.3.33.07.66.06,1-.04l.6-.25c.38-.22.67-.52.9-.9l.25-.6c.12-.44.12-.89,0-1.33h0Z"/>
    </g>
    <path class="cls-1" d="M299.29,479.02v99.57c0,63,51.07,114.07,114.07,114.07h152.36c63,0,114.07-51.07,114.07-114.07v-99.57h-380.5ZM415.49,628.52c0,7.1-5.76,12.85-12.86,12.85s-12.86-5.75-12.86-12.85v-85.36c0-7.1,5.76-12.85,12.86-12.85,3.55,0,6.77,1.44,9.09,3.76,2.33,2.33,3.77,5.54,3.77,9.09v85.36ZM474.26,628.52c0,7.1-5.75,12.85-12.85,12.85s-12.86-5.75-12.86-12.85v-85.36c0-7.1,5.75-12.85,12.86-12.85,3.55,0,6.76,1.44,9.09,3.76,2.32,2.33,3.76,5.54,3.76,9.09v85.36ZM528.85,628.52c0,7.1-5.75,12.85-12.85,12.85s-12.86-5.75-12.86-12.85v-85.36c0-7.1,5.75-12.85,12.86-12.85,3.55,0,6.76,1.44,9.09,3.76,2.32,2.33,3.76,5.54,3.76,9.09v85.36ZM585.87,628.52c0,7.1-5.75,12.85-12.85,12.85s-12.86-5.75-12.86-12.85v-85.36c0-7.1,5.75-12.85,12.86-12.85,3.55,0,6.76,1.44,9.09,3.76,2.32,2.33,3.76,5.54,3.76,9.09v85.36Z"/>
    <g>
      <path class="cls-2" d="M529.19,442.18c-2.19,4.82-5.46,9.14-9.49,12.57"/>
      <path class="cls-2" d="M527.03,440.92c-1.09,2.38-2.44,4.62-3.99,6.72-.14.19-.14.18,0,0-.11.14-.22.28-.33.42-.2.25-.4.49-.61.74-.41.48-.83.96-1.27,1.42-.92.98-1.89,1.9-2.91,2.77s-.94,2.67,0,3.54c1.06.98,2.47.91,3.54,0,4.17-3.57,7.59-8.08,9.88-13.08.54-1.19.38-2.75-.9-3.42-1.1-.58-2.84-.37-3.42.9h0Z"/>
    </g>
    <g>
      <path class="cls-2" d="M529.28,436.82c-.52,6.03-2.65,11.92-6.1,16.89"/>
      <path class="cls-2" d="M526.78,436.82c-.23,2.57-.9,5.52-1.86,8.18-.91,2.52-2.28,5.1-3.9,7.45-.77,1.11-.21,2.77.9,3.42,1.24.72,2.65.22,3.42-.9,3.7-5.39,5.85-11.66,6.44-18.16.12-1.35-1.24-2.5-2.5-2.5-1.45,0-2.38,1.15-2.5,2.5h0Z"/>
    </g>
    <g>
      <path class="cls-2" d="M448.7,438.14c.47,3.82,1.53,7.67,3.88,10.72.86,1.11,1.87,2.1,2.88,3.07.94.91,1.88,1.82,2.81,2.73"/>
      <path class="cls-2" d="M446.2,438.14c.45,3.52,1.23,6.99,2.99,10.11s4.71,5.65,7.32,8.18c.97.94,2.57.97,3.54,0s.97-2.59,0-3.54c-2.26-2.19-4.87-4.32-6.4-6.92-.77-1.32-1.16-2.29-1.59-3.79-.21-.72-.39-1.46-.54-2.2-.07-.37-.14-.74-.2-1.11-.03-.19-.06-.37-.09-.56-.05-.31-.05-.37-.02-.17-.16-1.29-1.03-2.57-2.5-2.5-1.21.05-2.68,1.11-2.5,2.5h0Z"/>
    </g>
  </g>
</svg>