<?xml version="1.0" encoding="UTF-8"?><svg id="Layer_1" xmlns="http://www.w3.org/2000/svg" width="1217.03" height="1121.79" viewBox="0 0 1217.03 1121.79"><defs><style>.cls-1{fill:none;stroke:#fff;stroke-miterlimit:10;}.cls-2{isolation:isolate;}.cls-3{fill:#517d5b;}.cls-3,.cls-4,.cls-5{stroke-width:0px;}.cls-4{fill:#426047;}.cls-5{fill:#fff;}</style></defs><g id="Layer_8"><rect class="cls-3" x="25.41" y="9.98" width="1160.56" height="1111.8"/></g><g id="Layer_11"><path class="cls-5" d="m24.57,1084.42c85.1-46.89,515.41,10.74,618.43.03,33.57-8.4,213.83-37.86,278.23-21.86,64.39,16,219.48,44.12,265.32,10.32v78.36H24.57v-66.85h0Z"/></g><g id="Layer_7"><g class="cls-2"><path class="cls-5" d="m414.52,838.87l-18.08,36.6c-1.1,2.26-2.15,3.82-3.15,4.67-1,.85-2.26,1.28-3.78,1.28-1.26,0-2.39-.28-3.39-.83-.76-.42-1.36-.91-1.79-1.48-.43-.56-.98-1.58-1.63-3.05l-16.11-35.5c-.89-2-1.7-3.36-2.42-4.08-.72-.72-1.75-1.2-3.09-1.44-1.58-.29-2.36-1.26-2.36-2.92,0-2.02,1.38-3.58,4.14-4.67s6.71-1.63,11.86-1.63,9.3.41,11.82,1.22c2.52.81,3.78,2.08,3.78,3.78,0,1.1-.68,2.13-2.05,3.07-1.05.71-1.58,1.38-1.58,2.01,0,.58.24,1.41.71,2.48l4.92,11.11c.71,1.63,1.51,2.44,2.4,2.44s1.64-.43,2.32-1.3c.68-.87,1.6-2.57,2.76-5.12,2.07-4.57,3.28-7.27,3.62-8.1.34-.83.51-1.46.51-1.91,0-.89-.62-1.65-1.85-2.29-1.37-.71-2.05-1.62-2.05-2.72,0-3.12,4.19-4.69,12.57-4.69,4.18,0,7.12.33,8.84,1,1.72.67,2.58,1.82,2.58,3.45,0,1.94-1.13,3.06-3.39,3.35-1.6.18-2.64.45-3.11.79-.84.6-1.84,2.09-2.99,4.45Z"/><path class="cls-5" d="m441.9,825.83c2.99,0,5.82.26,8.47.79,3.57.71,5.36,2.22,5.36,4.53,0,.76-.18,1.33-.53,1.71s-1.25.94-2.7,1.67c-1.21.6-2,1.93-2.38,3.98-.38,2.05-.57,6.04-.57,11.98,0,10.03.25,16.25.75,18.63.18.76.47,1.35.85,1.75.38.41,1.04.85,1.99,1.32,1.73.79,2.6,1.93,2.6,3.43,0,2.1-1.6,3.55-4.81,4.33-3.47.84-7.71,1.26-12.73,1.26-8.56,0-12.84-1.63-12.84-4.89,0-1.18.84-2.28,2.52-3.31,1.29-.79,2.05-1.87,2.28-3.23.5-2.99.75-9.35.75-19.07,0-6.72-.34-11.03-1.02-12.92-.37-1.08-1.25-2.05-2.64-2.92-1.08-.71-1.8-1.3-2.17-1.77-.37-.47-.55-1.08-.55-1.81,0-1.13.54-2.03,1.64-2.7,1.09-.67,3.01-1.27,5.77-1.79,3.28-.66,6.6-.98,9.97-.98Z"/><path class="cls-5" d="m483.74,843.87v18.08c0,4.07.35,6.7,1.06,7.88.87,1.39,2.69,2.09,5.48,2.09,2.99,0,5.36-.66,7.09-1.97s2.94-3.36,3.62-6.15c.39-1.71,1.29-2.56,2.68-2.56s2.53.62,3.41,1.87c.88,1.25,1.32,2.87,1.32,4.87,0,3.26-1.21,6.74-3.62,10.44-.76,1.18-1.43,1.99-2.01,2.42-.58.43-1.27.65-2.09.65l-8.75-1.06h-27.54c-1.81,0-3.09-.21-3.82-.63-1.08-.6-1.62-1.51-1.62-2.72,0-.74.18-1.28.53-1.63s1.21-.86,2.58-1.52c1.5-.71,2.46-1.71,2.88-2.99.34-1.08.51-4.22.51-9.42,0-2.42-.07-5.9-.2-10.44-.13-4.36-.21-7.64-.24-9.85,0-2.1-.16-3.54-.49-4.31-.33-.77-1.02-1.33-2.07-1.67-1.73-.6-2.84-1.09-3.31-1.46-.84-.66-1.26-1.41-1.26-2.25,0-1.92,1.59-3.37,4.77-4.37,2.71-.87,6.33-1.3,10.87-1.3,5.1,0,8.9.26,11.43.79,3.26.71,4.88,2.13,4.88,4.25,0,.87-.22,1.51-.65,1.93-.43.42-1.49.98-3.17,1.69-1,.45-1.63,1.21-1.89,2.29-.26,1.08-.39,3.43-.39,7.05Z"/><path class="cls-5" d="m525.97,880.43h-2.84c-1.65,0-3.51.08-5.56.24-1.29.1-2.18.16-2.68.16-1.76,0-3.19-.41-4.29-1.22s-1.65-1.88-1.65-3.19c0-.92.24-1.63.73-2.15.49-.51,1.28-.93,2.38-1.24,1.05-.26,1.76-.69,2.13-1.28.37-.59.66-1.74.87-3.45.21-1.97.4-5.8.57-11.5s.26-11.36.26-16.98c0-2.21-.17-3.68-.51-4.41-.34-.74-1.14-1.33-2.4-1.77-1.81-.68-2.72-1.85-2.72-3.51,0-1.29.62-2.29,1.87-3.01,1.25-.72,2.99-1.08,5.22-1.08.74,0,1.6.01,2.6.04,2.21.08,3.81.12,4.81.12,3.76,0,8-.12,12.73-.35,1-.05,2.25-.08,3.74-.08,6.01,0,10.77.68,14.26,2.05,5.2,2.05,9.11,5.49,11.74,10.32,2.34,4.25,3.51,9.32,3.51,15.21,0,2.97-.43,5.94-1.3,8.92-.87,2.98-2.04,5.56-3.51,7.74-3.05,4.41-7.25,7.51-12.61,9.3-3.15,1.05-6.51,1.58-10.09,1.58l-4.77-.16-4.1-.12c-3.18-.1-5.98-.16-8.39-.16Zm8.27-42.71v30.49c0,1.65.35,2.83,1.06,3.53.71.7,1.89,1.04,3.55,1.04,7.67,0,11.5-5.83,11.5-17.49,0-6.43-.89-11.43-2.68-14.97-1.97-3.91-5.31-5.87-10.01-5.87-1.26,0-2.15.25-2.66.75-.51.5-.77,1.34-.77,2.52Z"/><path class="cls-5" d="m633.37,864.12l-4.73,10.6c-.81,1.79-1.47,2.99-1.97,3.61-.5.62-1.05.93-1.65.93s-1.09-.25-1.54-.75c-.29-.32-.95-1.47-1.99-3.47-1.04-2-1.9-3.77-2.58-5.32l-5.2-11.7c-.71-1.63-1.46-2.44-2.25-2.44-.84,0-1.3.7-1.38,2.09-.18,3.1-.28,5.96-.28,8.59s.13,4.58.39,5.55c.18.58.43,1,.73,1.26.3.26,1.12.74,2.46,1.42.87.45,1.3,1.22,1.3,2.33,0,2.94-3.77,4.41-11.31,4.41-6.36,0-9.53-1.43-9.53-4.29,0-.74.16-1.27.49-1.6.33-.33,1.18-.82,2.54-1.48.87-.39,1.45-.93,1.75-1.62.3-.68.56-2.01.77-3.98.24-2.1.46-5.55.67-10.34.21-4.79.31-8.9.31-12.31,0-4.28-.33-7.18-.98-8.71-.24-.53-.51-.92-.81-1.18-.3-.26-.87-.6-1.71-1.02-1.87-.89-2.8-2.05-2.8-3.47,0-.92.35-1.76,1.04-2.52.7-.76,1.62-1.3,2.78-1.62,1.16-.34,2.7-.64,4.63-.89,1.93-.25,3.57-.37,4.91-.37,3.36,0,5.74.28,7.13.83.68.26,1.22.62,1.62,1.06.39.45.96,1.37,1.69,2.76l8.19,15.09c.89,1.66,1.51,2.67,1.85,3.03.34.37.81.55,1.42.55.52,0,.99-.2,1.4-.59.41-.39.89-1.13,1.44-2.21l5.56-10.83c.68-1.39,1.13-2.3,1.34-2.72,1.29-2.63,2.56-4.37,3.82-5.24,1.6-1.13,4.52-1.69,8.75-1.69,7.43,0,11.15,1.69,11.15,5.08,0,.76-.14,1.37-.43,1.83-.29.46-.88,1.02-1.77,1.67-1.21.92-1.97,2.25-2.29,3.98-.6,3.62-.91,8.04-.91,13.24,0,6.7.32,12.57.95,17.61.16,1.24.4,2.08.73,2.52.33.45,1.18,1.12,2.54,2.01.95.63,1.42,1.47,1.42,2.52,0,1.84-1.22,3.14-3.66,3.9-1.26.42-2.59.7-3.98.83-1.39.13-3.53.2-6.42.2-4.44,0-7.75-.32-9.93-.95-2.42-.71-3.62-1.92-3.62-3.62,0-.63.16-1.15.47-1.56.31-.41,1.13-1.15,2.44-2.23.68-.55,1.15-1.62,1.4-3.19s.37-4.25.37-8.04c0-2.1-.1-3.48-.3-4.14-.2-.66-.61-.98-1.24-.98-.74,0-1.44.51-2.13,1.52-.68,1.01-1.71,3.03-3.07,6.05Z"/><path class="cls-5" d="m716.57,853.21l7.45,15.96c.71,1.47,1.3,2.44,1.77,2.9.47.46,1.19.77,2.17.93,1.89.29,2.84,1.25,2.84,2.88,0,1.92-1.16,3.3-3.47,4.14-2.31.84-6.09,1.26-11.35,1.26-5.94,0-10.34-.25-13.2-.75-1.31-.24-2.36-.72-3.13-1.44-.78-.72-1.16-1.6-1.16-2.62,0-.79.2-1.4.61-1.83.41-.43,1.16-.83,2.27-1.2,1.23-.42,1.85-1.13,1.85-2.13,0-1.76-1.06-2.8-3.19-3.11-2.29-.32-5.5-.47-9.65-.47-3.49,0-5.58.21-6.26.63-.42.26-.79.74-1.1,1.42-.31.68-.47,1.34-.47,1.97,0,.58.11.95.33,1.12.22.17.95.45,2.19.85,1.6.47,2.4,1.42,2.4,2.84,0,3.13-3.74,4.69-11.23,4.69-4.25,0-7.38-.29-9.38-.87-1.84-.55-2.76-1.76-2.76-3.62,0-.81.2-1.44.61-1.89.41-.45,1.14-.85,2.19-1.22,1.71-.6,3-1.45,3.88-2.54.88-1.09,2.13-3.42,3.76-6.99l5.56-12.17c2.05-4.46,3.42-7.81,4.12-10.03.7-2.22,1.06-4.39,1.08-6.52.03-2.26.16-3.83.41-4.71s.81-1.74,1.67-2.58c1.81-1.84,4.12-2.76,6.93-2.76,2.65,0,5.19,1.04,7.6,3.11,3.36,2.84,8.25,11.1,14.66,24.78Zm-27.42,4.96h7.72c1.42,0,2.13-.32,2.13-.95,0-.87-.98-2.99-2.95-6.38-.89-1.55-1.58-2.59-2.05-3.11-.47-.53-.97-.79-1.5-.79-.95,0-1.73.88-2.36,2.64-.1.24-.49,1.17-1.14,2.8-1.1,2.68-1.65,4.28-1.65,4.81,0,.66.6.99,1.81.99Z"/><path class="cls-5" d="m748.88,880.43h-2.84c-1.65,0-3.51.08-5.56.24-1.29.1-2.18.16-2.68.16-1.76,0-3.19-.41-4.29-1.22s-1.65-1.88-1.65-3.19c0-.92.24-1.63.73-2.15.49-.51,1.28-.93,2.38-1.24,1.05-.26,1.76-.69,2.13-1.28.37-.59.66-1.74.87-3.45.21-1.97.4-5.8.57-11.5s.26-11.36.26-16.98c0-2.21-.17-3.68-.51-4.41-.34-.74-1.14-1.33-2.4-1.77-1.81-.68-2.72-1.85-2.72-3.51,0-1.29.62-2.29,1.87-3.01,1.25-.72,2.99-1.08,5.22-1.08.74,0,1.6.01,2.6.04,2.21.08,3.81.12,4.81.12,3.76,0,8-.12,12.73-.35,1-.05,2.25-.08,3.74-.08,6.01,0,10.77.68,14.26,2.05,5.2,2.05,9.11,5.49,11.74,10.32,2.34,4.25,3.51,9.32,3.51,15.21,0,2.97-.43,5.94-1.3,8.92-.87,2.98-2.04,5.56-3.51,7.74-3.05,4.41-7.25,7.51-12.61,9.3-3.15,1.05-6.51,1.58-10.09,1.58l-4.77-.16-4.1-.12c-3.18-.1-5.98-.16-8.39-.16Zm8.27-42.71v30.49c0,1.65.35,2.83,1.06,3.53.71.7,1.89,1.04,3.55,1.04,7.67,0,11.5-5.83,11.5-17.49,0-6.43-.89-11.43-2.68-14.97-1.97-3.91-5.31-5.87-10.01-5.87-1.26,0-2.15.25-2.66.75-.51.5-.77,1.34-.77,2.52Z"/></g></g><g id="Layer_6"><path class="cls-4" d="m525.33,657.72s-114.73-1.61-162.01,45.67c-47.28,47.28,292.08,72.78,364.85,0,6.78-14.85-40.83-45.67-202.84-45.67Z"/></g><g id="Layer_3"><path class="cls-5" d="m562.44,590.91s-177.99,20.33-205.58-70.68c-8.39-29.69,26.95-72.13,80.04-78.26,3.71-.48,7.42-1.29,10.81-3.07,23.72-12.1,49.54-55.67,52.77-76,.65-4.36,2.1-8.39,4.2-12.26,16.14-30.66,65.19-111.34,140.23-78.75,82.46,35.99,116.51,138.29,116.51,151.69,5.65,27.43,16.78,122.96-117.15,154.11"/></g><g id="Layer_4"><path class="cls-3" d="m535.01,590.26s45.18-27.92,68.42-90.37c16.62-25.17,57.61-83.91,129.09-55.35,10.17,5.33,25.66,24.53,25.66,24.53,0,0,7.42,113.28-223.17,121.19Z"/></g><g id="Layer_2"><path class="cls-5" d="m621.34,511.52l-57.29,76.65s-17.11,108.12-38.57,120.7c0,0-4.36,29.21,52.93,29.69l-.48-18.72s2.74-2.74,6.13,0l.48,18.72,42.44,19.36-2.26-105.86-41.31-7.75v-3.39h49.7v83.59s43.25,2.74,53.09-17.75c0,0-38.24-61.97-46.96-175.25-.32,0-8.88-18.4-17.91-20.01Z"/></g><g id="Layer_5"><line class="cls-1" x1="624.09" y1="507.64" x2="624.09" y2="512.48"/><line class="cls-1" x1="632.48" y1="502.96" x2="632.48" y2="520.55"/><line class="cls-1" x1="640.22" y1="496.67" x2="640.22" y2="532.01"/><line class="cls-1" x1="648.45" y1="491.83" x2="648.45" y2="577.03"/><line class="cls-1" x1="654.91" y1="488.6" x2="654.91" y2="575.26"/><line class="cls-1" x1="662.82" y1="485.37" x2="662.82" y2="572.19"/><line class="cls-1" x1="672.34" y1="483.6" x2="672.34" y2="569.77"/><line class="cls-1" x1="679.11" y1="482.31" x2="679.11" y2="567.19"/><line class="cls-1" x1="687.34" y1="481.18" x2="687.34" y2="563.8"/><line class="cls-1" x1="695.09" y1="481.18" x2="695.09" y2="560.09"/><line class="cls-1" x1="703.48" y1="482.31" x2="703.48" y2="555.57"/><line class="cls-1" x1="712.84" y1="483.6" x2="712.84" y2="549.6"/><line class="cls-1" x1="719.46" y1="487.63" x2="719.46" y2="544.92"/><line class="cls-1" x1="728.17" y1="491.83" x2="728.17" y2="537.66"/><line class="cls-1" x1="734.95" y1="497.8" x2="734.95" y2="530.88"/><line class="cls-1" x1="739.79" y1="501.51" x2="739.79" y2="524.75"/></g></svg>