<?xml version="1.0" encoding="UTF-8"?><svg id="Layer_1" xmlns="http://www.w3.org/2000/svg" width="719.2" height="688" viewBox="0 0 719.2 688"><defs><style>.cls-1{fill:none;stroke:#fff;stroke-miterlimit:10;}.cls-2{isolation:isolate;}.cls-3{fill:#517d5b;}.cls-3,.cls-4,.cls-5{stroke-width:0px;}.cls-4{fill:#426047;}.cls-5{fill:#fff;}</style></defs><g id="Layer_11"><path class="cls-3" d="m196.9,662.6c53.4,14,165.1,18.5,185.9,12.9s132.5-25.3,172.4-14.6c39.7,10.6,135.1,29.3,164,7.2V0H0v675.4c8.1-1.5,145.1-26.4,196.9-12.8Z"/></g><g id="Layer_7"><g class="cls-2"><path class="cls-5" d="m241.13,513.66l-11.21,22.68c-.68,1.4-1.33,2.36-1.95,2.89-.62.53-1.4.79-2.34.79-.78,0-1.48-.17-2.1-.51-.47-.26-.84-.57-1.11-.92-.27-.35-.61-.98-1.01-1.89l-9.99-22c-.55-1.24-1.05-2.08-1.5-2.53-.45-.45-1.09-.74-1.92-.89-.98-.18-1.46-.78-1.46-1.81,0-1.25.85-2.22,2.56-2.89,1.71-.68,4.16-1.01,7.35-1.01s5.76.25,7.32.76c1.56.5,2.34,1.29,2.34,2.34,0,.68-.42,1.32-1.27,1.9-.65.44-.98.85-.98,1.25,0,.36.15.87.44,1.54l3.05,6.88c.44,1.01.94,1.51,1.49,1.51s1.02-.27,1.44-.81c.42-.54.99-1.59,1.71-3.17,1.29-2.83,2.03-4.5,2.25-5.02.21-.51.32-.91.32-1.18,0-.55-.38-1.03-1.15-1.42-.85-.44-1.27-1-1.27-1.68,0-1.94,2.6-2.91,7.79-2.91,2.59,0,4.41.21,5.48.62,1.07.41,1.6,1.13,1.6,2.14,0,1.21-.7,1.9-2.1,2.08-.99.11-1.64.28-1.93.49-.52.38-1.14,1.29-1.86,2.76Z"/><path class="cls-5" d="m258.1,505.58c1.86,0,3.6.16,5.25.49,2.21.44,3.32,1.38,3.32,2.81,0,.47-.11.83-.33,1.06-.22.24-.78.58-1.67,1.04-.75.38-1.24,1.2-1.48,2.47-.24,1.27-.35,3.74-.35,7.42,0,6.22.15,10.07.46,11.55.11.47.29.83.52,1.09.24.25.65.52,1.23.82,1.07.49,1.61,1.2,1.61,2.12,0,1.3-.99,2.2-2.98,2.69-2.15.52-4.78.78-7.89.78-5.31,0-7.96-1.01-7.96-3.03,0-.73.52-1.42,1.56-2.05.8-.49,1.27-1.16,1.42-2,.31-1.86.46-5.79.46-11.82,0-4.17-.21-6.84-.63-8.01-.23-.67-.77-1.27-1.64-1.81-.67-.44-1.12-.81-1.34-1.1-.23-.29-.34-.67-.34-1.12,0-.7.34-1.26,1.01-1.67.68-.41,1.87-.78,3.58-1.11,2.03-.41,4.09-.61,6.18-.61Z"/><path class="cls-5" d="m284.03,516.76v11.21c0,2.52.22,4.15.66,4.88.54.86,1.67,1.29,3.39,1.29,1.86,0,3.32-.41,4.39-1.22,1.07-.81,1.82-2.08,2.25-3.81.24-1.06.8-1.59,1.66-1.59s1.57.39,2.11,1.16c.54.77.82,1.78.82,3.02,0,2.02-.75,4.17-2.25,6.47-.47.73-.89,1.23-1.25,1.5-.36.27-.79.4-1.29.4l-5.42-.66h-17.07c-1.12,0-1.91-.13-2.37-.39-.67-.37-1-.94-1-1.68,0-.46.11-.79.33-1.01.22-.22.75-.53,1.6-.94.93-.44,1.52-1.06,1.78-1.86.21-.67.32-2.61.32-5.83,0-1.5-.04-3.65-.12-6.47-.08-2.7-.13-4.74-.15-6.1,0-1.3-.1-2.19-.31-2.67-.2-.48-.63-.83-1.28-1.04-1.07-.37-1.76-.67-2.05-.9-.52-.41-.78-.87-.78-1.39,0-1.19.98-2.09,2.95-2.71,1.68-.54,3.92-.81,6.74-.81,3.16,0,5.52.16,7.08.49,2.02.44,3.03,1.32,3.03,2.64,0,.54-.13.94-.4,1.2-.27.26-.92.61-1.97,1.05-.62.28-1.01.75-1.17,1.42-.16.67-.24,2.12-.24,4.37Z"/><path class="cls-5" d="m310.2,539.42h-1.76c-1.03,0-2.17.05-3.44.15-.8.06-1.35.1-1.66.1-1.09,0-1.98-.25-2.66-.76-.68-.5-1.03-1.16-1.03-1.98,0-.57.15-1.01.45-1.33.3-.32.79-.57,1.48-.77.65-.16,1.09-.43,1.32-.79.23-.37.41-1.08.54-2.14.13-1.22.25-3.6.35-7.13.11-3.53.16-7.04.16-10.52,0-1.37-.11-2.28-.32-2.73-.21-.46-.71-.82-1.49-1.1-1.12-.42-1.68-1.15-1.68-2.17,0-.8.39-1.42,1.16-1.87.77-.45,1.85-.67,3.23-.67.46,0,.99,0,1.61.02,1.37.05,2.36.07,2.98.07,2.33,0,4.96-.07,7.89-.22.62-.03,1.39-.05,2.32-.05,3.73,0,6.67.42,8.84,1.27,3.22,1.27,5.65,3.4,7.28,6.4,1.45,2.64,2.17,5.78,2.17,9.42,0,1.84-.27,3.68-.81,5.53-.54,1.85-1.26,3.45-2.17,4.8-1.89,2.73-4.49,4.66-7.81,5.76-1.95.65-4.04.98-6.25.98l-2.95-.1-2.54-.07c-1.97-.07-3.7-.1-5.2-.1Zm5.13-26.46v18.9c0,1.03.22,1.75.66,2.19.44.43,1.17.65,2.2.65,4.75,0,7.13-3.61,7.13-10.84,0-3.99-.55-7.08-1.66-9.28-1.22-2.42-3.29-3.64-6.2-3.64-.78,0-1.33.16-1.65.46-.32.31-.48.83-.48,1.56Z"/><path class="cls-5" d="m376.75,529.31l-2.93,6.57c-.51,1.11-.91,1.85-1.22,2.23-.31.38-.65.57-1.03.57s-.68-.15-.95-.46c-.18-.2-.59-.91-1.23-2.15-.64-1.24-1.18-2.33-1.6-3.3l-3.22-7.25c-.44-1.01-.9-1.51-1.39-1.51-.52,0-.81.43-.85,1.29-.11,1.92-.17,3.7-.17,5.32s.08,2.84.24,3.44c.11.36.26.62.45.78.19.16.7.46,1.53.88.54.28.81.76.81,1.44,0,1.82-2.34,2.73-7.01,2.73-3.94,0-5.91-.89-5.91-2.66,0-.46.1-.79.31-.99.2-.2.73-.51,1.57-.92.54-.24.9-.58,1.09-1,.19-.42.35-1.25.48-2.47.15-1.3.28-3.44.42-6.41.13-2.97.2-5.51.2-7.63,0-2.65-.2-4.45-.61-5.4-.15-.33-.31-.57-.5-.73-.19-.16-.54-.37-1.06-.63-1.16-.55-1.73-1.27-1.73-2.15,0-.57.22-1.09.65-1.56.43-.47,1-.81,1.72-1,.72-.21,1.67-.39,2.87-.55,1.2-.16,2.21-.23,3.04-.23,2.08,0,3.56.17,4.42.51.42.16.76.38,1,.66.24.28.59.85,1.05,1.71l5.08,9.35c.55,1.03.94,1.65,1.15,1.88.21.23.5.34.88.34.32,0,.61-.12.87-.37.25-.24.55-.7.89-1.37l3.44-6.71c.42-.86.7-1.42.83-1.68.8-1.63,1.59-2.71,2.37-3.25.99-.7,2.8-1.05,5.42-1.05,4.61,0,6.91,1.05,6.91,3.15,0,.47-.09.85-.27,1.13-.18.29-.55.63-1.1,1.04-.75.57-1.22,1.39-1.42,2.47-.37,2.25-.56,4.98-.56,8.2,0,4.15.2,7.79.59,10.91.1.77.25,1.29.45,1.56.2.28.73.69,1.57,1.25.59.39.88.91.88,1.56,0,1.14-.76,1.95-2.27,2.42-.78.26-1.6.43-2.47.51-.86.08-2.19.12-3.98.12-2.75,0-4.8-.2-6.15-.59-1.5-.44-2.25-1.19-2.25-2.25,0-.39.1-.71.29-.96.2-.25.7-.71,1.51-1.38.42-.34.71-1,.87-1.98.15-.98.23-2.64.23-4.98,0-1.3-.06-2.16-.18-2.56-.12-.41-.38-.61-.77-.61-.46,0-.9.31-1.32.94-.42.63-1.06,1.88-1.9,3.75Z"/><path class="cls-5" d="m428.31,522.55l4.61,9.89c.44.91.81,1.51,1.1,1.79.29.28.74.48,1.34.57,1.17.18,1.76.77,1.76,1.78,0,1.19-.72,2.04-2.15,2.56-1.43.52-3.78.78-7.03.78-3.68,0-6.4-.16-8.18-.46-.81-.15-1.46-.44-1.94-.89-.48-.45-.72-.99-.72-1.62,0-.49.13-.87.38-1.14.25-.27.72-.52,1.4-.74.76-.26,1.15-.7,1.15-1.32,0-1.09-.66-1.73-1.98-1.93-1.42-.2-3.41-.29-5.98-.29-2.16,0-3.46.13-3.88.39-.26.16-.49.46-.68.88-.2.42-.29.83-.29,1.22,0,.36.07.59.21.7.14.11.59.28,1.36.52.99.29,1.49.88,1.49,1.76,0,1.94-2.32,2.91-6.96,2.91-2.64,0-4.57-.18-5.81-.54-1.14-.34-1.71-1.09-1.71-2.25,0-.5.12-.89.38-1.17.25-.28.7-.53,1.35-.76,1.06-.37,1.86-.9,2.41-1.58.54-.67,1.32-2.12,2.33-4.33l3.44-7.54c1.27-2.77,2.12-4.84,2.55-6.21.43-1.38.65-2.72.67-4.04.02-1.4.1-2.37.26-2.92.15-.54.5-1.08,1.04-1.6,1.12-1.14,2.56-1.71,4.3-1.71,1.64,0,3.21.64,4.71,1.93,2.08,1.76,5.11,6.88,9.08,15.36Zm-16.99,3.08h4.79c.88,0,1.32-.2,1.32-.59,0-.54-.61-1.86-1.83-3.96-.55-.96-.98-1.6-1.27-1.93-.29-.33-.6-.49-.93-.49-.59,0-1.07.55-1.46,1.64-.06.15-.3.72-.71,1.73-.68,1.66-1.03,2.65-1.03,2.98,0,.41.37.61,1.12.61Z"/><path class="cls-5" d="m448.33,539.42h-1.76c-1.03,0-2.17.05-3.44.15-.8.06-1.35.1-1.66.1-1.09,0-1.98-.25-2.66-.76-.68-.5-1.03-1.16-1.03-1.98,0-.57.15-1.01.45-1.33.3-.32.79-.57,1.48-.77.65-.16,1.09-.43,1.32-.79.23-.37.41-1.08.54-2.14.13-1.22.25-3.6.35-7.13.11-3.53.16-7.04.16-10.52,0-1.37-.11-2.28-.32-2.73-.21-.46-.71-.82-1.49-1.1-1.12-.42-1.69-1.15-1.69-2.17,0-.8.39-1.42,1.16-1.87.77-.45,1.85-.67,3.23-.67.46,0,.99,0,1.61.02,1.37.05,2.36.07,2.98.07,2.33,0,4.96-.07,7.89-.22.62-.03,1.39-.05,2.32-.05,3.73,0,6.67.42,8.84,1.27,3.22,1.27,5.65,3.4,7.28,6.4,1.45,2.64,2.17,5.78,2.17,9.42,0,1.84-.27,3.68-.81,5.53-.54,1.85-1.26,3.45-2.17,4.8-1.89,2.73-4.49,4.66-7.81,5.76-1.95.65-4.04.98-6.25.98l-2.96-.1-2.54-.07c-1.97-.07-3.7-.1-5.2-.1Zm5.13-26.46v18.9c0,1.03.22,1.75.66,2.19.44.43,1.17.65,2.2.65,4.75,0,7.13-3.61,7.13-10.84,0-3.99-.55-7.08-1.66-9.28-1.22-2.42-3.29-3.64-6.2-3.64-.78,0-1.33.16-1.65.46-.32.31-.48.83-.48,1.56Z"/></g></g><g id="Layer_6"><path class="cls-4" d="m309.8,401.4s-71.1-1-100.4,28.3,181,45.1,226.1,0c4.2-9.2-25.3-28.3-125.7-28.3Z"/></g><g id="Layer_3"><path class="cls-5" d="m332.8,360s-110.3,12.6-127.4-43.8c-5.2-18.4,16.7-44.7,49.6-48.5,2.3-.3,4.6-.8,6.7-1.9,14.7-7.5,30.7-34.5,32.7-47.1.4-2.7,1.3-5.2,2.6-7.6,10-19,40.4-69,86.9-48.8,51.1,22.3,72.2,85.7,72.2,94,3.5,17,10.4,76.2-72.6,95.5"/></g><g id="Layer_4"><path class="cls-3" d="m315.8,359.6s28-17.3,42.4-56c10.3-15.6,35.7-52,80-34.3,6.3,3.3,15.9,15.2,15.9,15.2,0,0,4.6,70.2-138.3,75.1Z"/></g><g id="Layer_2"><path class="cls-5" d="m369.3,310.8l-35.5,47.5s-10.6,67-23.9,74.8c0,0-2.7,18.1,32.8,18.4l-.3-11.6s1.7-1.7,3.8,0l.3,11.6,26.3,12-1.4-65.6-25.6-4.8v-2.1h30.8v51.8s26.8,1.7,32.9-11c0,0-23.7-38.4-29.1-108.6-.2,0-5.5-11.4-11.1-12.4Z"/></g><g id="Layer_5"><line class="cls-1" x1="371" y1="308.4" x2="371" y2="311.4"/><line class="cls-1" x1="376.2" y1="305.5" x2="376.2" y2="316.4"/><line class="cls-1" x1="381" y1="301.6" x2="381" y2="323.5"/><line class="cls-1" x1="386.1" y1="298.6" x2="386.1" y2="351.4"/><line class="cls-1" x1="390.1" y1="296.6" x2="390.1" y2="350.3"/><line class="cls-1" x1="395" y1="294.6" x2="395" y2="348.4"/><line class="cls-1" x1="400.9" y1="293.5" x2="400.9" y2="346.9"/><line class="cls-1" x1="405.1" y1="292.7" x2="405.1" y2="345.3"/><line class="cls-1" x1="410.2" y1="292" x2="410.2" y2="343.2"/><line class="cls-1" x1="415" y1="292" x2="415" y2="340.9"/><line class="cls-1" x1="420.2" y1="292.7" x2="420.2" y2="338.1"/><line class="cls-1" x1="426" y1="293.5" x2="426" y2="334.4"/><line class="cls-1" x1="430.1" y1="296" x2="430.1" y2="331.5"/><line class="cls-1" x1="435.5" y1="298.6" x2="435.5" y2="327"/><line class="cls-1" x1="439.7" y1="302.3" x2="439.7" y2="322.8"/><line class="cls-1" x1="442.7" y1="304.6" x2="442.7" y2="319"/></g></svg>