<?xml version="1.0" encoding="UTF-8"?>
<svg xmlns="http://www.w3.org/2000/svg" viewBox="0 0 1000 1000">
  <defs>
    <style>
      .cls-1 {
        fill: #aa5531;
        stroke: #aa5531;
      }

      .cls-1, .cls-2 {
        stroke-miterlimit: 10;
      }

      .cls-2 {
        stroke: #ab5632;
      }

      .cls-2, .cls-3 {
        fill: #ab5632;
      }

      .cls-3 {
        stroke-width: 0px;
      }
    </style>
  </defs>
  <g id="Snefnug">
    <g>
      <rect class="cls-2" x="307.43" y="191.21" width="6.92" height="100.58" rx="3.46" ry="3.46"/>
      <rect class="cls-2" x="315.37" y="203" width="6.92" height="27.28" rx="3.46" ry="3.46" transform="translate(246.57 -161.99) rotate(45)"/>
      <rect class="cls-2" x="319.54" y="219.51" width="6.92" height="35.7" rx="3.46" ry="3.46" transform="translate(262.45 -158.88) rotate(45)"/>
      <rect class="cls-2" x="295.99" y="220.06" width="6.92" height="35.7" rx="3.46" ry="3.46" transform="translate(-80.52 281.43) rotate(-45)"/>
      <rect class="cls-2" x="300.23" y="203.85" width="6.92" height="27.28" rx="3.46" ry="3.46" transform="translate(-64.84 278.45) rotate(-45)"/>
      <g>
        <g>
          <path class="cls-3" d="M292.99,259.68c-1.33.22-2.42,1.44-2.5,2.78-.02.32.02.65.18.92s.49.46.8.4c.43-.09.65-.57.74-1,.07-.3.11-.62-.03-.89-.15-.29-.49-.46-.81-.48s-.65.07-.97.16c-.27.09-.55.18-.76.38-.31.29-.4.77-.31,1.18s.34.78.63,1.1c.37.4.83.75,1.37.81.67.08,1.32-.31,1.72-.85s.59-1.2.72-1.86c.07-.35.12-.73-.02-1.06s-.58-.56-.88-.37c.17.33.39.63.64.91.31.33.72.63,1.17.61.59-.03,1.01-.58,1.3-1.09.08-.14.15-.29.11-.44-.03-.11-.12-.2-.21-.28-.39-.33-.87-.54-1.38-.6-.09-.01-.2-.01-.26.06-.04.05-.05.13-.04.2.06.62.64,1.13,1.26,1.19s1.25-.27,1.63-.77c.08-.11.16-.24.14-.38-.02-.11-.1-.2-.18-.28-.27-.25-.61-.42-.96-.5.79,0,1.59,0,2.38.01-.55.23-1.06.54-1.53.9-.11.09-.23.19-.26.33-.03.16.07.32.19.43.43.4,1.08.39,1.66.37-.74.31-1.52.53-2.31.65,2.04-.5,4.07-1,6.11-1.51-.76-.56-1.62-.99-2.52-1.27-.28.29-.58.56-.9.8.77-.09,1.55-.05,2.3.14.2.05.45.18.42.38-.01.11-.11.19-.2.26-.51.39-1.12.65-1.76.76.67.32,1.38.55,2.11.69-.31.02-.63,0-.94-.05,1.45-.25,2.98-.05,4.32.55-.94-.45-1.8-1.07-2.52-1.81.98,1.2,1.94,2.41,2.89,3.64-.65-.03-1.27-.4-1.59-.97.65-.04,1.31.25,1.71.76.12-.17.05-.4-.03-.59-.39-.86-1.13-1.51-1.9-2.04s-1.61-.99-2.34-1.59c1.43.22,2.83.62,4.16,1.19-.54-.22-1.06-.48-1.56-.79.53.25,1.01.58,1.43.98"/>
          <path class="cls-3" d="M292.33,257.27c-2.89.61-5.21,3.97-4.03,6.86.77,1.89,3,2.73,4.77,1.64,1.43-.88,2.04-3,1.55-4.56-.62-1.94-2.68-2.57-4.5-2.16-1.71.38-3.01,1.54-3.25,3.31-.48,3.55,3.89,6.44,6.93,4.51,1.43-.91,2.21-2.52,2.46-4.14.19-1.21.08-2.49-.83-3.41-.82-.82-2.08-1.2-3.2-.83-1.53.52-2.32,2.2-1.49,3.67.67,1.19,1.7,2.32,3.08,2.65,1.67.4,3.18-.49,4.1-1.84,1.08-1.59.79-3.4-.75-4.52-1.16-.85-2.85-1.3-4.16-.53-1.8,1.04-1.48,3.56-.2,4.86,1.05,1.07,2.61,1.44,4.04,1.02s2.66-1.64,2.86-3.14c.24-1.81-1.36-3.09-2.93-3.52l-.66,4.91c.79,0,1.59,0,2.38.01l-1.26-4.66c-1.63.73-3.39,2.02-2.94,4.05s2.44,2.69,4.25,2.63l-.66-4.91c-.75.3-1.51.52-2.31.65l1.33,4.82c2.04-.5,4.07-1,6.11-1.51.96-.24,1.66-1.13,1.79-2.08.14-1.05-.36-1.89-1.19-2.49-.95-.68-2.01-1.16-3.12-1.52-.83-.27-1.83.03-2.43.64-.06.06-.73.67-.4.41-.89.69-1.47,1.65-1.15,2.82.27.98,1.33,1.94,2.41,1.84.77-.08,1.3-.08,1.84.12l-1.1-.64.16.13-.64-1.1.05.18.25-1.93c.54-.47.66-.6.36-.41-.12.07-.24.14-.36.2.33-.13-.48.08-.45.08-2.02.41-2.53,3.68-.6,4.57.88.4,1.76.75,2.71.94l.66-4.91c-.31-.06-.4-.04-.27.04v4.82c-.36.05.36-.01.44-.01.18,0,.37,0,.55,0,.29.03.37.03.22.01-.08,0,.48.1.62.14.1.03.8.26.57.16,1.24.53,2.68.37,3.42-.9.65-1.11.32-2.82-.9-3.42-.43-.21-.84-.45-1.23-.72-.37-.25.37.36-.21-.17-.19-.17-.38-.35-.57-.53-.96-.95-2.58-.96-3.54,0-1.04,1.04-.86,2.49,0,3.54s1.73,2.14,2.49,3.13l2.16-3.76c.25.03.42.04.57.27l-2.16,3.76c.31,0,.24-.02-.02-.03-.12,0-.4-.35-.03.06,1.34,1.48,3.61.58,4.18-1.1s-.59-3.38-1.76-4.44c-.55-.5-1.17-.93-1.79-1.34-.41-.27-1.17-.74-1.36-.88l-2.43,4.18c1.44.23,2.82.63,4.16,1.19l1.33-4.82c.24.1-.28-.15-.33-.18-.22-.11-.42-.24-.63-.37l-2.52,4.32c.23.11.44.23.65.36.41.25-.11-.13.27.23,1,.91,2.55.98,3.54,0,.92-.92,1-2.62,0-3.54-.59-.54-1.22-1.02-1.94-1.37-1.21-.6-2.71-.32-3.42.9s-.26,2.71.9,3.42c.69.42,1.41.73,2.15,1.05,1.21.5,2.8-.54,3.08-1.75.33-1.46-.45-2.53-1.75-3.08s-2.72-.96-4.16-1.19c-1.11-.18-2.22.12-2.82,1.15-.52.88-.46,2.35.39,3.03s1.72,1.23,2.61,1.82c.15.1.3.2.44.31-.26-.2.15.14.19.18.15.14.32.29.44.46l-.09-.1c.28.55.29.25.03-.89l4.18-1.1c-.89-.98-2.16-1.49-3.48-1.49-1.81,0-3.23,2.16-2.16,3.76.91,1.38,2.12,2.03,3.75,2.2,1.78.19,3.27-2.32,2.16-3.76s-2.16-2.78-3.28-4.15l-3.54,3.54c.89.88,1.91,1.65,3.03,2.2l2.52-4.32c-2.06-.88-4.03-1.14-6.25-.81-1.03.16-1.88,1.41-1.84,2.41s.73,2.26,1.84,2.41c.54.07,1.06.16,1.6.14,1.25-.04,2.29-.92,2.46-2.17.15-1.15-.57-2.5-1.79-2.74-.32-.06-.63-.14-.94-.23-.11-.03-.77-.3-.57-.2l-.6,4.57c1.94-.39,4.32-1.86,3.68-4.18-.59-2.14-3.23-2.46-5.11-2.27l1.26,4.66c.49-.38.97-.75,1.41-1.2l-2.43.64c.66.21,1.22.52,1.92,1.02l.6-4.57c-2.04.5-4.07,1-6.11,1.51-1.31.32-2.1,1.8-1.75,3.08.39,1.41,1.74,1.97,3.08,1.75.8-.13,1.56-.35,2.31-.65,1.17-.47,1.97-1.42,1.79-2.74-.16-1.19-1.21-2.21-2.46-2.17-.06,0-.69.05-.43.02.12-.01.47.28.03-.05l.9.9.07.17-.25,1.93c-.52.45-.59.54-.23.27.11-.07.21-.14.32-.2.26-.15.52-.28.79-.4.99-.45,1.42-1.84,1.15-2.82-.29-1.06-1.31-1.83-2.41-1.84-.79,0-1.59,0-2.38-.01-2.81-.02-3.4,4.17-.66,4.91.46.13-.25-.14-.35-.37l-.25-1.93c.07-.5.56-.74.99-.66.15.03.3.08.42.18.14.11.49.95.39.43v1.33l.04-.2-1.15,1.49.12-.06-1.26.34-.27-.05c.26.08.32.09.18.04-.1-.04-.09-.03.04.04.29.19.17.06-.38-.4l-.34-1.26v.23c.1-.42.21-.84.33-1.26-.04.11-.09.21-.15.31-.09.15-.07.13.07-.04l-.15.16c.32-.32.68-.4,1.09-.25.25-.07.45-.03.6.12.13.11.09.07-.09-.1.19.28-.27-.44-.25-.4l-1.49,3.67-.26.04-1.26-.34c-.52-.38-.74-.8-.65-1.28.02-.14,0-.08-.04.18-.06.24-.11.49-.21.73.16-.39-.23.33.02-.03l.12-.06c-.31.16-.29.18.06.06.15-.08.31-.09.46-.03.2.1.23.1.07.01-.15-.09-.13-.08.05.03l-.16-.17c.09.14.09.14,0,0-.09-.15-.09-.15,0,.01.15.46.04.83-.33,1.1-.1.27-.29.43-.55.48.07.02.68-.2.68-.2h-.64c-.85-.42-1.22-.97-1.12-1.63.03-.17.01-.14-.04.08l.1-.23c2.15,1.51,3.2,1.64,3.13.41l-.03.22c.08-.24.08-.28.01-.12-.08.16-.06.12.06-.11.14-.21.16-.25.06-.11-.11.13-.07.11.1-.08l.17-.15c-.21.17-.19.17.05.02l-.19.08c.14-.05.29-.09.43-.11,1.32-.28,2.09-1.83,1.75-3.08-.38-1.37-1.75-2.03-3.08-1.75h0Z"/>
        </g>
        <g>
          <path class="cls-3" d="M307.02,260.67c-.99-1.01-2.3-1.66-3.66-2.04s-2.78-.5-4.19-.57c-1.78-.09-3.58-.11-5.34.22s-3.47,1.03-4.79,2.24c-.29.27-.56.56-.78.89-.63.96-.72,2.27-.18,3.28s1.72,1.67,2.86,1.53c1.66-.2,2.8-1.85,4.42-2.29.48-.13.98-.15,1.48-.16.93-.03,1.86-.06,2.8-.09.52-.02,1.03-.03,1.54.04,1.83.27,3.27,1.7,4.32,3.23s1.84,3.24,3.11,4.59c.05-2.13.11-4.25.16-6.38.01-.57.03-1.15-.15-1.7-.23-.72-.77-1.3-1.3-1.85-.12,1.28-.24,2.55-.36,3.83-.07.72-.09,1.57.48,2.03"/>
          <path class="cls-3" d="M308.79,258.9c-2.98-2.9-7.19-3.33-11.15-3.39s-8.1.7-10.78,3.67c-2.85,3.15-1.65,8.71,2.85,9.46,2.03.34,3.61-.55,5.22-1.66.61-.42.86-.63,1.54-.7,1.05-.1,2.12-.08,3.17-.11,1.67-.05,2.54.47,3.53,1.78,1.31,1.74,2.2,3.72,3.68,5.34s4.22.3,4.27-1.77.11-4.12.15-6.18c.05-2.27-.62-3.87-2.18-5.51s-4.08-.26-4.27,1.77c-.23,2.47-1.12,5.64.85,7.62,2.27,2.28,5.81-1.25,3.54-3.54.42.42.19.84.23.02.02-.41.07-.82.11-1.23.09-.96.18-1.92.27-2.87l-4.27,1.77c.33.34.66.61.74,1.07.11.63-.04,1.45-.06,2.1-.04,1.66-.08,3.32-.12,4.99l4.27-1.77c-.95-1.04-1.59-2.32-2.34-3.5-.9-1.41-1.92-2.66-3.26-3.66s-2.91-1.45-4.56-1.45c-1.73,0-3.64-.06-5.34.32-1.45.32-2.49,1.29-3.72,2.02-.3.18-.31.23-.6.26.28-.03.11.05-.09-.06,0,0-.23-.17-.24-.2-.08-.3.05-.64.15-.79.37-.52.99-.88,1.54-1.18,1.15-.62,2.49-.89,3.79-.98,1.79-.12,3.68-.07,5.47.18,1.48.21,2.97.65,4.06,1.71,2.31,2.24,5.85-1.29,3.54-3.54h0Z"/>
        </g>
      </g>
      <g>
        <g>
          <path class="cls-3" d="M328.64,259.68c1.33.22,2.42,1.44,2.5,2.78.02.32-.02.65-.18.92s-.49.46-.8.4c-.43-.09-.65-.57-.74-1-.07-.3-.11-.62.03-.89.15-.29.49-.46.81-.48s.65.07.97.16c.27.09.55.18.76.38.31.29.4.77.31,1.18s-.34.78-.63,1.1c-.37.4-.83.75-1.37.81-.67.08-1.32-.31-1.72-.85s-.59-1.2-.72-1.86c-.07-.35-.12-.73.02-1.06s.58-.56.88-.37c-.17.33-.39.63-.64.91-.31.33-.72.63-1.17.61-.59-.03-1.01-.58-1.3-1.09-.08-.14-.15-.29-.11-.44.03-.11.12-.2.21-.28.39-.33.87-.54,1.38-.6.09-.01.2-.01.26.06.04.05.05.13.04.2-.06.62-.64,1.13-1.26,1.19s-1.25-.27-1.63-.77c-.08-.11-.16-.24-.14-.38.02-.11.1-.2.18-.28.27-.25.61-.42.96-.5-.79,0-1.59,0-2.38.01.55.23,1.06.54,1.53.9.11.09.23.19.26.33.03.16-.07.32-.19.43-.43.4-1.08.39-1.66.37.74.31,1.52.53,2.31.65-2.04-.5-4.07-1-6.11-1.51.76-.56,1.62-.99,2.52-1.27.28.29.58.56.9.8-.77-.09-1.55-.05-2.3.14-.2.05-.45.18-.42.38.01.11.11.19.2.26.51.39,1.12.65,1.76.76-.67.32-1.38.55-2.11.69.31.02.63,0,.94-.05-1.45-.25-2.98-.05-4.32.55.94-.45,1.8-1.07,2.52-1.81-.98,1.2-1.94,2.41-2.89,3.64.65-.03,1.27-.4,1.59-.97-.65-.04-1.31.25-1.71.76-.12-.17-.05-.4.03-.59.39-.86,1.13-1.51,1.9-2.04s1.61-.99,2.34-1.59c-1.43.22-2.83.62-4.16,1.19.54-.22,1.06-.48,1.56-.79-.53.25-1.01.58-1.43.98"/>
          <path class="cls-3" d="M327.98,262.09c.11.02.22.04.33.08.17.05.14.04-.08-.04.21.14.25.15.12.05-.13-.11-.1-.09.09.09l.16.16c-.16-.22-.16-.2,0,.04.14.44.03-.17.04.12.04.18.04.14,0-.11-.07.71.45.68,1.57-.08.91-.72,1.47-.75,1.67-.09l-.05-.19c.1.4-.08.72-.54.97-.19.68-.59.93-1.21.77.07.05.59.19.68.2l-.21-.07c-.6-.37-.82-.87-.67-1.51l.07-.12c-.15.23-.18.29-.1.17.08-.11.04-.07-.13.12l.14-.09c-.26.15-.26.16-.02.05l.19-.04c.57.2.72.23.44.08-.15-.09-.14-.09.01,0,.27.38-.17-.43.02.03-.1-.23-.14-.49-.21-.73l-.05-.25c.1.5-.11.95-.64,1.35l-1.26.34-.26-.04-1.49-3.67s-.39.61-.25.4l-.16.16c.17-.19.39-.24.67-.17.31-.14.58-.11.81.1.32.22.36.22.12,0l.12.13c-.08-.13-.15-.27-.21-.41l.34,1.26v-.23c-.13.42-.24.84-.35,1.26l-.49.47c.24-.13.29-.17.15-.11-.11.04-.09.04.06,0,.21-.05.16-.05-.15.01l-1.26-.34.12.06-1.15-1.49.04.2v-1.33c-.1.52.21-.27.3-.37.13-.13.33-.21.51-.24.44-.08.91.12.99.66l-.25,1.93c-.1.23-.81.5-.35.37,2.71-.74,2.18-4.93-.66-4.91-.79,0-1.59,0-2.38.01-1.06,0-2.17.77-2.41,1.84-.23,1,.12,2.36,1.15,2.82.27.12.54.25.79.4.11.06.22.13.32.2.37.27.29.18-.23-.27l-.25-1.93.07-.17.9-.9c-.34.25-.08-.02.03.05.12-.02.11-.03-.05-.02-.13,0-.25,0-.38,0-1.24-.04-2.3.98-2.46,2.17-.18,1.32.62,2.27,1.79,2.74.75.3,1.51.52,2.31.65,1.28.21,2.75-.34,3.08-1.75.29-1.29-.39-2.74-1.75-3.08-2.04-.5-4.07-1-6.11-1.51l.6,4.57c.69-.49,1.29-.81,1.92-1.02l-2.43-.64c.43.45.91.81,1.41,1.2l1.26-4.66c-1.88-.19-4.52.12-5.11,2.27-.64,2.32,1.74,3.79,3.68,4.18l-.6-4.57c.21-.09-.46.17-.57.2-.31.1-.63.17-.94.23-1.22.24-1.94,1.6-1.79,2.74.17,1.24,1.2,2.13,2.46,2.17.54.02,1.06-.06,1.6-.14,1.03-.14,1.88-1.42,1.84-2.41s-.73-2.24-1.84-2.41c-2.22-.33-4.19-.08-6.25.81l2.52,4.32c1.12-.56,2.14-1.32,3.03-2.2l-3.54-3.54c-1.11,1.37-2.2,2.75-3.28,4.15s.38,3.95,2.16,3.76c1.62-.18,2.83-.83,3.75-2.2,1.07-1.6-.35-3.77-2.16-3.76-1.32,0-2.59.51-3.48,1.49l4.18,1.1c-.26,1.1-.28,1.43-.04.99.08-.12.09-.14.02-.06-.16.14.26-.29.31-.33s.49-.43.34-.31c-.13.11.41-.28.4-.27.89-.59,1.77-1.15,2.61-1.82s.91-2.15.39-3.03c-.6-1.03-1.72-1.33-2.82-1.15-1.44.23-2.82.63-4.16,1.19-1.24.52-2.14,1.65-1.75,3.08.32,1.18,1.82,2.27,3.08,1.75.75-.31,1.46-.62,2.15-1.05,1.15-.7,1.59-2.24.9-3.42s-2.21-1.5-3.42-.9c-.71.35-1.35.84-1.94,1.37-1,.91-.93,2.61,0,3.54.99.99,2.54.91,3.54,0,.5-.46-.31.13.27-.23.21-.13.43-.25.65-.36l-2.52-4.32c-.21.13-.42.25-.63.37-.05.02-.49.24-.33.18l1.33,4.82c1.34-.56,2.72-.96,4.16-1.19l-2.43-4.18c-.19.15-.94.61-1.36.88-.62.4-1.24.84-1.79,1.34-1.18,1.06-2.32,2.8-1.76,4.44s2.84,2.58,4.18,1.1c.2-.22.19-.12-.03-.06-.12.03-.54.03-.02.03l-2.16-3.76c.15-.23.32-.25.57-.27l2.16,3.76c.77-1,1.66-2.11,2.49-3.13s1.02-2.51,0-3.54c-.96-.96-2.58-.96-3.54,0-.19.18-.37.36-.57.53l-.2.17c.13-.1.12-.1-.01,0-.4.27-.81.51-1.23.72-1.21.6-1.55,2.31-.9,3.42.75,1.28,2.17,1.43,3.42.9-.29.12.38-.11.44-.12.17-.05.78-.17.75-.17-.08,0,.49-.02.63-.02.1,0,.89.06.57.01v-4.82c.13-.08.04-.1-.27-.04l.66,4.91c.95-.19,1.83-.53,2.71-.94,1.93-.89,1.43-4.16-.6-4.57.02,0-.73-.18-.45-.08l-.25-.13c-.41-.28-.34-.16.24.34l.25,1.93.05-.18-.64,1.1.16-.13-1.1.64c.55-.2,1.08-.2,1.84-.12,1.04.1,2.19-.85,2.41-1.84.27-1.18-.23-2.11-1.15-2.82.34.26-.33-.35-.4-.41-.6-.62-1.6-.91-2.43-.64-1.11.36-2.17.84-3.12,1.52-.84.6-1.34,1.43-1.19,2.49.13.95.83,1.84,1.79,2.08,2.04.5,4.07,1,6.11,1.51l1.33-4.82c-.8-.13-1.56-.35-2.31-.65l-.66,4.91c1.82.06,3.82-.66,4.25-2.63s-1.31-3.32-2.94-4.05l-1.26,4.66c.79,0,1.59,0,2.38-.01l-.66-4.91c-1.5.41-2.9,1.53-2.98,3.19s1.46,3.04,2.91,3.47,3.01.04,4.04-1.02c1.29-1.33,1.57-3.78-.2-4.86-1.3-.79-3.01-.3-4.16.53-1.55,1.12-1.84,2.94-.75,4.52.88,1.28,2.18,2.1,3.77,1.89s2.68-1.4,3.41-2.69c.83-1.47.04-3.16-1.49-3.67-2.16-.73-4.15,1.19-4.14,3.3,0,1.5.62,3.15,1.6,4.26,1.11,1.25,2.92,1.8,4.52,1.27s2.94-1.97,3.3-3.54c.42-1.81-.4-3.62-2.11-4.36-1.52-.66-3.47-.83-4.74.46s-1.25,3.21-.4,4.69c1.05,1.83,3.59,2.28,5.12.75,2.75-2.75-.02-7.38-3.26-8.06-1.28-.27-2.76.38-3.08,1.75-.29,1.25.38,2.79,1.75,3.08h0Z"/>
        </g>
        <g>
          <path class="cls-3" d="M314.61,260.67c.99-1.01,2.3-1.66,3.66-2.04s2.78-.5,4.19-.57c1.78-.09,3.58-.11,5.34.22s3.47,1.03,4.79,2.24c.29.27.56.56.78.89.63.96.72,2.27.18,3.28s-1.72,1.67-2.86,1.53c-1.66-.2-2.8-1.85-4.42-2.29-.48-.13-.98-.15-1.48-.16-.93-.03-1.86-.06-2.8-.09-.52-.02-1.03-.03-1.54.04-1.83.27-3.27,1.7-4.32,3.23s-1.84,3.24-3.11,4.59c-.05-2.13-.11-4.25-.16-6.38-.01-.57-.03-1.15.15-1.7.23-.72.77-1.3,1.3-1.85.12,1.28.24,2.55.36,3.83.07.72.09,1.57-.48,2.03"/>
          <path class="cls-3" d="M316.38,262.44c2.06-2,5.51-1.94,8.19-1.93,1.48,0,2.95.14,4.35.67.84.32,2.18,1.03,2.44,1.76.11.3.11.5-.12.74.13-.13-.45.06-.22.07-.2,0-.75-.37-1.17-.66-.58-.4-1.13-.82-1.76-1.12-1.66-.79-3.49-.71-5.29-.78s-3.43,0-5.04.83-2.79,2.21-3.78,3.66c-.93,1.35-1.62,2.86-2.72,4.08l4.27,1.77c-.04-1.66-.08-3.32-.12-4.99-.02-.63-.17-1.48-.05-2.09.09-.47.38-.71.73-1.08l-4.27-1.77c.09.96.18,1.92.27,2.87.04.41.09.82.11,1.23.04.82-.19.41.23-.02-2.27,2.28,1.26,5.82,3.54,3.54,1.97-1.98,1.09-5.16.85-7.62-.1-1.01-.55-1.89-1.54-2.28-.91-.36-2.03-.22-2.73.52-1.56,1.64-2.23,3.24-2.18,5.51.05,2.06.1,4.12.15,6.18s2.76,3.43,4.27,1.77c1.29-1.42,2.19-3.06,3.22-4.66.68-1.05,1.61-2.27,2.81-2.46.82-.13,1.75.01,2.58.04.76.03,1.85-.07,2.46.21,1.38.62,2.49,1.9,4.17,2.21,4.6.84,7.8-4.25,5.66-8.21-1.89-3.5-6.5-4.72-10.16-4.89-4.35-.21-9.4.18-12.68,3.37-2.31,2.25,1.23,5.78,3.54,3.54h0Z"/>
        </g>
      </g>
    </g>
    <g>
      <rect class="cls-2" x="339.64" y="233.74" width="6.92" height="23.6" rx="3.46" ry="3.46" transform="translate(476.83 -154.61) rotate(72.89)"/>
      <rect class="cls-2" x="349.45" y="239.77" width="6.92" height="22.67" rx="3.39" ry="3.39" transform="translate(752.41 418.45) rotate(167.3)"/>
    </g>
    <g>
      <rect class="cls-2" x="383.16" y="296.08" width="6.92" height="23.6" rx="3.46" ry="3.46" transform="translate(874.91 231.44) rotate(132.57)"/>
      <rect class="cls-2" x="383.32" y="307.83" width="6.92" height="22.67" rx="3.39" ry="3.39" transform="translate(417.33 819.69) rotate(-133.02)"/>
    </g>
    <g>
      <rect class="cls-2" x="274.33" y="234.23" width="6.92" height="23.6" rx="3.46" ry="3.46" transform="translate(594.67 52.91) rotate(107.11)"/>
      <rect class="cls-2" x="264.51" y="240.26" width="6.92" height="22.67" rx="3.39" ry="3.39" transform="translate(61.88 -52.77) rotate(12.7)"/>
    </g>
    <g>
      <rect class="cls-2" x="230.81" y="296.57" width="6.92" height="23.6" rx="3.46" ry="3.46" transform="translate(302.87 -72.77) rotate(47.43)"/>
      <rect class="cls-2" x="230.65" y="308.32" width="6.92" height="22.67" rx="3.39" ry="3.39" transform="translate(-159.31 272.73) rotate(-46.98)"/>
    </g>
    <g>
      <rect class="cls-2" x="350.5" y="364.03" width="6.92" height="23.6" rx="3.46" ry="3.46" transform="translate(610.18 824.02) rotate(-166.47)"/>
      <rect class="cls-2" x="340.71" y="370.11" width="6.92" height="22.67" rx="3.39" ry="3.39" transform="translate(-124.72 591.42) rotate(-72.06)"/>
    </g>
    <g>
      <rect class="cls-2" x="274.68" y="369.71" width="6.92" height="23.6" rx="3.46" ry="3.46" transform="translate(-6.76 757.99) rotate(-106.79)"/>
      <rect class="cls-2" x="264.89" y="364.56" width="6.92" height="22.67" rx="3.39" ry="3.39" transform="translate(-74.36 66.29) rotate(-12.38)"/>
    </g>
    <g>
      <rect class="cls-2" x="368.75" y="227.45" width="6.92" height="100.58" rx="3.46" ry="3.46" transform="translate(427.22 -183.41) rotate(60.07)"/>
      <rect class="cls-2" x="394.25" y="258.57" width="6.92" height="27.28" rx="3.46" ry="3.46" transform="translate(763.98 -41.04) rotate(105.07)"/>
      <rect class="cls-2" x="378.37" y="268.32" width="6.92" height="35.7" rx="3.46" ry="3.46" transform="translate(757.46 -8.11) rotate(105.07)"/>
      <rect class="cls-2" x="366.15" y="248.18" width="6.92" height="35.7" rx="3.46" ry="3.46" transform="translate(81.89 -86.96) rotate(15.07)"/>
      <rect class="cls-2" x="385.96" y="245.88" width="6.92" height="27.28" rx="3.46" ry="3.46" transform="translate(80.88 -92.34) rotate(15.07)"/>
      <g>
        <g>
          <path class="cls-3" d="M347.52,271.29c-.86-1.04-2.46-1.38-3.66-.78-.28.14-.55.34-.7.62s-.15.65.05.89c.29.33.82.27,1.24.14.29-.09.59-.21.76-.47.18-.28.15-.65.01-.95s-.38-.53-.63-.76c-.21-.19-.43-.39-.71-.47-.41-.12-.87.04-1.18.32s-.51.69-.64,1.09c-.17.52-.24,1.1-.02,1.6.27.62.93.99,1.59,1.07s1.33-.09,1.97-.3c.34-.12.7-.26.91-.55s.19-.78-.12-.95c-.2.31-.36.65-.47,1.01-.14.43-.19.94.06,1.32.32.5,1,.59,1.6.58.16,0,.33-.02.44-.12.08-.08.12-.2.14-.32.09-.5.03-1.03-.17-1.49-.04-.09-.09-.18-.18-.19-.07-.01-.13.03-.19.06-.51.36-.66,1.12-.41,1.69s.86.95,1.48,1.03c.14.02.29.02.39-.07.09-.07.13-.19.15-.3.08-.36.06-.73-.05-1.08.39.69.78,1.38,1.18,2.07-.48-.36-1-.65-1.55-.88-.13-.05-.28-.1-.41-.06-.15.05-.24.22-.28.37-.13.57.2,1.13.51,1.62-.64-.49-1.22-1.05-1.72-1.68,1.45,1.51,2.9,3.03,4.35,4.54.11-.94.05-1.9-.16-2.82-.39-.09-.78-.22-1.15-.38.46.62.82,1.32,1.03,2.06.06.2.07.48-.12.56-.1.04-.22,0-.32-.04-.59-.25-1.12-.65-1.53-1.15.06.74.21,1.47.46,2.17-.18-.26-.32-.54-.43-.84.94,1.14,1.53,2.56,1.68,4.02-.08-1.04.03-2.09.31-3.09-.55,1.45-1.12,2.89-1.71,4.32-.3-.57-.28-1.3.04-1.86.36.54.43,1.26.19,1.86.21.02.38-.15.5-.32.55-.77.74-1.73.82-2.67s.05-1.89.21-2.82c.52,1.35.88,2.76,1.04,4.19-.08-.58-.11-1.16-.09-1.75.05.58,0,1.16-.14,1.73"/>
          <path class="cls-3" d="M349.29,269.52c-1.95-2.19-6.05-2.57-7.96-.1-1.23,1.59-.93,3.86.84,4.92,1.43.86,3.74.38,4.81-.87,1.35-1.58.93-3.66-.43-5.07-1.28-1.32-3.06-1.81-4.74-.95-1.43.74-2.13,2.33-2.33,3.85-.23,1.73.62,3.41,2.16,4.24,1.74.94,3.83.62,5.55-.19,1.92-.9,2.81-3.82.99-5.31-1.24-1.02-3.03-.98-3.93.51-.7,1.16-1.16,2.6-.79,3.94.41,1.49,1.71,2.44,3.2,2.64,1.66.22,3.54-.33,3.92-2.2.31-1.5.06-3.58-1.39-4.44-1.79-1.06-3.73.19-4.36,1.96-.5,1.4-.12,2.9.84,4s2.54,1.64,3.9,1.32c2.06-.48,2.47-2.78,2.03-4.53l-4.57,1.93c.39.69.78,1.38,1.18,2.07l3.42-3.42c-1.42-1.02-3.3-1.87-4.87-.66-1.68,1.3-1.26,3.56-.28,5.13l3.93-3.03c-.64-.5-1.2-1.05-1.72-1.68l-3.54,3.54c1.45,1.51,2.9,3.03,4.35,4.54.69.73,1.83.9,2.73.52.97-.41,1.44-1.26,1.54-2.28.11-1.17,0-2.33-.25-3.48-.18-.82-.94-1.54-1.75-1.75-.39-.1-.77-.22-1.15-.38-.91-.37-2.09.19-2.63.9s-.78,1.97-.2,2.78c.23.32.43.64.61.99.19.37-.09-.28.05.11.03.08.06.16.08.24.11.4.12.15.03-.74l.64-1.1-.11.09,1.77-.73c.78.27.94.3.51.09-.22-.15-.27-.18-.15-.08.12.1.08.07-.12-.11-.12-.11-.23-.23-.33-.35-1.37-1.57-4.46-.37-4.27,1.77.09.97.24,1.91.55,2.83l4.57-1.93s-.35-.68-.17-.24l-4.18,2.43c-.25-.32.26.42.31.5.08.14.16.29.23.43.11.25.14.3.07.15-.06-.15-.05-.09.05.16.05.16.1.31.14.47.03.1.19,1.03.13.54.15,1.29,1.04,2.57,2.5,2.5,1.29-.06,2.58-1.1,2.5-2.5-.06-1.02,0-1.6.22-2.43.34-1.26-.42-2.77-1.75-3.08-1.43-.32-2.58.43-3.08,1.75-.55,1.45-1.12,2.89-1.71,4.32l4.57-.6c.11.25.18.4.04.66h-4.32c-.2-.35.09.24,0-.02-.05-.14.09-.53-.07-.04-.63,1.94,1.32,3.42,3.08,3.08,1.67-.33,2.6-2.2,2.92-3.72.16-.74.23-1.5.27-2.25.02-.28.02-.57.04-.85,0-.19.02-.38.03-.56.03-.32.04-.37.01-.18h-4.82c.24.63.45,1.28.62,1.93.08.31.15.61.21.92.04.18.07.35.1.53.05.31.06.36.02.14h5c-.08-.58-.1-1.16-.09-1.75h-5c.01.24.03.48,0,.72-.03.48.12-.48-.06.34-.28,1.27.38,2.76,1.75,3.08,1.26.29,2.78-.38,3.08-1.75.17-.79.27-1.59.23-2.39-.07-1.3-1.1-2.56-2.5-2.5s-2.46,1.1-2.5,2.5c-.02.59.01,1.16.09,1.75.17,1.29,1.03,2.57,2.5,2.5,1.21-.05,2.67-1.11,2.5-2.5-.21-1.67-.53-3.28-1.13-4.86-.38-1-1.25-1.89-2.41-1.84-1.01.05-2.24.73-2.41,1.84s-.21,2.12-.28,3.2c-.01.18-.02.36-.05.54.05-.39-.04.16-.06.23-.05.21-.1.42-.18.62l.05-.13c-.32.5-.08.37.73-.39l3.08,3.08c.41-1.28.21-2.64-.45-3.79-.89-1.55-3.47-1.7-4.32,0-.75,1.5-.71,2.87-.04,4.38.39.9,1.61,1.31,2.49,1.19,1.06-.14,1.69-.84,2.08-1.79.59-1.43,1.16-2.87,1.71-4.32l-4.82-1.33c-.33,1.22-.48,2.5-.4,3.76h5c-.26-2.21-1.02-4.05-2.41-5.79-.66-.82-2.18-.94-3.03-.39s-1.56,1.78-1.15,2.82c.2.5.39.98.68,1.44.67,1.06,1.96,1.51,3.12,1.02,1.09-.46,1.85-1.76,1.45-2.95-.1-.31-.2-.62-.27-.93-.03-.14-.06-.27-.08-.41.02.21.02.15-.01-.16l-4.27,1.77c1.29,1.48,3.83,2.85,5.5,1.09,1.52-1.6.47-4.04-.63-5.56l-2.82,3.67c.38.16.75.28,1.15.38l-1.75-1.75c.04.18.08.37.11.56-.04-.31,0,.24,0,.32.02.43,0,.85-.05,1.27l4.27-1.77c-1.45-1.51-2.9-3.03-4.35-4.54-.91-.95-2.64-.98-3.54,0-.99,1.08-.89,2.45,0,3.54.51.63,1.08,1.18,1.72,1.68.99.78,2.22,1.02,3.28.2.95-.74,1.31-2.16.64-3.23l-.13-.21c-.13-.25-.16-.3-.1-.15.03.05.04.1.03.16.03.28-.03.56-.16.82l-.9.9.13-.09-1.26.34c-.68-.24-.81-.26-.38-.07.11.06.23.12.34.18.26.15.5.31.75.49.86.62,2.33.37,3.03-.39.76-.83.96-2.03.39-3.03-.39-.69-.78-1.38-1.18-2.07-.62-1.08-2-1.5-3.12-1.02s-1.75,1.73-1.45,2.95c-.03-.11.13-.52.15-.55l1.49-1.15.73.03c-.24-.07-.27-.08-.09-.02.17.14.29.13.41.36.07.13.12.32.12.47.02.21-.05.39-.19.54-.23.32-.23.37-.01.15l-1.1.64.19-.06-1.93-.25.11.07-.9-.9-.09-.24c.07.27.08.33.05.16-.02-.12-.02-.11-.02.05-.02.36.04.17.17-.57l.9-.9-.2.1,1.26-.34c-.06,0-.59-.04-.64.01.36-.35.88.74.92.81.2.21.27.45.19.7.02-.11.06-.22.1-.33.06-.17.05-.14-.04.08.07-.13.14-.26.22-.39l-3.93.51c1.01-2.3,1.05-3.16.13-2.59l.19-.09c-.19.07-.75.23-.78.23.14-.01.06-.01-.24,0,.19.04.21.04.05,0-.17-.05-.15-.04.08.04.09.05.15.13.2.22.05.07.21.72.11.67-.04-.02.17-.62.18-.66l-.07.21c.15-.24.15-.24,0,0-.47.32-1.4.66-1.81,0,.04.07.45.47.51.5-.43-.43-.41-.9.07-1.4-.02-.51.16-.83.54-.96-.23.05-.25.06-.05.03.97-.17,1.55.56,1.76,2.19-.73.77-.85,1.01-.38.7l-.21.09c.29-.07.27-.08-.04-.04h.21c.29,0,.28-.01-.03-.05l.21.04c.27.09.27.08,0-.04.1.04.19.09.28.15.15.1.12.07-.08-.08.11.09.2.2.29.3.87.98,2.66.96,3.54,0,.96-1.04.93-2.49,0-3.54h0Z"/>
        </g>
        <g>
          <path class="cls-3" d="M353.67,283.95c.38-1.36.29-2.82-.06-4.19s-.96-2.66-1.6-3.92c-.81-1.59-1.69-3.16-2.85-4.52s-2.63-2.49-4.33-3.03c-.38-.12-.77-.21-1.16-.23-1.15-.06-2.32.5-2.93,1.48s-.59,2.32.1,3.24c1.01,1.34,3.01,1.5,4.19,2.69.35.35.62.78.88,1.2.49.79.98,1.58,1.48,2.38.27.44.55.88.73,1.36.68,1.72.16,3.69-.65,5.36-.8,1.67-1.89,3.21-2.42,4.99,1.87-1.02,3.74-2.03,5.61-3.05.5-.27,1.01-.55,1.4-.98.51-.56.74-1.32.95-2.05-1.17.53-2.33,1.06-3.5,1.6-.66.3-1.41.71-1.52,1.43"/>
          <path class="cls-3" d="M356.08,284.61c1.04-4.23-.82-8.29-2.91-11.89-1.84-3.16-4.67-6.34-8.44-7.03-4.01-.74-7.91,2.76-6.72,6.92.54,1.88,2.05,3.01,3.74,3.79.51.24,1.2.5,1.56.86.58.58.96,1.49,1.4,2.19s1.11,1.49,1.22,2.34c.1.78-.15,1.6-.43,2.31-.82,2.06-2.15,3.84-2.84,5.97s1.84,3.82,3.67,2.82,3.75-2.01,5.61-3.05,2.88-2.45,3.5-4.52c.68-2.27-1.8-3.68-3.67-2.82-2.28,1.04-5.39,1.83-6.17,4.52-.9,3.1,3.93,4.42,4.82,1.33-.18.63-.33.26.08.2s.89-.41,1.26-.58c.84-.38,1.69-.77,2.53-1.15l-3.67-2.82c-.14.47-.2.86-.55,1.18-.45.4-1.23.66-1.77.96-1.5.81-2.99,1.62-4.49,2.44l3.67,2.82c.65-2,1.95-3.72,2.72-5.67s1.05-4.07.34-6-1.93-3.7-3.09-5.26c-.59-.79-1.3-1.42-2.16-1.9-.71-.4-1.64-.61-2.27-1.14-.19-.16-.39-.3-.13-.67-.04.07.49-.21.48-.21,1.38-.19,2.97,1.35,3.8,2.27,1.23,1.35,2.08,3.04,2.89,4.66.89,1.79,1.71,3.79,1.22,5.8-.77,3.12,4.05,4.46,4.82,1.33h0Z"/>
        </g>
      </g>
      <g>
        <g>
          <path class="cls-3" d="M365.31,302.19c.47,1.26-.04,2.82-1.17,3.55-.26.17-.57.31-.89.3s-.64-.19-.74-.49c-.14-.42.18-.85.5-1.15.22-.21.48-.41.78-.42.33-.02.64.19.82.47s.27.6.34.92c.06.28.12.57.05.85-.1.42-.47.73-.87.86s-.85.09-1.27,0c-.53-.12-1.07-.35-1.39-.78-.4-.54-.39-1.3-.13-1.92s.75-1.11,1.25-1.55c.27-.24.57-.47.93-.51s.77.22.76.58c-.37.02-.74-.02-1.1-.1-.44-.1-.91-.31-1.11-.71-.27-.53,0-1.16.3-1.67.08-.13.18-.27.33-.32.11-.03.23,0,.34.04.48.17.9.49,1.2.9.06.07.11.17.08.26-.02.06-.09.1-.15.13-.57.26-1.3.01-1.66-.5s-.39-1.22-.15-1.79c.05-.13.13-.26.26-.3.11-.04.22-.02.33.02.35.11.67.31.91.59-.4-.69-.8-1.37-1.2-2.06.07.59.06,1.19-.02,1.78-.02.14-.05.29-.16.39-.12.11-.31.1-.46.05-.56-.17-.88-.74-1.14-1.25.1.8.3,1.58.59,2.33-.58-2.01-1.16-4.03-1.74-6.04.87.38,1.67.91,2.36,1.55-.12.39-.2.78-.25,1.18-.3-.71-.73-1.37-1.27-1.93-.15-.15-.38-.3-.54-.18-.09.07-.11.19-.13.3-.08.64,0,1.3.22,1.9-.61-.42-1.17-.92-1.65-1.49.14.28.31.55.51.79-.51-1.38-1.44-2.61-2.64-3.47.86.59,1.82,1.02,2.83,1.28-1.53-.25-3.06-.48-4.59-.69.35.55.98.9,1.63.9-.29-.58-.87-1.01-1.51-1.1.09-.19.32-.25.53-.27.94-.09,1.87.22,2.72.63s1.66.9,2.54,1.23c-.9-1.13-1.95-2.14-3.1-3.01.46.36.95.68,1.47.95-.48-.33-1.01-.59-1.56-.75"/>
          <path class="cls-3" d="M362.9,302.85c.04.13.07.26.11.39-.16-.44-.06-.17-.03.03.04.29.12-.34.01-.07-.05.13-.22.53.02.07-.06.12-.14.23-.2.35.07-.16.2-.27.02-.03-.26.33.2-.05-.06.05-.26.13-.12.14.43,0,.75-.21,1.31.13,1.69,1.02v1.33c.07-.5-.22.21-.27.33.19-.17.22-.21.09-.11-.27.23-.62.21-1.03-.06-.57.19-.94.07-1.11-.36-.15-.3-.19-.34-.12-.13,0,.08.2.51.14.57v-.69c.12-.19.22-.38.33-.57l.55-.32c.21,0,.22,0,.04,0-.15,0-.17,0-.05,0,.11.01.1,0-.02-.02-.17-.05-.47-.24-.08,0-.25-.15-.1-.11.02.03.09.1.2.21.24.35.04.13-.04.55.04.33.1-.31-.21.23,0-.02.12-.14.3-.38.07-.12.1-.11.2-.22.31-.32l.16-.15c.2-.17.23-.2.09-.09-.05.05-.12.08-.19.09-.82.25-1.56-.15-2.22-1.18l2.41-3.16s-.79-.02-.44-.01c-.23-.07-.25-.07-.08,0,.12.04.22.12.3.23l.33.6c-.06.75-.03.91.08.47l-.06.18c.26-.42.11-.29-.46.39l-1.26.34c-.15,0-.29-.03-.42-.08-.17-.07-.14-.04.08.08l-.17-.12c.21.23.2.21-.03-.06l-.34-1.26v.13c.25-.59.49-1.18.74-1.77l-.15.13,1.1-.64c-.55.19.33-.03.63.12.16.08.32.2.42.36.09.15.12.29.14.46-.06.28-.07.33-.03.15.09-.32,0-.15-.29.5l-1.77.73c-.19-.02-.36-.07-.53-.15-.2-.19-.2-.18,0,.02,2,2,5.37-.56,3.93-3.03-.4-.69-.8-1.37-1.2-2.06-.54-.92-1.78-1.49-2.82-1.15-.98.32-1.95,1.3-1.84,2.41.03.3.05.59.05.89,0,.13,0,.25-.01.38-.05.46,0,.34.13-.37l.9-.9-.14.07,1.26-.34c.36.04.68.18.96.43-.16-.17-.18-.18-.06-.04.2.28-.18-.36-.21-.42-.58-1.1-2.03-1.48-3.12-1.02-1.24.52-1.62,1.69-1.45,2.95.11.8.31,1.57.59,2.33.46,1.22,1.71,2.19,3.08,1.75,1.28-.41,2.13-1.73,1.75-3.08-.58-2.01-1.16-4.03-1.74-6.04l-3.67,2.82c.39.18.77.37,1.14.61.14.09.29.19.43.29-.3-.22.29.27.29.27l-.64-2.43c-.11.39-.19.78-.25,1.18l4.57-.6c-.74-1.67-2.35-3.84-4.45-3.29-2.36.61-2.49,3.39-1.83,5.32l3.67-2.82c-.24-.17-.27-.19-.09-.05-.13-.1-.25-.21-.37-.33-.24-.22-.47-.47-.68-.71-.82-.94-2.36-.91-3.28-.2-1.01.78-1.23,2.11-.64,3.23.25.47.57.88.9,1.29.65.83,2.18.94,3.03.39s1.56-1.77,1.15-2.82c-.8-2.06-2.02-3.65-3.79-4.97l-2.52,4.32c1.04.69,2.22,1.21,3.43,1.53l1.33-4.82c-1.53-.25-3.06-.48-4.59-.69-1.03-.14-1.95.01-2.63.9-.57.73-.77,1.97-.2,2.78.95,1.32,2.16,2.04,3.79,2.13,1.94.11,3.05-2.19,2.16-3.76-.64-1.12-1.73-1.98-3.01-2.25l1.49,3.67.09-.12-.9.9c-.14.08-.29.13-.44.15-.21.03-.17.04.13.03-.35-.08.08.02.22.05.21.05.41.12.62.19-.36-.13.34.16.35.16.97.48,1.9.98,2.91,1.37s2.35-.25,2.82-1.15c.56-1.06.34-2.13-.39-3.03-1.06-1.3-2.28-2.39-3.61-3.4-1.04-.8-2.84-.2-3.42.9-.7,1.33-.21,2.56.9,3.42.47.36.95.67,1.47.95,1.15.62,2.78.32,3.42-.9s.27-2.65-.9-3.42c-.66-.44-1.4-.76-2.16-1-1.25-.4-2.78.46-3.08,1.75-.31,1.36.41,2.65,1.75,3.08.69.22-.31-.22.33.11.22.12.43.25.64.38l2.52-4.32c-.52-.28-1-.59-1.47-.95l-2.52,4.32c-.17-.13-.14-.1.1.08.13.11.26.22.39.33.26.22.51.45.75.69.49.48.94.99,1.37,1.51l2.43-4.18c.2.09.16.08-.11-.05-.15-.07-.31-.15-.46-.23-.31-.16-.61-.32-.91-.48-.69-.35-1.4-.68-2.14-.91s-1.54-.34-2.31-.29c-1.19.08-1.96.56-2.69,1.51-.96,1.25.05,3.37,1.49,3.67.24.07.28.07.11,0-.16-.08-.13-.06.09.06-.09-.1-.43-.54-.18-.1l2.16-3.76.24.04c-.24-.07-.28-.08-.1-.03.17.13.25.13.39.33l-2.82,3.67c1.53.21,3.07.44,4.59.69,1.29.21,2.75-.33,3.08-1.75.3-1.32-.4-2.71-1.75-3.08-.25-.07-.5-.15-.75-.23l-.24-.09c.16.07.16.07,0,0-.43-.2-.84-.45-1.24-.71-1.09-.73-2.81-.25-3.42.9-.69,1.31-.23,2.58.9,3.42-.38-.28.31.3.38.36s.66.75.37.37c.19.25.35.51.5.78.05.09.41.92.24.46l4.18-2.43c.28.36-.1-.25-.12-.28l-3.93,3.03c.63.72,1.37,1.32,2.15,1.88,1.76,1.25,4.35-.83,3.67-2.82-.06-.15-.1-.31-.14-.46-.05-.27-.06-.32-.03-.14.03.17.03.12.01-.15.03-.49-.03-.33-.18.48l-1.49,1.15.18-.04h-1.33l.19.08-1.1-.64c.15.12.27.25.4.4.26.3-.27-.45.1.14.2.33.39.67.55,1.02.4.9,1.61,1.31,2.49,1.19s1.95-.83,2.08-1.79c.05-.4.14-.79.25-1.18.24-.82,0-1.85-.64-2.43-.86-.78-1.8-1.46-2.86-1.94-.94-.43-1.92-.47-2.78.2-.78.6-1.18,1.66-.9,2.63.58,2.01,1.16,4.03,1.74,6.04l4.82-1.33c-.28-.76-.48-1.53-.59-2.33l-4.57,1.93c.79,1.5,2.16,2.71,3.96,2.47,2.31-.31,2.67-2.79,2.48-4.69l-4.66,1.26c.4.69.8,1.37,1.2,2.06l3.93-3.03c-1.26-1.26-3.3-1.95-4.78-.6-1.06.97-1.34,2.61-1.01,3.97s1.54,2.57,2.96,2.89c1.84.41,4.07-.63,4.02-2.76-.04-1.62-1.52-2.8-2.91-3.35-1.62-.63-3.21.24-3.91,1.74s-.8,3.22.41,4.46c1.01,1.04,2.47,1.4,3.88,1.38,1.76-.02,2.67-1.58,2.41-3.16-.34-2.1-2.81-2.8-4.54-2.08-1.2.51-2.43,1.78-2.97,2.96-.77,1.65-.69,3.52.52,4.94.94,1.11,2.62,1.66,4.05,1.58,2.03-.11,3.66-1.58,3.78-3.64.09-1.66-.85-3.58-2.4-4.23-1.77-.75-3.83.23-4.71,1.9-.98,1.86-.13,4.2,1.97,4.76,1.92.51,3.83-.76,4.79-2.36.8-1.34,1.02-3.06.53-4.54-.41-1.24-1.75-2.18-3.08-1.75-1.24.4-2.18,1.75-1.75,3.08h0Z"/>
        </g>
        <g>
          <path class="cls-3" d="M357.45,290.52c1.37.35,2.59,1.17,3.59,2.16s1.82,2.16,2.59,3.35c.97,1.5,1.89,3.05,2.47,4.73s.84,3.52.45,5.27c-.09.39-.2.77-.38,1.12-.52,1.02-1.6,1.76-2.75,1.79s-2.3-.66-2.75-1.72c-.65-1.54.21-3.36-.22-4.98-.13-.48-.36-.92-.59-1.36-.44-.82-.88-1.65-1.31-2.47-.24-.46-.49-.91-.81-1.32-1.15-1.45-3.11-1.99-4.96-2.13s-3.73.02-5.53-.41c1.82-1.11,3.63-2.21,5.45-3.32.49-.3.99-.6,1.55-.72.74-.16,1.51.02,2.25.2-1.05.74-2.09,1.48-3.14,2.23-.59.42-1.32.86-2,.59"/>
          <path class="cls-3" d="M356.78,292.93c2.44.69,4.05,3.27,5.4,5.49.79,1.31,1.48,2.64,1.84,4.13.26,1.07.38,2.62-.09,3.46-.14.26-.27.36-.62.45.26-.06-.12-.01-.17-.02.1.02.23.07.02-.03-.4-.18.25.15-.13-.07-.25-.15-.04,0,.01.04-.06-.05-.12-.16-.16-.4,0,.02.03-.56.04-.73.05-.74.17-1.48.13-2.22-.11-1.84-1.02-3.35-1.87-4.94s-1.59-2.91-3.02-3.94-3.21-1.44-4.95-1.63-3.56.01-5.3-.37l.6,4.57c1.39-.85,2.78-1.69,4.17-2.54.61-.37,1.22-.86,1.88-1.13.45-.19.75-.04,1.27.08l-.6-4.57c-.73.52-1.46,1.04-2.2,1.56-.31.22-.62.45-.94.67-.17.12-.35.24-.54.35.15.03.31.03.47,0-3.12-.78-4.45,4.04-1.33,4.82,2.74.68,5-1.61,7.06-3.07.83-.59,1.35-1.44,1.19-2.49-.14-.95-.81-1.84-1.79-2.08-1.08-.26-2.15-.45-3.26-.25-1.02.18-1.91.68-2.78,1.21-1.71,1.04-3.42,2.08-5.13,3.13s-1.57,4.1.6,4.57c2,.44,4,.35,6.02.49,1.04.07,2.55.4,3.15,1.15.54.66.88,1.56,1.28,2.3.22.41.44.82.66,1.24.16.3.31.54.35.74.13.66-.07,1.6-.11,2.35-.07,1.11.08,2.24.57,3.24,1.98,4.02,7.78,3.69,9.82-.08s.55-8.28-1.32-11.64c-2.03-3.64-4.68-7.47-8.89-8.66-3.1-.88-4.43,3.95-1.33,4.82h0Z"/>
        </g>
      </g>
    </g>
    <g>
      <rect class="cls-2" x="369.05" y="300.3" width="6.92" height="100.58" rx="3.46" ry="3.46" transform="translate(863.99 208.76) rotate(120.64)"/>
      <rect class="cls-2" x="386.39" y="356.44" width="6.92" height="27.28" rx="3.46" ry="3.46" transform="translate(859.32 631.91) rotate(165.64)"/>
      <rect class="cls-2" x="366.43" y="345.27" width="6.92" height="35.7" rx="3.46" ry="3.46" transform="translate(818.29 623.14) rotate(165.64)"/>
      <rect class="cls-2" x="377.96" y="324.72" width="6.92" height="35.7" rx="3.46" ry="3.46" transform="translate(618.68 -111.9) rotate(75.64)"/>
      <rect class="cls-2" x="393.36" y="342.99" width="6.92" height="27.28" rx="3.46" ry="3.46" transform="translate(643.89 -116.25) rotate(75.64)"/>
      <g>
        <g>
          <path class="cls-3" d="M365.99,325.92c.48-1.26,0-2.82-1.12-3.57-.26-.18-.57-.31-.88-.31s-.64.19-.75.49c-.15.42.16.85.49,1.15.22.21.48.41.78.43.33.02.64-.18.83-.45s.28-.6.35-.92c.07-.28.12-.57.06-.85-.09-.42-.46-.74-.86-.87s-.85-.1-1.27-.02c-.53.11-1.07.33-1.4.77-.41.53-.41,1.29-.15,1.91s.73,1.12,1.23,1.57c.27.24.57.48.93.52s.77-.21.77-.57c-.37-.02-.74,0-1.11.09-.44.1-.91.3-1.12.7-.27.52-.02,1.16.28,1.67.08.13.17.28.32.32.11.03.23,0,.34-.04.48-.17.91-.48,1.21-.88.06-.07.11-.17.08-.25-.02-.06-.09-.1-.15-.13-.57-.27-1.3-.03-1.67.48s-.41,1.21-.17,1.79c.05.13.13.26.25.31.1.04.22.02.33-.01.35-.1.67-.31.92-.57-.41.68-.82,1.36-1.23,2.04.08-.59.08-1.19,0-1.78-.02-.14-.05-.29-.15-.39-.12-.11-.31-.1-.46-.06-.56.17-.89.72-1.16,1.24.11-.8.32-1.58.62-2.32-.61,2.01-1.21,4.02-1.82,6.02.87-.37,1.68-.89,2.37-1.52-.11-.39-.19-.78-.23-1.19-.31.71-.75,1.36-1.29,1.91-.15.15-.38.3-.55.17-.09-.07-.11-.19-.12-.3-.07-.64.01-1.3.25-1.9-.62.41-1.18.91-1.66,1.46.14-.28.32-.54.52-.78-.53,1.38-1.47,2.59-2.68,3.44.87-.58,1.83-1,2.85-1.25-1.53.23-3.07.44-4.6.63.35-.54.99-.88,1.64-.88-.3.58-.88.99-1.53,1.08.09.19.32.25.53.28.94.1,1.87-.2,2.73-.59s1.67-.88,2.56-1.2c-.92,1.12-1.97,2.12-3.14,2.97.46-.36.96-.67,1.48-.94-.48.33-1.01.57-1.57.73"/>
          <path class="cls-3" d="M368.4,326.59c.9-2.63-.61-6.32-3.52-6.93-2.04-.43-4.14.88-4.18,3.08-.04,1.86,1.7,3.59,3.47,3.83,2,.27,3.5-1.34,3.92-3.16s-.18-3.8-2.05-4.58c-1.47-.62-3.27-.45-4.64.39-1.58.97-2.19,2.71-1.91,4.49.26,1.61,1.49,3.01,2.8,3.92,1.74,1.22,4.7.58,5.11-1.75.28-1.6-.67-3.13-2.41-3.16-1.35-.03-2.95.29-3.89,1.36-1.15,1.31-1.12,2.94-.42,4.46s2.27,2.35,3.9,1.75c1.42-.52,2.92-1.77,2.92-3.4,0-2.08-2.22-3.14-4.04-2.7-1.38.33-2.53,1.4-2.92,2.78s-.12,3.06.96,4.07c1.46,1.36,3.53.64,4.79-.59l-3.93-3.03c-.41.68-.82,1.36-1.23,2.04l4.66,1.26c.21-1.9-.14-4.38-2.45-4.7-1.8-.24-3.16.95-3.97,2.45l4.57,1.93c.12-.8.33-1.57.62-2.32l-4.82-1.33c-.61,2.01-1.21,4.02-1.82,6.02-.29.96.13,2.03.9,2.63.86.66,1.83.61,2.78.2,1.07-.47,2.01-1.14,2.88-1.91.66-.58.87-1.61.64-2.43-.03-.1-.21-1.03-.14-.52-.13-1.07-.68-2.15-1.84-2.41-1.01-.23-2.35.13-2.82,1.15-.16.35-.35.69-.56,1.01-.1.15-.2.24-.03.05-.16.18-.3.33-.48.48l1.1-.64-.19.08h1.33l-.18-.05,1.49,1.15c.16.81.22.96.19.48.02-.27.02-.32,0-.15-.03.17-.01.12.04-.14.04-.16.09-.31.15-.46.71-2-1.91-4.04-3.67-2.82-.79.54-1.53,1.14-2.17,1.86l3.93,3.03s.41-.63.13-.28l-4.18-2.43c.19-.46-.2.37-.25.45-.05.08-.56.83-.27.45-.19.24-.41.47-.63.69-.07.07-.77.63-.39.35-1.05.77-1.68,2.21-.9,3.42.71,1.1,2.25,1.66,3.42.9.91-.59,1.19-.72,2.25-.99,1.27-.33,2.16-1.81,1.75-3.08-.46-1.41-1.68-1.96-3.08-1.75-1.51.23-2.5.36-3.94.54l2.16,3.76c-.12.16-.24.22-.38.34-.14.04-.14.05,0,0,.18-.05.14-.04-.13.02l-2.16-3.76c-.24.41.08-.02.17-.11l-.19.11c.26-.12.26-.14-.02-.06-1.47.29-2.42,2.42-1.49,3.67.72.96,1.5,1.42,2.69,1.51.77.06,1.57-.06,2.31-.27s1.46-.55,2.15-.89c.31-.15.61-.31.92-.46.15-.08.31-.15.46-.22-.21.08-.17.07.11-.04l-2.43-4.18c-.44.52-.89,1.03-1.38,1.5-.25.24-.5.46-.76.68-.13.11-.26.22-.39.32.17-.13.14-.1-.1.07l2.52,4.32c.47-.35.96-.66,1.48-.94l-2.52-4.32c-.21.14-.42.26-.64.38.36-.18-.26.08-.33.1-1.25.38-2.17,1.77-1.75,3.08s1.74,2.15,3.08,1.75c.76-.23,1.5-.55,2.17-.98,1.1-.71,1.65-2.25.9-3.42s-2.18-1.55-3.42-.9c-.52.27-1.01.58-1.48.94-1.04.78-1.69,2.2-.9,3.42.67,1.04,2.3,1.73,3.42.9,1.34-1,2.58-2.07,3.65-3.36.69-.83,1.03-2.04.39-3.03-.56-.87-1.77-1.55-2.82-1.15s-1.97.86-2.92,1.34l-.23.11c.16-.06.16-.06,0,0-.2.08-.41.13-.61.2-.71.23.39-.03-.34.07h-.26c.2.02.39.08.57.17l.9.9-.09-.12-1.49,3.67c1.28-.25,2.37-1.12,3.02-2.23.93-1.58-.24-3.85-2.16-3.76-1.64.07-2.84.81-3.8,2.11-1.06,1.44.35,3.98,2.16,3.76s3.51-.45,5.27-.72l-1.33-4.82c-1.21.31-2.39.82-3.44,1.5l2.52,4.32c1.79-1.3,3.01-2.88,3.83-4.93.39-.98-.25-2.35-1.15-2.82s-2.32-.48-3.03.39c-.34.41-.66.82-.91,1.29-.59,1.11-.36,2.45.64,3.23.94.72,2.45.74,3.28-.2.22-.25.45-.48.69-.71.12-.11.25-.22.38-.32-.18.14-.15.13.09-.05l-3.67-2.82c-.66,1.86-.59,4.8,1.81,5.32,2.12.47,3.69-1.56,4.48-3.27l-4.66-1.26c.08.63.16,1.24.32,1.85l.64-2.43s-.51.42-.34.3c.14-.1-.39.25-.38.24-.37.23-.75.42-1.14.59l3.67,2.82c.61-2.01,1.21-4.02,1.82-6.02.38-1.25-.45-2.78-1.75-3.08-1.43-.33-2.57.44-3.08,1.75-.29.75-.5,1.52-.62,2.32-.19,1.25.21,2.43,1.45,2.95,1.11.47,2.52.08,3.12-1.02.04-.07.43-.67.22-.41-.12.14-.1.13.06-.04-.28.25-.6.4-.96.44l-1.26-.34.14.07-.9-.9c-.14-.71-.19-.83-.14-.37,0,.13,0,.25,0,.38,0,.3-.02.59-.06.89-.12,1.03.86,2.19,1.84,2.41,1.09.25,2.23-.17,2.82-1.15.41-.68.82-1.36,1.23-2.04,1.47-2.46-1.9-5-3.93-3.03-.21.2-.21.2-.01.01.17-.08.34-.14.53-.16l1.77.73c.22.21.33.45.33.72,0,.2,0,.17,0-.08-.07.21-.06.37-.21.56-.14.17-.32.3-.54.35-.16.04-.87-.11-.42.05l-1.1-.64.15.13-.73-1.77v.13c.11-.42.22-.84.33-1.26.21-.24.24-.29.1-.14-.13.12-.1.11.09-.04l-.19.11c.16-.08.34-.12.52-.13l1.26.34c.54.65.71.81.52.48-.08-.16-.08-.13.01.08-.07-.33-.1-.29-.07.13.07.51-.16.92-.68,1.22l.17-.1c-.29.12-.3.15-.04.06-.34-.09.41,0,.44,0l-2.41-3.16c2.51-.25,3.28-.64,2.32-1.17.19.14.22.16.08.04-.16-.2-.38-.36-.55-.56.27.32-.05-.09-.11-.22.09.22.11.25.06.07-.04-.18-.04-.15.02.11-.05.26-.14.37-.27.58-.25.17-.26.19-.01.04-.25.1-.29.12-.12.07.1-.03.2-.06.3-.08-.24.02-.21.03.1.02-.73-.27-.97-.31-1.11-1.33.06-.27.06-.32.02-.13-.02.12-.05.23-.08.35-.15.42-.07.33.22-.27l1.91-.23c.2.16.2.14,0-.06.06,2.22-.49,3.13-1.64,2.71-.36-.13-.39-.11-.09.04-.24-.19-.25-.19-.05,0l-.14-.2c.08.11.15.22.21.34-.09-.26-.11-.31-.05-.14.04.09.06.19.09.29.18.57-.07-.4,0,.13-.02.29-.01.27.02-.07-.03.13-.07.26-.12.38-.43,1.24.49,2.79,1.75,3.08,1.39.32,2.62-.42,3.08-1.75h0Z"/>
        </g>
        <g>
          <path class="cls-3" d="M357.98,337.49c1.37-.33,2.6-1.13,3.62-2.11s1.84-2.14,2.63-3.32c.99-1.49,1.92-3.03,2.53-4.7s.88-3.51.51-5.26c-.08-.39-.19-.77-.37-1.13-.51-1.03-1.58-1.78-2.73-1.83s-2.31.63-2.77,1.68c-.67,1.53.17,3.36-.28,4.97-.13.48-.37.92-.61,1.36-.45.82-.9,1.64-1.34,2.45-.25.45-.5.91-.82,1.31-1.17,1.43-3.13,1.95-4.98,2.07s-3.73-.06-5.53.34c1.8,1.13,3.61,2.26,5.41,3.39.48.3.98.61,1.54.74.74.17,1.51,0,2.25-.18-1.04-.75-2.07-1.51-3.11-2.26-.59-.43-1.31-.88-1.99-.62"/>
          <path class="cls-3" d="M358.65,339.9c3.78-1.02,6.18-4.13,8.2-7.28,2.15-3.35,3.85-7.45,2.77-11.48s-6.34-6.14-9.47-2.85c-1.52,1.6-1.56,3.56-1.42,5.62.05.68.05,1.12-.16,1.58-.42.87-.92,1.7-1.39,2.54-.89,1.63-1.42,2.11-3.31,2.4.26-.04-.22.02-.22.02-.34.03-.69.05-1.03.06-.56.02-1.11.02-1.67.02-1.27.02-2.54.12-3.79.37-2.21.45-2.31,3.5-.6,4.57s3.39,2.13,5.09,3.19c.87.54,1.75,1.06,2.77,1.24,1.1.2,2.18.02,3.26-.23.95-.22,1.68-1.15,1.79-2.08.13-1.06-.35-1.88-1.19-2.49-2.06-1.5-4.26-3.79-7.03-3.13-1.31.31-2.09,1.81-1.75,3.08.37,1.34,1.76,2.06,3.08,1.75-.65.15-.49-.02.06.37.32.22.62.45.93.68.73.53,1.45,1.06,2.18,1.58l.6-4.57c-.5.11-.83.24-1.26.06-.64-.27-1.28-.8-1.87-1.17-1.38-.86-2.76-1.73-4.14-2.59l-.6,4.57c1.59-.33,3.25-.14,4.87-.25s3.22-.42,4.67-1.17,2.5-2,3.29-3.44,1.69-2.77,2.16-4.27.01-3.12.14-4.55c0,0,.13-.45-.04-.12.1-.19.21-.22.26-.24.09-.04.12-.04.19-.04.13,0,.21.03.35.13.24.16.3.32.4.7.18.68.19,1.43.1,2.13-.19,1.45-.79,2.81-1.51,4.07-.78,1.38-1.65,2.79-2.67,3.99s-2.05,2.05-3.41,2.42c-3.1.84-1.79,5.66,1.33,4.82h0Z"/>
        </g>
      </g>
      <g>
        <g>
          <path class="cls-3" d="M347.82,356.59c-.87,1.03-2.47,1.35-3.67.73-.28-.15-.55-.34-.69-.63s-.14-.65.07-.89c.29-.33.82-.26,1.24-.13.29.09.59.22.75.48.18.28.15.65,0,.95s-.39.53-.64.75c-.21.19-.44.38-.71.46-.41.12-.87-.05-1.18-.34s-.5-.69-.62-1.1c-.16-.52-.22-1.1,0-1.6.27-.61.94-.98,1.61-1.05s1.33.1,1.97.33c.34.12.7.27.9.56s.18.78-.13.95c-.2-.31-.35-.66-.45-1.01-.13-.44-.18-.94.07-1.32.33-.49,1.01-.57,1.6-.56.16,0,.33.02.44.13.08.08.11.2.13.32.08.5.02,1.03-.19,1.49-.04.08-.09.18-.18.19-.07.01-.13-.03-.19-.07-.51-.37-.65-1.12-.39-1.69s.87-.94,1.49-1.01c.14-.02.29-.01.39.07.09.07.12.19.15.3.08.36.05.74-.06,1.08.4-.68.8-1.37,1.2-2.05-.48.35-1,.64-1.56.86-.13.05-.28.1-.41.05-.15-.06-.24-.22-.27-.38-.12-.57.21-1.13.53-1.61-.64.48-1.23,1.04-1.74,1.66,1.47-1.5,2.94-2.99,4.41-4.49.1.94.03,1.9-.19,2.81-.39.09-.78.21-1.15.37.47-.61.83-1.31,1.05-2.05.06-.2.08-.48-.11-.56-.1-.04-.22,0-.32.04-.6.24-1.13.63-1.55,1.13.06-.74.23-1.47.48-2.16-.18.26-.33.54-.44.83.95-1.12,1.56-2.54,1.73-4-.09,1.04,0,2.09.27,3.09-.53-1.45-1.09-2.9-1.66-4.34-.31.57-.3,1.3.02,1.86.36-.54.45-1.25.22-1.86.21-.02.38.16.49.33.54.77.72,1.74.79,2.68s.03,1.89.18,2.82c.54-1.34.91-2.75,1.1-4.18-.09.58-.13,1.16-.11,1.74.06-.58.02-1.16-.12-1.73"/>
          <path class="cls-3" d="M346.05,354.83c-.09.11-.19.21-.3.3l.17-.14c-.25.13-.24.14.03.03-.1.04-.2.07-.3.1-.18.04-.14.04.14,0-.11.01-.21.02-.32.01-.19,0-.14,0,.14.04-.1-.02-.21-.04-.31-.07-.17-.05-.14-.04.11.06-.47-.31-.35-.08.39.69l-1.61,2.22c-.34-.05-.37-.05-.09.02-.67-.29-1.18-2.48-.63-2.35l-.17.18c-.24.21-.24.22,0,.05.65.03.84-.23,1.47.24.14.21.16.24.06.09-.09-.16-.08-.12.02.11-.04-.1-.07-.21-.1-.32-.04-.18-.05-.15-.02.09,0-.3,0-.31-.03-.02l-.07.18c-.12.23-.25.25-.43.38.27-.07.29-.07.06-.02h.28c-.23-.07.48.19.59.21.2.07.18.06-.06-.04-.66-.61-.71-1.47-.14-2.58l3.93.51c-.08-.14-.27-.61-.13-.2-.05-.14-.09-.29-.13-.43.09.25.03.48-.18.7-.08.46-.36.74-.83.84.23-.06.25-.07.06-.04-.2.02-.18.02.07,0,.48.02.27-.05-.63-.21l-.9-.9-.18-.69c0,.28,0,.34.02.17.02-.12.01-.11-.02.04-.06.2-.04.16.05-.12l.9-.9-.11.07,1.93-.25-.19-.07,1.1.64c-.33-.29.12.21.16.33.08.23.07.48-.01.7s-.18.3-.34.45l-.21.08c.44-.11.26-.11-.53-.02l-1.49-1.15s-.19-.45-.17-.55c-.71,2.72,3.12,4.4,4.57,1.93.4-.68.8-1.37,1.2-2.05.54-.92.42-2.28-.39-3.03s-2.1-1.04-3.03-.39c-.24.17-.49.33-.75.48-.43.24-.36.07.04.09l1.26.34-.13-.09.9.9c.05.07.18,1,.14.99-.04.11-.03.09.04-.04.06-.11.13-.22.2-.32.57-.9.4-2.31-.39-3.03s-2.14-1.07-3.03-.39c-.82.63-1.58,1.26-2.24,2.05-.84,1-1.05,2.57,0,3.54.99.91,2.56,1,3.54,0,1.47-1.5,2.94-2.99,4.41-4.49l-4.27-1.77c.04.43.05.85.03,1.27-.03.49,0,.32-.14.88l1.75-1.75c-.4.09-.77.22-1.15.37l2.82,3.67c1.08-1.46,2.23-4,.66-5.55-1.72-1.69-4.17-.44-5.51,1.07l4.27,1.77c-.03.31.09-.47.11-.57.08-.32.17-.62.28-.93.41-1.18-.37-2.5-1.45-2.95-1.17-.5-2.44-.03-3.12,1.02-.29.45-.49.93-.69,1.43-.93,2.29,2.64,4.31,4.18,2.43,1.41-1.72,2.17-3.57,2.46-5.77h-5c-.09,1.26.05,2.53.36,3.76l4.82-1.33c-.53-1.45-1.09-2.9-1.66-4.34-.38-.95-1.01-1.65-2.08-1.79-.9-.12-2.08.3-2.49,1.19-.69,1.51-.7,2.88.02,4.38.84,1.73,3.42,1.52,4.32,0,.68-1.15.86-2.51.47-3.79l-3.08,3.08c-.78-.73-1.04-.9-.8-.49.07.13.08.15.03.05-.09-.21.1.37.12.43s.12.68.09.43c-.03-.23.03.5.03.46.06,1.08.1,2.13.25,3.2s1.42,1.88,2.41,1.84c1.19-.05,1.99-.76,2.41-1.84.53-1.35.9-2.74,1.1-4.18.18-1.29-.31-2.75-1.75-3.08-1.18-.27-2.88.36-3.08,1.75-.11.81-.21,1.59-.2,2.41.02,1.31,1.14,2.56,2.5,2.5,1.43-.06,2.4-1.1,2.5-2.5.06-.81-.04-1.6-.2-2.39-.26-1.28-1.85-2.14-3.08-1.75-1.36.44-2.03,1.7-1.75,3.08.06.3.06.56.03,1.07h5c0-.24,0-.49,0-.73,0-.05.05-.59.01-.35l-4.82-1.33c-.2,1.44-.56,2.83-1.1,4.18h4.82c.03.2.03.14,0-.18-.01-.19-.02-.38-.03-.56-.01-.28-.02-.57-.03-.85-.03-.75-.1-1.51-.25-2.25-.31-1.54-1.23-3.38-2.9-3.73-1.78-.37-3.67,1.15-3.08,3.08.1.31.03.21.06-.04.01-.12.25-.48-.02-.02h4.32c.13.26.09.41-.02.66l-4.57-.6c.57,1.44,1.13,2.88,1.66,4.34.45,1.22,1.72,2.19,3.08,1.75s2.09-1.72,1.75-3.08c-.06-.23-.11-.46-.16-.69-.09-.48.01.53-.04-.32-.03-.47-.02-.94.01-1.42.09-1.31-1.22-2.56-2.5-2.5-1.5.07-2.32,1.1-2.5,2.5.06-.49-.12.45-.15.54-.04.16-.09.31-.15.47-.1.25-.12.31-.06.16.06-.15.03-.1-.08.15-.07.15-.15.29-.24.43-.05.08-.58.8-.32.49l4.18,2.43c-.18.44.16-.2.18-.24l-4.57-1.93c-.32.92-.47,1.86-.57,2.83s.71,1.94,1.54,2.28c.88.37,2.06.23,2.73-.52.1-.12.22-.24.33-.35.2-.18.24-.21.12-.11-.12.1-.07.08.15-.07.44-.21.27-.18-.5.09l-1.77-.73.11.09-.64-1.1v-.86c-.02.08-.05.16-.07.25l-.09.24c.06-.16.06-.17-.01-.01-.19.34-.39.66-.62.98-1.25,1.69.85,4.46,2.82,3.67.38-.15.76-.27,1.15-.37.81-.19,1.56-.93,1.75-1.75.26-1.14.38-2.31.28-3.48-.09-1.02-.56-1.87-1.54-2.28-.91-.38-2.02-.2-2.73.52-1.47,1.5-2.94,2.99-4.41,4.49l3.54,3.54c.23-.27.47-.54.72-.79.08-.08.71-.63.51-.48l-3.42-3.42c-.99,1.55-1.42,3.84.26,5.13,1.57,1.22,3.45.38,4.88-.63l-3.42-3.42c-.4.68-.8,1.37-1.2,2.05l4.57,1.93c.46-1.74.04-4.04-2.02-4.53-1.4-.33-2.95.28-3.91,1.3-1.04,1.11-1.38,2.78-.78,4.18.69,1.64,2.56,2.85,4.28,1.78,1.43-.88,1.72-2.91,1.41-4.44-.34-1.68-2.02-2.42-3.58-2.26s-3.01.97-3.51,2.56c-.43,1.37.04,2.86.74,4.06.88,1.51,2.69,1.49,3.93.51,1.51-1.21,1.17-3.62-.18-4.77s-3.42-1.54-5.1-1.22c-1.6.3-2.94,1.54-3.34,3.11s.15,3.45,1.22,4.65c1.21,1.35,3.2,1.61,4.73.69s2.6-2.64,2.24-4.42-2.25-2.85-3.95-2.79c-2.11.08-3.62,1.92-3.14,4.02.45,1.94,2.47,2.92,4.3,3.04,1.58.1,3.26-.6,4.32-1.77.88-.97,1.03-2.59,0-3.54-.96-.88-2.59-1.03-3.54,0h0Z"/>
        </g>
        <g>
          <path class="cls-3" d="M354.12,344.02c.37,1.36.26,2.83-.11,4.19s-.99,2.65-1.65,3.9c-.83,1.58-1.73,3.14-2.91,4.48s-2.66,2.46-4.37,2.98c-.38.11-.77.2-1.16.22-1.15.05-2.32-.53-2.91-1.51s-.56-2.33.14-3.24c1.02-1.33,3.02-1.47,4.23-2.63.36-.35.63-.77.9-1.19.5-.79,1-1.57,1.51-2.36.28-.43.56-.87.75-1.35.7-1.71.2-3.69-.58-5.36s-1.85-3.24-2.36-5.02c1.86,1.04,3.71,2.08,5.57,3.12.5.28,1.01.57,1.39.99.5.57.72,1.33.93,2.06-1.16-.55-2.32-1.09-3.48-1.64-.66-.31-1.4-.73-1.5-1.45"/>
          <path class="cls-3" d="M351.71,344.68c.44,1.9-.31,3.79-1.16,5.47s-1.67,3.31-2.87,4.66c-.92,1.04-2.29,2.34-3.76,2.46-.3.03-.65-.07-.77-.25-.21-.3-.07-.46.18-.67.48-.42,1.38-.65,1.99-.95.89-.44,1.67-1.04,2.29-1.82,1.26-1.56,2.62-3.55,3.31-5.43s.44-4.12-.28-6.01-2.03-3.7-2.65-5.7l-3.67,2.82c1.49.83,2.97,1.66,4.46,2.49.54.3,1.29.57,1.75.98.34.3.39.72.53,1.2l3.67-2.82c-.84-.39-1.68-.79-2.51-1.18-.37-.17-.74-.34-1.11-.53-.55-.28-.34-.38-.21.12-.85-3.1-5.68-1.78-4.82,1.33.74,2.68,3.89,3.53,6.13,4.58,1.89.89,4.31-.58,3.67-2.82-.59-2.09-1.58-3.47-3.46-4.55s-3.71-2.08-5.57-3.12-4.34.68-3.67,2.82c.6,1.94,1.68,3.61,2.52,5.44.59,1.27.97,2.62.22,3.88-.47.8-.99,1.57-1.49,2.35-.43.67-.67,1.15-1.34,1.51-1.52.82-3.07,1.31-4.1,2.81-2.45,3.59.44,8.41,4.62,8.51,3.93.1,7.24-3.07,9.27-6.1,2.48-3.7,4.7-8.29,3.65-12.82-.73-3.13-5.55-1.81-4.82,1.33h0Z"/>
        </g>
      </g>
    </g>
    <g>
      <rect class="cls-2" x="306.62" y="334.59" width="6.92" height="100.58" rx="3.46" ry="3.46" transform="translate(615.36 773.58) rotate(-179.29)"/>
      <rect class="cls-2" x="298.38" y="396" width="6.92" height="27.28" rx="3.46" ry="3.46" transform="translate(219.37 911.75) rotate(-134.29)"/>
      <rect class="cls-2" x="294.45" y="371.01" width="6.92" height="35.7" rx="3.46" ry="3.46" transform="translate(227.59 873.65) rotate(-134.29)"/>
      <rect class="cls-2" x="318.01" y="370.75" width="6.92" height="35.7" rx="3.46" ry="3.46" transform="translate(822.95 442.3) rotate(135.71)"/>
      <rect class="cls-2" x="313.52" y="395.33" width="6.92" height="27.28" rx="3.46" ry="3.46" transform="translate(829.46 480.38) rotate(135.71)"/>
      <g>
        <g>
          <path class="cls-3" d="M328.21,366.92c1.33-.21,2.44-1.41,2.53-2.75.02-.32,0-.65-.17-.92s-.48-.46-.79-.41c-.43.08-.65.57-.76.99-.07.29-.12.62.01.89.14.3.48.46.81.49s.66-.06.97-.15c.27-.08.56-.18.77-.37.31-.29.41-.76.32-1.18s-.33-.79-.62-1.11c-.36-.41-.82-.76-1.36-.83-.66-.09-1.32.29-1.73.83s-.6,1.19-.74,1.85c-.08.35-.13.73,0,1.06s.57.56.88.38c-.17-.33-.38-.64-.63-.91-.3-.34-.71-.64-1.16-.62-.59.02-1.02.56-1.31,1.08-.08.13-.15.29-.12.44.03.11.11.2.2.28.38.33.87.55,1.37.61.09.01.2.01.26-.06.04-.05.05-.13.04-.2-.05-.62-.62-1.14-1.25-1.21s-1.25.25-1.64.75c-.08.11-.16.24-.14.37.02.11.1.2.18.28.27.25.6.43.96.51-.79-.01-1.59-.03-2.38-.04.55-.23,1.07-.52,1.54-.88.11-.09.23-.19.26-.33.03-.16-.06-.32-.18-.43-.42-.4-1.07-.41-1.65-.39.74-.3,1.52-.51,2.32-.62-2.04.48-4.08.95-6.13,1.43.75.57,1.6,1.01,2.51,1.3.28-.29.58-.56.91-.79-.77.09-1.55.03-2.3-.17-.2-.05-.45-.18-.42-.39.02-.11.11-.19.2-.26.52-.38,1.13-.64,1.77-.73-.66-.33-1.37-.57-2.1-.71.31-.02.63,0,.94.06-1.46.23-2.98.01-4.32-.61.93.46,1.78,1.09,2.5,1.84-.97-1.21-1.91-2.44-2.84-3.68.65.03,1.26.42,1.58.99-.65.03-1.3-.27-1.7-.78-.12.17-.06.4.02.59.38.86,1.11,1.52,1.88,2.07s1.6,1.01,2.32,1.62c-1.43-.24-2.82-.65-4.14-1.24.54.22,1.06.5,1.55.81-.52-.25-1-.59-1.42-1"/>
          <path class="cls-3" d="M328.87,369.33c2.9-.58,5.23-3.95,4.08-6.83-.76-1.91-3.05-2.76-4.81-1.62-1.48.96-2.1,3.21-1.4,4.81,1.56,3.59,7.62,2.01,7.68-1.75.05-3.41-3.93-6.09-6.95-4.22-1.44.89-2.21,2.51-2.5,4.13-.21,1.2-.09,2.49.82,3.41.82.83,2.07,1.2,3.19.84,1.56-.5,2.29-2.21,1.49-3.67-.65-1.2-1.69-2.34-3.06-2.67-1.68-.4-3.18.48-4.11,1.83s-.93,3.17.43,4.29c1.21.99,3,1.63,4.46.79,1.79-1.04,1.49-3.56.21-4.86-1.04-1.07-2.6-1.45-4.03-1.04s-2.67,1.62-2.88,3.13c-.24,1.8,1.36,3.09,2.92,3.53l.66-4.91c-.79-.01-1.59-.03-2.38-.04l1.26,4.66c1.67-.73,3.47-2.06,2.94-4.15-.49-1.91-2.46-2.58-4.23-2.53l.66,4.91c.75-.29,1.52-.5,2.32-.62l-1.33-4.82c-2.04.48-4.08.95-6.13,1.43-.96.22-1.66,1.14-1.79,2.08-.14,1.06.36,1.88,1.19,2.49.94.69,2,1.18,3.1,1.55.83.28,1.83-.04,2.43-.64.06-.06.75-.66.41-.4.9-.68,1.47-1.66,1.15-2.82-.27-.99-1.33-1.93-2.41-1.84-.38.03-.77.06-1.16.02.18.04.12.03-.2-.03-.17-.03-.33-.08-.49-.15l1.1.64-.16-.13.64,1.1-.05-.18-.25,1.93c-.54.47-.66.61-.35.41.15-.07.16-.09.02-.05.25-.12.54-.16.8-.21,2.05-.39,2.5-3.67.6-4.57-.87-.41-1.75-.76-2.7-.96l-.66,4.91c.32.05.41.04.27-.03v-4.82c.37-.05-.36,0-.44,0-.17,0-.8-.04-.77-.03.08.01-.48-.11-.62-.15-.1-.03-.79-.27-.57-.17-1.23-.55-2.69-.36-3.42.9-.65,1.12-.31,2.8.9,3.42.42.22.84.46,1.23.74.35.26-.35-.36.21.18.19.18.38.36.56.54.94.97,2.59.95,3.54,0,1.04-1.04.84-2.48,0-3.54s-1.62-2.07-2.45-3.17l-2.16,3.76c-.24-.03-.43-.02-.58-.25l2.16-3.76.18.05c-.26-.07-.31-.08-.16-.04-.02-.06.53.48.04-.07-1.33-1.51-3.59-.54-4.18,1.1s.58,3.39,1.74,4.45c.54.5,1.16.94,1.78,1.36.41.28,1.16.76,1.34.91l2.43-4.18c-.66-.12-1.32-.26-1.97-.45-.5-.14-1.32-.43-1.57-.54l-2.52,4.32c.54.23,1.05.5,1.55.81l2.52-4.32c-.22-.11-.44-.23-.65-.37.33.21-.22-.19-.26-.24-.98-.92-2.56-.98-3.54,0s-.99,2.61,0,3.54c.58.54,1.22,1.03,1.92,1.39,1.2.62,2.71.31,3.42-.9s.25-2.7-.9-3.42c-.5-.31-1.01-.58-1.55-.81-1.24-.53-2.68-.37-3.42.9-.62,1.06-.35,2.88.9,3.42,1.54.67,3.08,1.2,4.74,1.49,1.11.19,2.23-.13,2.82-1.15.52-.89.46-2.34-.39-3.03s-1.71-1.24-2.59-1.85c-.15-.1-.3-.2-.44-.31.26.21-.15-.15-.19-.19-.08-.07-.41-.42-.2-.17l-.14-.21c-.28-.55-.28-.26-.01.88l-4.18,1.1c.88,1,2.16,1.5,3.47,1.52,1.84.03,3.19-2.17,2.16-3.76-.9-1.39-2.12-2.03-3.74-2.22-1.8-.22-3.24,2.32-2.16,3.76s2.13,2.8,3.23,4.18l3.54-3.54c-.87-.89-1.89-1.66-3.01-2.24l-2.52,4.32c2.06.91,4.02,1.17,6.24.86,1.03-.14,1.88-1.42,1.84-2.41s-.73-2.25-1.84-2.41c-.54-.08-1.06-.16-1.6-.15-1.25.02-2.29.93-2.46,2.17-.16,1.16.57,2.48,1.79,2.74.32.07.63.14.94.24.39.12.27.08.56.22l.6-4.57c-1.95.37-4.33,1.84-3.69,4.16.59,2.14,3.23,2.47,5.1,2.3l-1.26-4.66c-.5.37-.98.74-1.42,1.18l2.43-.64c-.66-.22-1.22-.54-1.91-1.05l-.6,4.57c2.04-.48,4.08-.95,6.13-1.43,1.32-.31,2.09-1.81,1.75-3.08-.39-1.43-1.74-1.95-3.08-1.75-.8.12-1.56.33-2.32.62-1.17.46-1.97,1.43-1.79,2.74.16,1.19,1.2,2.2,2.46,2.17.19,0,.37,0,.56,0,.15,0,.15,0,0,0-.53,0-.9-.35-1.13-1.02l.25-1.93c.51-.45.59-.55.22-.28-.11.07-.22.14-.33.2-.26.15-.53.27-.8.39-1,.43-1.42,1.85-1.15,2.82.29,1.07,1.31,1.82,2.41,1.84.79.01,1.59.03,2.38.04,2.84.05,3.36-4.14.66-4.91-.28-.08-.28-.08-.01,0,.19.17.21.17.04,0l.64,1.1-.06-.15v1.33c-.08.49-.54.76-.98.68-.15-.02-.3-.08-.42-.17-.15-.11-.49-.94-.4-.43v-1.33l-.04.2,1.15-1.49-.12.06,1.26-.34.27.04c-.27-.08-.32-.09-.18-.05.13.13.23.13.35.35l.34,1.26.02-.23-.34,1.26c.04-.11.1-.21.16-.31.09-.14.07-.13-.06.04l.16-.16c-.31.32-.67.41-1.09.27-.25.07-.45.04-.61-.11-.13-.11-.1-.07.09.11-.17-.29.26.45.24.41l1.49-3.67.26-.05,1.26.34c.51.37.73.79.67,1.28-.02.15,0,.08.05-.18.07-.24.11-.5.22-.72-.14.32.03-.19.04-.02,0,.21-.3.05.06,0-.58.1-.48.14-.91.05-.16-.14-.17-.16-.04-.04.09.08.17.16.25.25l-.08-.1c.16.32.18.29.06-.06-.09-.17-.09-.35-.02-.52.14-.46.39-.74.77-.86.17-.06.14-.05-.1.03l-.24.07c.1-.02.2,0,.29.02.67.14,1.08.65,1.25,1.54l-.02.21c.41-1.18-.65-1.37-3.18-.57v.24c.03-.26.03-.3-.01-.12-.05.17-.04.14.05-.08l-.11.2c-.14.21-.16.25-.06.11.1-.14.07-.11-.1.08.39-.1-.08.05-.22.12.37-.2-.08-.01-.25.02-1.33.26-2.09,1.84-1.75,3.08.38,1.38,1.75,2.01,3.08,1.75h0Z"/>
        </g>
        <g>
          <path class="cls-3" d="M314.19,365.76c.97,1.02,2.28,1.69,3.64,2.08s2.77.53,4.19.62c1.78.11,3.58.16,5.34-.15s3.48-.99,4.82-2.18c.3-.26.57-.55.79-.88.64-.95.75-2.26.22-3.28s-1.7-1.69-2.84-1.56c-1.66.18-2.83,1.82-4.45,2.24-.48.12-.98.14-1.48.15-.93.02-1.86.04-2.8.06-.52.01-1.03.02-1.54-.06-1.83-.3-3.25-1.74-4.28-3.29s-1.8-3.26-3.06-4.62c-.08,2.13-.16,4.25-.24,6.38-.02.57-.04,1.15.13,1.7.22.73.76,1.31,1.28,1.86.14-1.28.27-2.55.41-3.83.08-.72.11-1.57-.46-2.03"/>
          <path class="cls-3" d="M312.42,367.53c2.94,2.93,7.17,3.4,11.12,3.51s8.11-.62,10.82-3.55c2.88-3.12,1.71-8.7-2.78-9.48-2.02-.35-3.62.54-5.23,1.62-.61.41-.86.61-1.56.66-1.05.07-2.12.05-3.17.07-1.67.03-2.52-.51-3.49-1.85-1.27-1.77-2.16-3.74-3.62-5.39s-4.19-.27-4.27,1.77-.16,4.12-.23,6.18c-.08,2.27.6,3.87,2.13,5.53.67.73,1.85.9,2.73.52.98-.43,1.43-1.25,1.54-2.28.27-2.49,1.18-5.61-.78-7.63-2.25-2.31-5.78,1.22-3.54,3.54-.43-.44-.2-.81-.25-.01-.02.41-.08.82-.13,1.23-.1.96-.21,1.91-.31,2.87l4.27-1.77c-.16-.17-.59-.56-.67-.77-.23-.63.02-1.78.05-2.43.06-1.66.12-3.32.19-4.98l-4.27,1.77c.93,1.05,1.55,2.34,2.29,3.53.84,1.36,1.82,2.61,3.1,3.59,1.37,1.05,2.94,1.57,4.68,1.59s3.64.1,5.34-.26c1.45-.31,2.5-1.27,3.74-1.98.29-.17.32-.23.6-.25-.31.02-.06-.03.09.08.02.01.2.2.21.23.06.31-.06.62-.19.78-.39.51-1,.86-1.56,1.16-1.16.61-2.51.85-3.81.92-1.79.1-3.69.04-5.46-.25-1.5-.24-2.94-.69-4.03-1.78-2.28-2.27-5.82,1.26-3.54,3.54h0Z"/>
        </g>
      </g>
      <g>
        <g>
          <path class="cls-3" d="M292.56,366.48c-1.32-.24-2.4-1.47-2.46-2.81-.01-.32.03-.65.2-.91s.49-.45.8-.39c.43.09.64.58.73,1.01.06.3.1.62-.04.89-.15.29-.49.45-.82.47s-.65-.07-.97-.18c-.27-.09-.55-.19-.76-.39-.31-.3-.39-.77-.29-1.19s.35-.78.64-1.09c.37-.4.84-.74,1.38-.8.67-.07,1.32.33,1.71.87s.57,1.21.7,1.87c.07.35.12.74-.04,1.06s-.58.55-.89.36c.18-.33.39-.63.65-.9.31-.33.73-.62,1.18-.59.59.04,1,.59,1.28,1.11.07.14.15.29.11.44-.03.11-.12.2-.21.27-.39.32-.88.53-1.39.58-.09,0-.2,0-.26-.06-.04-.05-.04-.13-.04-.2.07-.62.65-1.12,1.27-1.18s1.25.28,1.62.79c.08.11.15.24.13.38-.02.11-.1.2-.18.28-.27.24-.61.41-.97.49.79,0,1.59.01,2.38.02-.54-.24-1.06-.55-1.52-.92-.11-.09-.23-.19-.25-.33-.03-.16.07-.31.19-.42.43-.39,1.08-.38,1.66-.35-.74-.32-1.51-.55-2.3-.68,2.03.53,4.06,1.05,6.09,1.58-.77.55-1.63.97-2.54,1.24-.27-.3-.57-.57-.89-.82.77.1,1.55.07,2.3-.11.2-.05.45-.17.43-.38-.01-.11-.1-.19-.19-.26-.51-.39-1.11-.66-1.75-.78.67-.31,1.39-.54,2.12-.66-.31-.03-.63-.01-.94.04,1.45.27,2.98.09,4.33-.5-.94.44-1.81,1.04-2.55,1.78.99-1.19,1.97-2.39,2.93-3.6-.65.02-1.27.39-1.6.95.65.05,1.31-.24,1.72-.74.12.17.05.41-.04.59-.4.85-1.15,1.49-1.93,2.02s-1.62.97-2.36,1.56c1.43-.2,2.84-.58,4.17-1.14-.54.21-1.07.47-1.57.77.53-.24,1.02-.57,1.44-.96"/>
          <path class="cls-3" d="M293.22,364.07c-.11-.02-.22-.05-.32-.08-.17-.06-.14-.04.08.04-.21-.14-.25-.16-.12-.05.13.11.1.08-.09-.09l-.15-.16c.16.21.16.2,0-.04l-.1-.2c.1.22.12.24.07.07-.04-.18-.04-.14,0,.11.08-.71-.44-.68-1.56.09-.9.72-1.46.75-1.67.1l.05.19c-.11-.4.07-.72.53-.98.18-.68.58-.94,1.2-.78-.03-.02-.63-.21-.68-.2l.55.33c.35.35.47.76.35,1.24l-.07.12c.15-.24.18-.29.1-.16-.08.12-.03.08.13-.11l-.14.09c.26-.15.27-.16.03-.04h-.61c-.2,0-.32-.47-.04-.01-.24-.41.15.45-.03-.02.09.23.14.49.2.73l.05.25c-.13-.5.08-.95.63-1.35l1.26-.34.26.04,1.49,3.67c.39-.68-.23.22.26-.39l.16-.16c-.16.19-.39.25-.67.18-.3.14-.58.11-.81-.09-.18-.04-.31-.15-.38-.31-.01.02.32.57.33.6l-.34-1.26v.23c.12-.42.24-.84.35-1.26l.48-.47c-.24.13-.29.17-.15.1.1-.04.09-.04-.06,0-.21.05-.16.04.15-.02l1.26.34-.12-.06,1.15,1.49-.04-.2v1.33c.11-.52-.2.28-.29.37-.2.22-.44.23-.72.23-.14,0-.6-.14-.39-.04.24.12-.13-.08-.18-.17l-.34-1.26.03.2.34-1.26c.1-.23.95-.55.34-.39-2.72.74-2.17,4.89.66,4.91.79,0,1.59.01,2.38.02,1.06,0,2.17-.78,2.41-1.84s-.13-2.35-1.15-2.82c-.27-.13-.53-.26-.79-.41-.11-.06-.22-.13-.32-.21-.36-.27-.29-.18.23.26l.25,1.93.04-.23-.64,1.1c-.06.08-.31.08-.38.16-.12.02-.11.03.05.02.13,0,.25,0,.38.01,1.24.06,2.3-1,2.46-2.17.18-1.33-.62-2.26-1.79-2.74-.75-.31-1.51-.54-2.3-.68-1.28-.23-2.76.35-3.08,1.75-.3,1.31.39,2.72,1.75,3.08,2.03.53,4.06,1.05,6.09,1.58l-.6-4.57c-.7.49-1.3.79-1.94.98l2.43.64c-.28-.3-.57-.56-.89-.82l-1.77,4.27c1.88.21,4.51-.08,5.11-2.23.64-2.32-1.73-3.79-3.66-4.21l.6,4.57c-.21.09.47-.16.57-.19.31-.09.63-.16.95-.22,1.22-.23,1.94-1.61,1.79-2.74-.17-1.25-1.2-2.11-2.46-2.17-.33-.01-.62,0-.94.04-1.25.16-2.28.83-2.46,2.17-.15,1.12.56,2.54,1.79,2.74,1.92.31,3.84.25,5.66-.5l-1.93-4.57c-1.13.54-2.15,1.3-3.05,2.17l3.54,3.54c.99-1.19,1.97-2.39,2.93-3.6.64-.81.96-1.73.52-2.73-.37-.84-1.3-1.63-2.28-1.54-1.63.16-2.83.82-3.76,2.18-1.1,1.61.37,3.74,2.16,3.76,1.32.01,2.59-.5,3.49-1.47l-4.18-1.1c.26-1.09.27-1.43.03-1-.08.12-.09.14-.03.06.16-.13-.27.28-.31.32s-.5.42-.34.3c.14-.1-.42.27-.4.26-.9.58-1.78,1.13-2.63,1.8s-.9,2.16-.39,3.03c.6,1.03,1.71,1.31,2.82,1.15,1.44-.21,2.82-.59,4.17-1.14,1.25-.51,2.13-1.67,1.75-3.08-.33-1.19-1.81-2.25-3.08-1.75-.75.3-1.47.61-2.16,1.03-1.16.69-1.58,2.25-.9,3.42.73,1.24,2.2,1.49,3.42.9.72-.35,1.35-.82,1.95-1.35,1.01-.9.92-2.62,0-3.54-1-1-2.53-.9-3.54,0-.49.44.29-.11-.28.22-.22.12-.43.25-.66.35l2.52,4.32c.21-.12.42-.25.64-.36.05-.03.49-.23.33-.17l-1.33-4.82c-1.35.55-2.73.92-4.17,1.14l2.43,4.18c.19-.15.96-.6,1.38-.86.63-.4,1.24-.83,1.8-1.32,1.2-1.05,2.33-2.77,1.79-4.42s-2.84-2.55-4.18-1.1c-.2.21-.2.13.03.05.12-.05.54-.03.02-.04l2.16,3.76c-.15.22-.3.27-.56.29l-1.77-4.27c-.96,1.21-1.94,2.42-2.93,3.6-.87,1.03-1.01,2.52,0,3.54s2.57.94,3.54,0c.19-.18.38-.36.57-.53-.24.2.14-.1.22-.16.4-.27.81-.5,1.24-.71,1.11-.53,1.49-2.07,1.02-3.12s-1.78-1.93-2.95-1.45c-.34.14-.69.27-1.04.36-.07.02-.79.17-.42.12-.27.04-.56.05-.83.05-.12,0-1-.08-.71-.03l-.66,4.91c.32-.04.61-.05.94-.04l-.66-4.91c-.96.18-1.83.52-2.71.91-1.96.87-1.4,4.14.6,4.57,0,0,.71.2.45.09l.24.13c.41.28.33.17-.24-.33l-.25-1.93-.05.18,1.15-1.49c.32-.07.3-.07-.06,0,.19-.02.12-.01-.2.01-.39,0-.77,0-1.16-.05-2.07-.23-3.42,2.96-1.77,4.27.32.25.61.52.89.82.59.63,1.61.9,2.43.64,1.11-.34,2.18-.82,3.13-1.49.84-.58,1.33-1.44,1.19-2.49-.13-.96-.83-1.83-1.79-2.08-2.03-.53-4.06-1.05-6.09-1.58l-1.33,4.82c.8.14,1.56.37,2.3.68l.66-4.91c-1.82-.09-3.82.63-4.26,2.61s1.31,3.33,2.92,4.08l1.26-4.66c-.79,0-1.59-.01-2.38-.02l.66,4.91c1.59-.43,3.03-1.61,2.96-3.37-.06-1.65-1.58-2.96-3.09-3.35-1.4-.36-2.89.11-3.88,1.14-1.29,1.34-1.46,3.78.31,4.81,1.28.74,2.98.26,4.11-.55,1.55-1.1,1.84-2.94.77-4.52-.92-1.36-2.41-2.26-4.09-1.86-1.38.33-2.41,1.45-3.1,2.63-.86,1.47-.01,3.14,1.49,3.67,2.15.76,4.15-1.19,4.15-3.29,0-1.5-.59-3.15-1.57-4.27-1.1-1.26-2.91-1.82-4.51-1.3-1.52.49-2.95,1.95-3.33,3.52-.43,1.81.39,3.62,2.1,4.37,1.52.67,3.47.85,4.74-.44s1.26-3.21.42-4.69c-1.04-1.84-3.59-2.29-5.12-.76-2.77,2.75-.02,7.36,3.22,8.09,1.27.29,2.77-.39,3.08-1.75.29-1.27-.38-2.77-1.75-3.08h0Z"/>
        </g>
        <g>
          <path class="cls-3" d="M306.6,365.66c-1,1-2.32,1.63-3.69,1.99s-2.79.46-4.2.52c-1.78.07-3.58.07-5.33-.28s-3.46-1.08-4.76-2.3c-.29-.27-.56-.57-.77-.9-.62-.97-.69-2.28-.14-3.28s1.74-1.65,2.88-1.49c1.66.22,2.78,1.89,4.39,2.35.48.14.98.16,1.48.18.93.04,1.86.09,2.79.13.52.02,1.03.05,1.54-.02,1.83-.25,3.29-1.66,4.36-3.18s1.88-3.22,3.17-4.55c.03,2.13.05,4.26.08,6.38,0,.57.01,1.16-.17,1.7-.24.72-.79,1.29-1.32,1.83-.11-1.28-.21-2.56-.32-3.83-.06-.72-.07-1.58.51-2.02"/>
          <path class="cls-3" d="M304.84,363.9c-2.07,1.96-5.56,1.85-8.22,1.81-1.47-.03-2.96-.18-4.34-.73-.92-.37-2.05-1.09-2.39-1.81-.13-.27-.05-.5.13-.71-.17.19.22-.08.15-.06.08-.02.37.02.04-.03.31.04.19.02.53.23.24.15.47.3.7.47.54.38,1.05.8,1.65,1.09,1.63.81,3.4.78,5.18.86s3.55.09,5.25-.77c3.25-1.65,4.26-5.15,6.59-7.66l-4.27-1.77c.02,1.66.04,3.32.06,4.99,0,.62.16,1.48.02,2.09-.1.45-.4.69-.76,1.06l4.27,1.77c-.08-.96-.16-1.92-.24-2.88-.03-.41-.08-.82-.1-1.23-.01-.19-.01-.38,0-.56.03.22-.04.41-.21.59,2.3-2.26-1.23-5.79-3.54-3.54-1.98,1.94-1.13,5.17-.92,7.62.17,2.06,2.66,3.42,4.27,1.77s2.25-3.23,2.22-5.49c-.02-2.06-.05-4.12-.08-6.18s-2.76-3.39-4.27-1.77c-1.3,1.4-2.22,3.04-3.27,4.62-.7,1.05-1.64,2.21-2.85,2.41-.87.14-1.9-.05-2.78-.09-.46-.02-.92-.03-1.38-.06-.18-.01-.27,0-.44-.04-.07-.01-.57-.21-.35-.11-1.43-.71-2.44-1.92-4.08-2.26-4.59-.96-7.89,3.96-5.91,8.01,1.74,3.57,6.36,4.87,9.99,5.12,4.41.3,9.54-.04,12.91-3.23,2.34-2.22-1.2-5.75-3.54-3.54h0Z"/>
        </g>
      </g>
    </g>
    <g>
      <rect class="cls-2" x="244.45" y="297.87" width="6.92" height="100.58" rx="3.46" ry="3.46" transform="translate(67.21 735.49) rotate(-119.54)"/>
      <rect class="cls-2" x="218.91" y="339.87" width="6.92" height="27.28" rx="3.46" ry="3.46" transform="translate(-177.63 473.58) rotate(-74.54)"/>
      <rect class="cls-2" x="234.89" y="321.81" width="6.92" height="35.7" rx="3.46" ry="3.46" transform="translate(-152.56 478.81) rotate(-74.54)"/>
      <rect class="cls-2" x="246.98" y="342.03" width="6.92" height="35.7" rx="3.46" ry="3.46" transform="translate(395.85 773.51) rotate(-164.54)"/>
      <rect class="cls-2" x="227.12" y="352.61" width="6.92" height="27.28" rx="3.46" ry="3.46" transform="translate(355.16 780.73) rotate(-164.54)"/>
      <g>
        <g>
          <path class="cls-3" d="M272.56,354.78c.85,1.04,2.45,1.39,3.65.8.28-.14.55-.33.71-.61s.16-.65-.05-.89c-.29-.33-.82-.28-1.24-.15-.29.09-.59.21-.76.46-.18.27-.16.65-.02.95s.38.54.62.76c.21.2.43.39.7.48.41.13.87-.03,1.18-.31s.51-.68.64-1.09c.17-.52.24-1.1.03-1.6-.26-.62-.92-1-1.59-1.08s-1.34.08-1.97.29c-.34.11-.7.25-.91.54s-.2.77.12.95c.2-.31.36-.65.47-1,.14-.43.2-.94-.05-1.32-.32-.5-1-.59-1.59-.59-.16,0-.33.01-.44.12-.08.08-.12.2-.14.32-.09.5-.04,1.03.16,1.49.04.09.09.18.18.2.07.01.13-.02.19-.06.51-.36.67-1.11.42-1.69s-.85-.96-1.47-1.04c-.14-.02-.29-.02-.39.07-.09.07-.13.18-.15.29-.08.36-.07.73.04,1.08-.39-.69-.77-1.39-1.16-2.08.47.36.99.66,1.54.89.13.06.28.11.41.06.15-.05.24-.22.28-.37.13-.57-.19-1.13-.5-1.62.64.49,1.21,1.06,1.71,1.69-1.44-1.52-2.88-3.05-4.32-4.57-.11.94-.07,1.9.14,2.82.39.09.78.22,1.14.39-.46-.62-.81-1.33-1.01-2.07-.06-.2-.07-.48.13-.56.1-.04.22,0,.32.04.59.26,1.12.66,1.53,1.16-.05-.74-.2-1.47-.44-2.17.17.26.32.54.42.84-.93-1.14-1.51-2.57-1.65-4.04.07,1.04-.04,2.09-.33,3.09.56-1.44,1.14-2.88,1.74-4.31.3.58.27,1.3-.06,1.86-.35-.54-.42-1.26-.18-1.86-.21-.02-.38.15-.5.32-.55.76-.76,1.72-.84,2.66s-.06,1.89-.23,2.82c-.51-1.35-.86-2.77-1.01-4.2.08.58.11,1.16.08,1.75-.04-.58,0-1.16.15-1.73"/>
          <path class="cls-3" d="M270.79,356.54c1.93,2.2,6.05,2.59,7.96.13,1.23-1.59.94-3.86-.83-4.92-1.43-.86-3.74-.39-4.81.86-1.36,1.58-.93,3.66.42,5.07,1.27,1.33,3.05,1.82,4.74.96,1.43-.73,2.14-2.33,2.35-3.84.23-1.74-.61-3.4-2.15-4.25-1.68-.92-3.66-.63-5.35.09-2.02.85-3.11,3.8-1.19,5.39,1.24,1.03,3.03.96,3.93-.51.7-1.15,1.17-2.6.8-3.94-.4-1.49-1.7-2.45-3.19-2.65-1.73-.23-3.44.34-3.92,2.19-.39,1.46-.02,3.61,1.38,4.44,1.8,1.06,3.73-.19,4.37-1.96.5-1.4.13-2.9-.83-4s-2.53-1.65-3.9-1.33c-2.07.48-2.47,2.78-2.04,4.52l4.57-1.93c-.39-.69-.77-1.39-1.16-2.08l-3.42,3.42c1.41,1.03,3.29,1.89,4.86.67,1.68-1.3,1.26-3.56.29-5.13l-3.93,3.03c.63.5,1.2,1.06,1.71,1.69l3.54-3.54c-1.44-1.52-2.88-3.05-4.32-4.57-.69-.73-1.84-.89-2.73-.52-.98.41-1.43,1.26-1.54,2.28-.12,1.17,0,2.33.23,3.48.17.83.95,1.54,1.75,1.75.39.1.77.23,1.14.39.9.38,2.09-.2,2.63-.9.57-.73.77-1.97.2-2.78-.23-.32-.43-.64-.6-.99-.18-.37.09.28-.05-.12-.03-.08-.06-.16-.08-.25-.11-.4-.12-.15-.02.74l-.64,1.1.11-.09-1.77.73c-.78-.27-.94-.3-.51-.08.22.15.27.18.14.08-.12-.1-.08-.06.12.11.12.11.22.23.33.36,1.37,1.59,4.45.36,4.27-1.77-.08-.97-.23-1.92-.53-2.84l-4.57,1.93s.34.68.17.24l4.18-2.43c.25.32-.26-.43-.3-.51-.08-.14-.16-.29-.23-.43-.11-.25-.14-.3-.07-.15.07.15.05.09-.05-.16-.05-.16-.1-.31-.14-.47-.03-.1-.18-1.03-.12-.54-.14-1.3-1.05-2.57-2.5-2.5-1.3.06-2.57,1.1-2.5,2.5.02.47.03.95-.02,1.42.03-.25-.02.12-.03.18-.05.28-.12.55-.2.83-.35,1.26.43,2.78,1.75,3.08,1.43.33,2.57-.44,3.08-1.75.56-1.44,1.14-2.88,1.74-4.31l-4.57.6c-.11-.25-.19-.4-.06-.66h4.32c.19.35-.06-.24,0,.02.03.16-.08.5.07.04.28-.83-.04-1.83-.64-2.43-.67-.67-1.53-.81-2.43-.64-1.67.31-2.6,2.2-2.94,3.71-.16.73-.23,1.5-.28,2.25-.02.28-.03.57-.04.85-.01.19-.02.38-.04.56-.03.32-.04.37-.02.18h4.82c-.24-.64-.44-1.28-.61-1.94-.08-.31-.15-.62-.2-.93-.03-.18-.07-.36-.09-.53-.05-.31-.05-.36-.02-.14h-5c.07.58.1,1.16.08,1.75h5c-.01-.24-.02-.48,0-.73.04-.48-.12.48.06-.34.29-1.27-.39-2.77-1.75-3.08-1.27-.29-2.77.38-3.08,1.75-.18.79-.28,1.59-.24,2.39.07,1.3,1.1,2.56,2.5,2.5s2.45-1.1,2.5-2.5c.02-.59,0-1.16-.08-1.75-.16-1.29-1.04-2.57-2.5-2.5-1.22.05-2.66,1.11-2.5,2.5.2,1.67.52,3.29,1.1,4.87.37,1,1.25,1.89,2.41,1.84,1.02-.05,2.23-.73,2.41-1.84s.22-2.12.3-3.2c.01-.18.02-.36.05-.54-.06.39.05-.16.07-.23.05-.2.1-.42.18-.61l-.04.13c.33-.5.08-.37-.72.39l-3.08-3.08c-.42,1.28-.22,2.63.43,3.79.88,1.57,3.46,1.68,4.32,0,.76-1.49.71-2.87.06-4.38-.39-.9-1.62-1.31-2.49-1.19-1.07.14-1.68.84-2.08,1.79-.6,1.43-1.18,2.86-1.74,4.31l4.82,1.33c.33-1.22.49-2.49.42-3.75h-5c.24,2.21,1.01,4.06,2.38,5.8,1.52,1.94,5.06-.16,4.18-2.43-.19-.5-.39-.99-.67-1.44-.66-1.06-1.96-1.51-3.12-1.02-1.09.46-1.84,1.76-1.45,2.95.1.31.19.62.26.94.03.14.06.27.08.41-.03-.21-.02-.15,0,.16l4.27-1.77c-1.29-1.49-3.82-2.86-5.49-1.11-1.52,1.6-.48,4.04.61,5.57l2.82-3.67c-.37-.16-.75-.29-1.14-.39l1.75,1.75c-.04-.18-.08-.37-.1-.56.04.31,0-.24,0-.32-.01-.43.01-.85.05-1.27l-4.27,1.77c1.44,1.52,2.88,3.05,4.32,4.57.9.95,2.64.98,3.54,0,1-1.09.88-2.45,0-3.54-.51-.63-1.07-1.19-1.71-1.69-.99-.78-2.22-1.02-3.28-.2-.96.74-1.3,2.15-.64,3.23l.13.22c.13.25.16.3.1.16-.03-.05-.04-.1-.04-.16-.03-.28.02-.56.16-.82l.9-.9-.13.08,1.26-.34c.68.24.81.26.39.07-.11-.06-.23-.12-.34-.18-.26-.15-.5-.32-.74-.49-.85-.62-2.34-.36-3.03.39-.76.83-.95,2.03-.39,3.03.39.69.77,1.39,1.16,2.08.61,1.09,2.01,1.49,3.12,1.02s1.74-1.72,1.45-2.95c.03.12-.11.51-.14.55l-1.49,1.15-.73-.03c.24.07.27.08.09.02-.17-.14-.29-.13-.42-.36-.07-.13-.12-.32-.13-.47-.02-.21.04-.39.19-.54.23-.32.23-.37,0-.15l1.1-.64-.19.06,1.93.25-.11-.07.9.9.09.24c-.07-.27-.08-.33-.05-.17.07-.04-.22.65-.14.52l-.9.9.2-.1-1.26.34c.07,0,.58.04.64,0-.37.34-.88-.71-.92-.8-.2-.21-.27-.44-.19-.7-.03.11-.06.22-.1.33-.06.17-.05.14.04-.09-.07.13-.14.26-.22.39l3.93-.51c.65,1.6.48,2.51-.51,2.76l.21-.07c.19-.06.75-.22.79-.22-.14.02-.06.02.24,0-.19-.04-.21-.04-.05,0,.17.05.15.04-.08-.04-.09-.05-.16-.12-.2-.21-.05-.06-.22-.71-.12-.67l-.05.23c-.1.29-.09.3.03.03l-.1.19c.2-.21.2-.21,0,0,.48-.27,1.39-.72,1.81-.02-.09-.07-.17-.15-.25-.23-.12-.13-.12-.11-.02.04.16.37.06.73-.3,1.08.02.51-.16.83-.53.97.23-.05.25-.06.05-.03-.97.18-1.55-.55-1.76-2.18.73-.78.85-1.01.37-.71l.2-.1c-.29.07-.27.08.04.03h-.21c-.29,0-.28,0,.03.05l-.21-.05c-.27-.09-.27-.08,0,.04-.1-.04-.19-.1-.28-.15-.15-.1-.12-.07.08.08-.11-.09-.2-.2-.29-.31-.87-.99-2.66-.95-3.54,0-.96,1.05-.92,2.48,0,3.54h0Z"/>
        </g>
        <g>
          <path class="cls-3" d="M266.51,342.08c-.39,1.36-.31,2.82.03,4.19s.94,2.66,1.57,3.93c.8,1.6,1.67,3.17,2.82,4.54s2.61,2.51,4.31,3.06c.38.12.76.21,1.16.24,1.15.07,2.33-.49,2.94-1.46s.6-2.32-.08-3.24c-1-1.35-3-1.53-4.18-2.71-.35-.35-.61-.78-.87-1.2-.49-.8-.97-1.59-1.46-2.39-.27-.44-.54-.88-.73-1.36-.66-1.73-.13-3.69.68-5.35s1.91-3.2,2.45-4.97c-1.88,1-3.75,2.01-5.63,3.01-.5.27-1.02.55-1.4.97-.51.56-.75,1.31-.97,2.04,1.17-.52,2.34-1.05,3.51-1.57.66-.3,1.41-.7,1.53-1.42"/>
          <path class="cls-3" d="M264.1,341.41c-1.05,4.1.7,8.04,2.66,11.57,1.78,3.21,4.48,6.42,8.2,7.33,4.06,1,8.31-2.38,7.15-6.72-.51-1.92-2.03-3.09-3.75-3.9-.53-.25-1.16-.48-1.54-.87-.57-.59-.95-1.5-1.38-2.2s-1.11-1.5-1.2-2.35c-.09-.78.17-1.6.46-2.31.84-2.05,2.18-3.82,2.88-5.95s-1.85-3.8-3.67-2.82-3.76,1.99-5.63,3.01-2.89,2.45-3.52,4.5c-.7,2.28,1.81,3.66,3.67,2.82,2.29-1.03,5.39-1.79,6.19-4.49.92-3.09-3.91-4.41-4.82-1.33.19-.64.31-.26-.09-.21s-.89.41-1.26.57c-.85.38-1.69.76-2.54,1.14l3.67,2.82c.07-.23.17-.81.33-.99.45-.51,1.42-.81,2.01-1.12,1.5-.8,3-1.6,4.5-2.41l-3.67-2.82c-.66,1.99-1.98,3.7-2.76,5.65s-1.07,4.06-.38,6c.66,1.84,1.91,3.71,3.06,5.27.59.79,1.3,1.42,2.15,1.91.65.37,1.75.6,2.26,1.15s-.12.94-.69.87c-1.45-.19-2.81-1.5-3.7-2.57-1.17-1.42-2.02-3.14-2.8-4.79s-1.46-3.57-.98-5.43c.8-3.12-4.02-4.45-4.82-1.33h0Z"/>
        </g>
      </g>
      <g>
        <g>
          <path class="cls-3" d="M254.99,323.76c-.46-1.26.06-2.81,1.19-3.54.27-.17.57-.3.89-.29s.64.2.74.5c.14.42-.18.84-.51,1.14-.22.2-.48.4-.79.42-.33.02-.64-.2-.82-.47s-.27-.6-.33-.92c-.06-.28-.11-.57-.05-.85.1-.41.47-.73.88-.85s.85-.09,1.27,0c.53.12,1.06.35,1.39.79.39.54.38,1.3.11,1.92s-.75,1.1-1.26,1.54c-.27.24-.58.47-.94.5s-.77-.23-.75-.59c.37-.01.74.02,1.1.11.44.1.9.31,1.11.72.26.53,0,1.16-.31,1.67-.08.13-.18.27-.33.31-.11.03-.23,0-.34-.04-.48-.18-.9-.5-1.2-.91-.05-.07-.11-.17-.07-.26.02-.06.09-.1.15-.13.57-.26,1.3,0,1.66.51s.38,1.22.13,1.79c-.05.13-.13.26-.26.3-.11.04-.22.01-.33-.02-.35-.11-.67-.32-.91-.59.4.69.79,1.38,1.19,2.06-.07-.59-.06-1.19.03-1.78.02-.14.05-.29.16-.39.12-.1.31-.1.46-.05.55.18.87.74,1.14,1.26-.09-.8-.29-1.58-.57-2.33.57,2.02,1.13,4.04,1.7,6.06-.86-.38-1.66-.92-2.35-1.57.12-.38.21-.78.26-1.18.3.71.72,1.37,1.26,1.93.14.15.38.3.54.18.09-.07.12-.19.13-.3.08-.64.01-1.3-.21-1.9.61.42,1.16.93,1.64,1.5-.13-.28-.3-.55-.51-.79.5,1.39,1.42,2.62,2.61,3.49-.85-.59-1.81-1.04-2.82-1.3,1.53.26,3.06.5,4.59.72-.34-.55-.98-.9-1.62-.91.29.58.87,1.01,1.51,1.11-.09.19-.33.25-.53.27-.94.08-1.87-.24-2.72-.65s-1.65-.92-2.53-1.25c.89,1.14,1.93,2.16,3.08,3.03-.45-.37-.94-.69-1.46-.96.47.34,1,.59,1.56.76"/>
          <path class="cls-3" d="M257.4,323.09c-.04-.13-.07-.26-.11-.39.15.46.06.16.04-.03-.03-.29-.12.34,0,.07.05-.13.23-.51-.02-.07.06-.11.14-.23.2-.35-.08.17-.21.25-.01.04.3-.33-.22.07.06-.05.26-.13.12-.13-.43,0-.74.21-1.31-.13-1.69-1.01v-1.33c-.07.51.22-.21.26-.33-.19.17-.22.21-.09.1.27-.24.61-.22,1.03.05.57-.19.94-.07,1.11.36.15.3.19.34.12.13,0-.12-.07-.35-.11-.47-.06-.33-.07-.14-.02.59l-.32.57-.55.32h-.16c.07-.06.42.08.1,0l.23.06c.25.08.3.1.14.05-.18-.21-.42-.24-.48-.57-.03-.07-.03-.15,0-.22.03-.18.02-.15-.04.11.12-.09.13-.24-.04,0-.13.19-.18.18-.01.02-.11.1-.21.22-.31.32-.08.08-.16.15-.25.23-.11.09-.11.1,0,.01.05-.05.11-.08.19-.09.82-.26,1.56.13,2.22,1.17l-2.41,3.16s.79.04.44.02c.23.07.25.07.08,0-.12-.04-.22-.12-.3-.22l-.34-.6c.06-.75.03-.91-.08-.47l.06-.18c-.26.42-.11.29.46-.39l1.26-.34c.15,0,.29.03.42.08.17.06.14.04-.08-.08l.17.11c-.21-.23-.2-.21.04.05l.34,1.26v-.13c-.25.59-.49,1.18-.74,1.77l.15-.13-1.1.64c.55-.19-.33.03-.63-.11-.17-.08-.33-.2-.43-.35-.1-.15-.13-.29-.15-.46.06-.28.07-.33.02-.15-.09.32,0,.15.28-.5l1.77-.73c.18.02.36.07.53.14.2.18.2.18,0-.02-2-2.02-5.34.56-3.93,3.03.4.69.79,1.38,1.19,2.06.53.92,1.78,1.49,2.82,1.15.98-.32,1.94-1.3,1.84-2.41-.03-.3-.05-.59-.04-.89,0-.13,0-.25.02-.38.05-.46.01-.34-.13.37l-.9.9.14-.07-1.26.34c-.36-.03-.68-.17-.96-.42.16.17.18.18.05.04-.19-.28.18.36.21.42.49.94,1.82,1.47,2.82,1.15.95-.31,1.98-1.31,1.84-2.41-.14-1.04-.3-2.01-.66-3-.45-1.22-1.72-2.19-3.08-1.75-1.28.42-2.12,1.73-1.75,3.08.57,2.02,1.13,4.04,1.7,6.06l3.67-2.82c-.39-.18-.77-.38-1.13-.61-.14-.09-.29-.19-.42-.29.29.23-.29-.28-.28-.27l.64,2.43c.11-.39.2-.78.26-1.18l-4.57.6c.75,1.71,2.39,3.91,4.53,3.28,2.29-.67,2.39-3.4,1.76-5.3l-3.67,2.82c.24.17.27.19.08.06.13.11.25.22.37.33.24.23.46.47.68.72.81.94,2.36.91,3.28.2,1.01-.78,1.22-2.1.64-3.23-.24-.48-.57-.88-.9-1.3-.65-.83-2.18-.94-3.03-.39s-1.55,1.77-1.15,2.82c.79,2.07,2,3.65,3.76,4.98l2.52-4.32c-1.04-.7-2.21-1.22-3.42-1.55l-1.33,4.82c1.53.26,3.06.5,4.59.72,1.03.15,1.95-.02,2.63-.9.57-.74.77-1.97.2-2.78-.94-1.33-2.15-2.04-3.78-2.14-1.95-.12-3.04,2.2-2.16,3.76.63,1.13,1.73,1.99,3,2.26l-1.1-4.18c.25-.23.54-.37.85-.43.21-.03.17-.05-.13-.03.35.1-.08-.02-.22-.06-.21-.05-.41-.12-.61-.2.36.14-.34-.17-.34-.17-.97-.48-1.89-.99-2.9-1.39s-2.35.25-2.82,1.15c-.56,1.06-.33,2.12.39,3.03,1.05,1.31,2.26,2.4,3.59,3.42.98.76,2.55.23,3.23-.64s.79-2.51-.2-3.28c-.63-.5-1.26-.97-1.96-1.35-1.15-.63-2.78-.32-3.42.9s-.26,2.64.9,3.42c.66.45,1.4.77,2.16,1.01,1.24.4,2.78-.47,3.08-1.75.31-1.37-.41-2.64-1.75-3.08-.68-.22.31.22-.32-.12-.22-.12-.43-.25-.64-.39l-2.52,4.32c.22.12.44.24.65.38.07.04.63.45.31.19l3.03-3.93c.17.13.14.1-.09-.09-.13-.11-.26-.22-.39-.33-.25-.23-.5-.46-.74-.7-.48-.48-.93-.99-1.35-1.52l-2.43,4.18c-.2-.09-.16-.07.11.05.15.07.31.15.46.23.3.16.6.32.91.48.65.34,1.32.65,2.01.88,1.43.48,3.68.69,4.73-.66.57-.73.9-1.49.64-2.43-.22-.8-.91-1.56-1.75-1.75-.24-.07-.28-.07-.11,0,.16.08.13.06-.09-.06.1.1.43.53.19.1l-2.16,3.76c-.13,0-.55-.24-.34-.09.22.16-.17-.2-.2-.24l2.82-3.67c-1.53-.22-3.06-.46-4.59-.72-1.28-.22-2.75.34-3.08,1.75-.3,1.32.4,2.7,1.75,3.08.25.07.5.15.75.23l.24.09c-.16-.07-.16-.06,0,0,.43.21.84.45,1.24.72,1.09.73,2.82.24,3.42-.9.7-1.32.22-2.57-.9-3.42.38.29-.31-.3-.38-.37s-.64-.76-.36-.38c-.18-.25-.35-.51-.5-.79-.08-.14-.15-.27-.21-.41.09.24.09.23-.02-.05l-4.18,2.43c-.28-.36.1.25.11.29l3.93-3.03c-.63-.73-1.36-1.33-2.14-1.89-1.77-1.27-4.33.84-3.67,2.82.06.15.1.31.14.46.05.27.06.32.03.14-.03-.17-.03-.12-.01.15-.04.49.02.33.18-.48l1.49-1.15-.18.04h1.33l-.19-.08,1.1.64c-.12-.1-.23-.21-.34-.33.21.23-.09-.12-.15-.21-.21-.33-.38-.67-.54-1.02-.39-.9-1.61-1.31-2.49-1.19s-1.94.83-2.08,1.79c-.06.4-.14.79-.26,1.18-.24.83,0,1.84.64,2.43.85.79,1.8,1.47,2.85,1.96.94.43,1.92.47,2.78-.2.78-.6,1.17-1.65.9-2.63-.57-2.02-1.13-4.04-1.7-6.06l-4.82,1.33c.12.34.24.67.33,1.02.04.17.09.35.12.52.05.31.06.35.04.13l4.66-1.26c-.78-1.5-2.15-2.72-3.95-2.48-2.3.31-2.67,2.78-2.5,4.69l4.66-1.26c-.4-.69-.79-1.38-1.19-2.06l-3.93,3.03c1.25,1.27,3.3,1.96,4.77.61,1.06-.97,1.35-2.6,1.02-3.97s-1.53-2.57-2.95-2.9c-1.84-.42-4.07.63-4.02,2.75.04,1.62,1.51,2.81,2.9,3.36,1.61.64,3.21-.23,3.91-1.73s.8-3.22-.4-4.46c-1.01-1.05-2.46-1.4-3.88-1.4-1.77,0-2.66,1.59-2.41,3.16.33,2.1,2.81,2.81,4.53,2.08,1.19-.5,2.35-1.71,2.94-2.85.85-1.65.76-3.61-.45-5.05-.97-1.15-2.7-1.7-4.17-1.59-2.02.16-3.61,1.67-3.65,3.73-.03,1.78.96,3.66,2.69,4.26s3.57-.52,4.42-2.01c1.05-1.85.06-4.32-2.06-4.77-3.74-.8-6.28,3.71-5.25,6.9.4,1.24,1.75,2.17,3.08,1.75,1.24-.4,2.18-1.74,1.75-3.08h0Z"/>
        </g>
        <g>
          <path class="cls-3" d="M262.77,335.48c-1.37-.36-2.58-1.18-3.58-2.18s-1.8-2.18-2.56-3.37c-.96-1.51-1.86-3.06-2.44-4.75s-.81-3.53-.41-5.27c.09-.39.21-.77.39-1.12.53-1.02,1.62-1.75,2.76-1.78s2.3.67,2.74,1.73c.64,1.55-.23,3.35.18,4.98.12.48.35.93.59,1.37.43.83.86,1.65,1.3,2.48.24.46.48.92.8,1.32,1.14,1.46,3.1,2.01,4.94,2.16s3.73,0,5.53.45c-1.82,1.09-3.65,2.19-5.47,3.28-.49.29-.99.59-1.55.71-.74.15-1.51-.03-2.25-.22,1.05-.73,2.1-1.47,3.15-2.2.59-.42,1.33-.85,2-.58"/>
          <path class="cls-3" d="M263.43,333.07c-1.14-.33-2.07-1.06-2.92-2.01-.99-1.1-1.77-2.4-2.51-3.67s-1.38-2.56-1.73-4c-.27-1.13-.36-2.71.19-3.58.06-.09.37-.29.51-.3-.22.02.4.08.14.01-.23-.06.19.09.18.08-.21-.17.22.32-.05-.05.14.2.16.24.16.43s-.02.63-.05.91c-.06.74-.18,1.47-.13,2.22.13,1.83,1.09,3.36,1.92,4.95s1.58,2.83,2.98,3.85,3.19,1.41,4.9,1.61,3.55.01,5.28.4l-.6-4.57c-1.4.84-2.79,1.67-4.19,2.51-.61.36-1.23.86-1.88,1.12-.45.18-.76.02-1.28-.11l.6,4.57c.72-.5,1.43-1,2.15-1.5.33-.23.66-.48,1-.7.17-.12.35-.24.54-.34-.15,0-.31,0-.46.02,3.12.8,4.45-4.02,1.33-4.82-2.72-.7-5.02,1.59-7.08,3.04-.83.58-1.35,1.44-1.19,2.49.14.95.81,1.84,1.79,2.08,1.08.27,2.15.45,3.26.26,1.02-.18,1.91-.67,2.79-1.2,1.72-1.03,3.43-2.06,5.15-3.09s1.55-4.08-.6-4.57c-2.04-.46-4.12-.41-6.19-.54-.35-.02-.15,0-.59-.08-.37-.07-.73-.16-1.09-.28-.52-.17-.94-.39-1.32-.86-.32-.38-.76-1.36-1.07-1.96-.38-.73-1.01-1.66-1.14-2.32-.1-.53.06-1.48.11-2.17.08-.94.02-1.92-.3-2.81-1.58-4.44-7.73-4.61-10-.68-2.07,3.59-.71,8.25,1.11,11.63,2,3.71,4.67,7.62,8.92,8.86,3.1.9,4.42-3.93,1.33-4.82h0Z"/>
        </g>
      </g>
    </g>
    <g>
      <rect class="cls-2" x="245.76" y="226.66" width="6.92" height="100.58" rx="3.46" ry="3.46" transform="translate(-115.94 350.88) rotate(-59.46)"/>
      <rect class="cls-2" x="228.38" y="243.84" width="6.92" height="27.28" rx="3.46" ry="3.46" transform="translate(-56.96 66.06) rotate(-14.46)"/>
      <rect class="cls-2" x="248.35" y="246.56" width="6.92" height="35.7" rx="3.46" ry="3.46" transform="translate(-58.06 71.27) rotate(-14.46)"/>
      <rect class="cls-2" x="236.86" y="267.13" width="6.92" height="35.7" rx="3.46" ry="3.46" transform="translate(24.39 588.86) rotate(-104.46)"/>
      <rect class="cls-2" x="221.43" y="257.31" width="6.92" height="27.28" rx="3.46" ry="3.46" transform="translate(18.69 556.38) rotate(-104.46)"/>
      <g>
        <g>
          <path class="cls-3" d="M255.78,301.61c-.48,1.26.01,2.82,1.13,3.57.26.18.57.31.88.31s.64-.19.75-.49c.15-.42-.17-.85-.49-1.15-.22-.21-.48-.41-.78-.43-.33-.02-.64.19-.83.46s-.28.6-.35.92c-.07.28-.12.57-.06.85.09.42.46.74.86.87s.85.1,1.27.01c.53-.11,1.07-.33,1.4-.77.4-.53.4-1.3.15-1.91s-.73-1.12-1.23-1.56c-.27-.24-.57-.48-.93-.52s-.77.21-.76.57c.37.02.74-.01,1.11-.09.44-.1.91-.3,1.12-.7.27-.52.02-1.16-.28-1.67-.08-.13-.17-.28-.32-.32-.11-.03-.23,0-.34.04-.48.17-.91.48-1.21.89-.06.07-.11.17-.08.25.02.06.09.1.15.13.57.27,1.3.03,1.67-.48s.4-1.21.16-1.79c-.05-.13-.13-.26-.25-.31-.1-.04-.22-.02-.33.01-.35.11-.67.31-.92.58.41-.68.81-1.36,1.22-2.04-.08.59-.08,1.19,0,1.78.02.14.05.29.15.39.12.11.31.1.46.06.56-.17.88-.73,1.16-1.24-.11.8-.31,1.58-.61,2.32.6-2.01,1.2-4.02,1.81-6.03-.87.37-1.68.89-2.37,1.53.11.39.19.78.24,1.19.31-.71.75-1.36,1.29-1.91.15-.15.38-.3.55-.17.09.07.11.19.12.3.07.64-.01,1.3-.24,1.9.62-.41,1.18-.91,1.66-1.47-.14.28-.31.55-.52.78.53-1.38,1.47-2.59,2.67-3.44-.86.58-1.83,1.01-2.84,1.25,1.53-.23,3.06-.45,4.6-.64-.35.54-.99.89-1.64.88.3-.58.88-1,1.53-1.09-.09-.19-.32-.25-.53-.27-.94-.1-1.87.2-2.73.6s-1.67.89-2.56,1.21c.91-1.12,1.97-2.12,3.14-2.98-.46.36-.96.67-1.48.94.48-.33,1.01-.58,1.57-.73"/>
          <path class="cls-3" d="M253.37,300.94c-.9,2.63.61,6.32,3.52,6.93,2.04.43,4.14-.89,4.18-3.09.04-1.86-1.7-3.59-3.47-3.83-2-.27-3.5,1.35-3.92,3.17s.18,3.8,2.05,4.58c1.47.62,3.28.44,4.64-.39,1.58-.97,2.19-2.71,1.91-4.49-.26-1.61-1.5-3.01-2.8-3.92-1.74-1.21-4.71-.58-5.11,1.76-.28,1.6.67,3.13,2.41,3.16,1.35.03,2.95-.29,3.89-1.36,1.15-1.31,1.12-2.95.42-4.46s-2.27-2.35-3.9-1.75c-1.42.52-2.92,1.77-2.92,3.4,0,2.08,2.22,3.14,4.04,2.7,1.38-.33,2.53-1.4,2.92-2.78s.12-3.06-.96-4.07c-1.46-1.36-3.53-.64-4.79.59l3.93,3.03c.41-.68.81-1.36,1.22-2.04l-4.66-1.26c-.21,1.9.15,4.38,2.46,4.69,1.8.24,3.16-.96,3.97-2.45l-4.57-1.93c-.12.8-.32,1.57-.61,2.32l4.82,1.33c.6-2.01,1.2-4.02,1.81-6.03.29-.96-.12-2.03-.9-2.63-.85-.66-1.83-.62-2.78-.2-1.07.47-2.01,1.14-2.88,1.92-.66.58-.87,1.61-.64,2.43.03.1.21,1.02.15.52.13,1.07.68,2.15,1.84,2.41,1.01.23,2.36-.13,2.82-1.15.16-.35.35-.69.56-1.02.1-.15.2-.24.03-.05.15-.18.3-.33.48-.48l-1.1.64.19-.08h-1.33l.18.05-1.49-1.15c-.16-.81-.22-.97-.19-.48-.02.27-.02.32,0,.15.03-.17.02-.12-.04.14-.04.16-.09.31-.15.46-.7,2,1.91,4.04,3.67,2.82.79-.54,1.53-1.14,2.17-1.86l-3.93-3.03s-.41.63-.13.28l4.18,2.43c-.18.46.2-.37.25-.45.04-.08.56-.83.26-.45.19-.25.4-.47.63-.69.07-.07.77-.63.39-.35,1.05-.77,1.68-2.21.9-3.42-.71-1.09-2.25-1.66-3.42-.9-.4.26-.81.5-1.25.7-.41.18.5-.15-.25.08-.25.08-.5.15-.75.22-1.27.33-2.16,1.8-1.75,3.08.46,1.41,1.69,1.96,3.08,1.75,1.5-.23,2.57-.38,3.94-.55l-2.16-3.76c.12-.16.24-.22.39-.34.14-.04.14-.05,0,0-.18.05-.14.04.13-.02l2.16,3.76c.24-.41-.08.02-.17.11l.19-.11c-.26.11-.26.13.02.06,1.47-.29,2.43-2.42,1.49-3.67-.72-.96-1.5-1.42-2.69-1.51-.77-.06-1.57.06-2.31.27s-1.45.55-2.15.89c-.31.15-.61.31-.92.47-.15.08-.31.15-.46.22.21-.08.17-.07-.11.04l2.43,4.18c.43-.52.89-1.03,1.38-1.5.24-.24.5-.46.76-.69.13-.11.26-.22.39-.33-.17.13-.14.1.1-.07l-2.52-4.32c-.47.35-.96.66-1.48.94l2.52,4.32c.21-.14.42-.26.64-.38-.36.18.26-.08.33-.1,1.25-.38,2.17-1.77,1.75-3.08s-1.74-2.16-3.08-1.75c-.76.23-1.5.55-2.17.98-1.1.71-1.65,2.25-.9,3.42s2.18,1.55,3.42.9c.52-.27,1.01-.58,1.48-.94,1.04-.78,1.69-2.19.9-3.42-.67-1.03-2.3-1.73-3.42-.9-1.34,1-2.57,2.08-3.64,3.37-.69.83-1.03,2.04-.39,3.03.56.87,1.77,1.55,2.82,1.15s1.97-.86,2.92-1.35l.23-.11c-.16.06-.16.06,0,0,.2-.08.41-.15.61-.2.01,0,.78-.22.34-.07h.26c-.2-.02-.39-.08-.57-.17l-.9-.9.09.12,1.49-3.67c-1.28.25-2.37,1.12-3.02,2.24-.92,1.58.24,3.85,2.16,3.76,1.64-.08,2.84-.81,3.8-2.12,1.06-1.44-.35-3.99-2.16-3.76s-3.51.46-5.27.73l1.33,4.82c1.21-.31,2.39-.82,3.44-1.5l-2.52-4.32c-1.78,1.3-3,2.89-3.82,4.94-.39.98.25,2.35,1.15,2.82s2.32.49,3.03-.39c.34-.41.66-.82.91-1.29.59-1.11.36-2.45-.64-3.23-.93-.72-2.45-.74-3.28.2-.22.25-.45.48-.69.71-.12.11-.25.22-.38.32.18-.14.15-.13-.09.05l3.67,2.82c.65-1.86.58-4.8-1.81-5.32-2.12-.46-3.69,1.56-4.48,3.28l4.66,1.26c-.08-.63-.16-1.24-.32-1.85l-.64,2.43s.51-.42.34-.3c-.14.1.39-.25.38-.25.37-.23.75-.42,1.14-.59l-3.67-2.82c-.6,2.01-1.2,4.02-1.81,6.03-.38,1.25.45,2.78,1.75,3.08,1.43.33,2.57-.44,3.08-1.75.29-.75.49-1.52.61-2.32.19-1.25-.21-2.43-1.45-2.95-1.11-.47-2.53-.08-3.12,1.02-.04.07-.43.67-.22.42.12-.14.1-.13-.06.04.28-.25.6-.4.96-.43l1.26.34-.14-.07.9.9c.14.71.19.83.14.37,0-.13-.01-.25,0-.38,0-.3.02-.59.06-.89.11-1.04-.85-2.19-1.84-2.41-1.09-.25-2.24.17-2.82,1.15-.41.68-.81,1.36-1.22,2.04-1.47,2.46,1.9,5.01,3.93,3.03.21-.2.21-.2,0-.01-.17.08-.34.13-.53.16l-1.77-.73c-.22-.21-.33-.45-.33-.72,0-.2,0-.17,0,.08.07-.21.06-.37.21-.56.14-.17.33-.29.54-.35.16-.04.87.12.42-.05l1.1.64-.15-.13.73,1.77v-.13c-.11.42-.22.84-.33,1.26-.21.24-.24.28-.1.14.13-.12.1-.11-.09.04l.19-.11c-.17.08-.34.12-.52.13l-1.26-.34c-.54-.65-.71-.81-.52-.48.08.16.08.13-.01-.08.07.33.1.29.07-.13-.07-.51.16-.92.68-1.22l-.17.1c.29-.12.3-.14.04-.06.35.08-.41,0-.44,0l2.41,3.16c-2.51.25-3.28.64-2.32,1.17-.19-.14-.22-.16-.08-.04.16.2.38.36.55.56-.27-.32.04.09.11.22-.09-.22-.1-.25-.05-.08.04.18.04.15-.01-.11.05-.26.14-.37.28-.58.25-.17.26-.19.02-.04.25-.1.29-.12.12-.07-.1.03-.2.06-.3.08.24-.02.21-.03-.1-.02.72.28.97.3,1.11,1.33-.06.27-.06.32-.03.13.02-.12.05-.23.08-.35.15-.42.07-.33-.23.27l-1.91.23c-.2-.16-.2-.14.01.06-.05-2.22.49-3.13,1.64-2.71.36.13.39.11.09-.04.24.19.25.19.05,0l-.13-.15c.19.24.21.24.05,0-.15-.6,0,.48-.04-.15-.03-.59.06.4,0-.13.02-.29.01-.27-.02.07.03-.13.07-.26.12-.38.42-1.24-.48-2.79-1.75-3.08-1.39-.32-2.62.42-3.08,1.75h0Z"/>
        </g>
        <g>
          <path class="cls-3" d="M263.77,290.02c-1.37.34-2.6,1.14-3.62,2.12s-1.84,2.14-2.62,3.32c-.99,1.49-1.92,3.03-2.52,4.71s-.87,3.52-.5,5.26c.08.39.2.77.37,1.12.51,1.03,1.58,1.77,2.73,1.82s2.31-.63,2.77-1.69c.67-1.54-.17-3.36.27-4.97.13-.48.37-.92.61-1.36.45-.82.89-1.64,1.34-2.46.25-.45.5-.91.82-1.31,1.17-1.44,3.13-1.95,4.98-2.08s3.73.06,5.53-.35c-1.81-1.13-3.61-2.25-5.42-3.38-.48-.3-.98-.61-1.54-.73-.74-.17-1.51,0-2.25.18,1.04.75,2.08,1.51,3.11,2.26.59.43,1.31.87,1.99.61"/>
          <path class="cls-3" d="M263.1,287.61c-3.78,1.02-6.18,4.14-8.19,7.29-2.14,3.35-3.84,7.46-2.76,11.48s6.35,6.14,9.47,2.84c1.52-1.6,1.55-3.56,1.41-5.62-.05-.68-.06-1.12.16-1.58.42-.87.92-1.7,1.38-2.54.89-1.63,1.46-2.12,3.3-2.41-.26.04.22-.02.22-.02.34-.03.69-.05,1.03-.06.56-.02,1.11-.02,1.67-.03,1.27-.02,2.54-.12,3.79-.38,2.2-.45,2.32-3.5.6-4.57s-3.4-2.12-5.1-3.18c-.87-.54-1.75-1.05-2.77-1.24-1.1-.2-2.18-.02-3.26.23-.95.22-1.68,1.14-1.79,2.08-.13,1.06.35,1.88,1.19,2.49,2.06,1.5,4.27,3.78,7.03,3.13,1.31-.31,2.09-1.81,1.75-3.08-.37-1.34-1.76-2.06-3.08-1.75.64-.15.49.02-.06-.36-.32-.22-.62-.45-.93-.68-.73-.53-1.45-1.05-2.18-1.58l-.6,4.57c.5-.12.83-.25,1.26-.07.64.27,1.28.79,1.88,1.17,1.38.86,2.76,1.72,4.14,2.58l.6-4.57c-1.59.33-3.25.15-4.87.26s-3.21.43-4.67,1.18-2.5,2.01-3.29,3.45-1.68,2.77-2.15,4.27-.01,3.12-.14,4.55c0-.01-.13.45.04.12-.1.19-.21.22-.26.25-.08.04-.12.05-.19.04-.13,0-.21-.03-.35-.13-.24-.16-.3-.31-.4-.7-.18-.68-.2-1.43-.11-2.13.18-1.45.79-2.81,1.5-4.07.78-1.38,1.64-2.79,2.66-4s2.04-2.06,3.4-2.43c3.1-.84,1.79-5.67-1.33-4.82h0Z"/>
        </g>
      </g>
      <g>
        <g>
          <path class="cls-3" d="M273.89,270.9c.87-1.03,2.47-1.35,3.67-.74.28.14.55.34.69.62s.15.65-.06.89c-.29.33-.82.26-1.24.13-.29-.09-.59-.22-.75-.47-.18-.28-.15-.65,0-.95s.39-.53.63-.75c.21-.19.44-.38.71-.46.41-.12.87.04,1.18.34s.5.69.63,1.1c.16.52.23,1.1,0,1.6-.27.61-.94.98-1.6,1.05s-1.33-.1-1.97-.32c-.34-.12-.7-.27-.9-.56s-.19-.78.13-.95c.2.31.35.66.46,1.01.13.44.18.94-.07,1.32-.33.49-1.01.58-1.6.56-.16,0-.33-.02-.44-.13-.08-.08-.11-.2-.13-.32-.08-.5-.02-1.03.19-1.49.04-.08.09-.18.18-.19.07-.01.13.03.19.07.51.37.65,1.12.39,1.69s-.87.94-1.49,1.01c-.14.02-.29.01-.39-.07-.09-.07-.12-.19-.15-.3-.08-.36-.06-.74.06-1.08-.4.69-.8,1.37-1.2,2.06.48-.35,1-.64,1.56-.86.13-.05.28-.1.41-.05.15.05.24.22.27.38.12.57-.21,1.13-.53,1.61.64-.48,1.23-1.04,1.73-1.66-1.47,1.5-2.93,3-4.4,4.5-.1-.94-.03-1.9.19-2.82.39-.09.78-.21,1.15-.37-.47.61-.83,1.31-1.05,2.05-.06.2-.08.48.12.56.1.04.22,0,.32-.04.6-.25,1.13-.64,1.55-1.13-.06.74-.23,1.47-.48,2.16.18-.26.33-.54.43-.83-.95,1.13-1.56,2.54-1.72,4.01.09-1.04,0-2.09-.28-3.09.53,1.45,1.09,2.9,1.67,4.33.31-.57.3-1.3-.02-1.86-.36.54-.44,1.25-.21,1.86-.21.02-.38-.16-.5-.33-.54-.77-.73-1.74-.79-2.68s-.03-1.89-.18-2.82c-.54,1.34-.9,2.75-1.09,4.18.09-.58.13-1.16.11-1.74-.05.58-.01,1.16.12,1.73"/>
          <path class="cls-3" d="M275.66,272.67c.09-.11.19-.21.3-.3l-.17.14c.25-.13.24-.14-.03-.03.1-.04.2-.07.3-.1.18-.04.14-.05-.14,0,.11-.01.21-.02.32-.01.19,0,.14,0-.14-.05.1.02.21.04.31.07.17.05.14.03-.11-.06.47.31.35.08-.38-.69l1.61-2.21c.34.05.37.05.09-.02.66.29,1.18,2.48.63,2.35l.17-.18c.24-.21.24-.22,0-.05-.65-.03-.84.23-1.47-.24-.14-.21-.16-.24-.06-.09.09.16.08.12-.02-.11.04.1.07.21.1.32.04.18.05.15.02-.09,0,.3,0,.31.03.02l.07-.18c.12-.23.25-.25.43-.38-.27.07-.29.08-.06.02h-.28c.23.07-.49-.18-.59-.2-.2-.07-.18-.06.06.04-.92-.59-.87.27.14,2.58l-3.93-.51c.08.14.27.61.14.2.05.14.09.29.13.43-.09-.25-.03-.48.18-.7.08-.46.36-.74.83-.84-.23.06-.25.07-.06.04.2-.02.18-.02-.07,0-.48-.02-.27.05.63.21l.9.9.18.69c0-.28,0-.34-.02-.17-.02.12-.02.11.02-.04.06-.2.04-.16-.05.12l-.9.9.11-.07-1.93.25.19.07-1.1-.64c.33.28-.12-.21-.16-.33-.08-.23-.07-.48.02-.7s.18-.3.34-.45l.22-.08c-.44.11-.26.11.53.02l1.49,1.15s.19.45.16.55c.71-2.72-3.13-4.41-4.57-1.93-.4.69-.8,1.37-1.2,2.06-.54.92-.42,2.28.39,3.03s2.11,1.04,3.03.39c.24-.17.49-.33.75-.48.42-.24.36-.07-.04-.1l-1.26-.34.13.09-.9-.9c-.05-.07-.18-1-.14-.99.04-.11.03-.09-.04.04-.06.11-.13.22-.2.32-.57.9-.4,2.3.39,3.03s2.14,1.07,3.03.39c.82-.63,1.58-1.26,2.24-2.05.84-1,1.06-2.57,0-3.54-.99-.91-2.56-1-3.54,0-1.47,1.5-2.93,3-4.4,4.5l4.27,1.77c-.04-.43-.05-.85-.03-1.27.02-.49,0-.32.13-.88l-1.75,1.75c.4-.1.77-.22,1.15-.37l-2.82-3.67c-1.08,1.47-2.22,4-.65,5.55,1.72,1.69,4.17.43,5.51-1.07l-4.27-1.77c.03-.31-.09.47-.11.57-.08.32-.17.62-.28.93-.41,1.18.37,2.5,1.45,2.95,1.17.49,2.44.03,3.12-1.02.29-.45.48-.94.69-1.43.93-2.28-2.64-4.32-4.18-2.43-1.41,1.73-2.17,3.57-2.45,5.77h5c.09-1.26-.06-2.54-.37-3.76l-4.82,1.33c.54,1.45,1.09,2.9,1.67,4.33.38.95,1.01,1.65,2.08,1.79.9.12,2.09-.3,2.49-1.19.68-1.51.7-2.88-.02-4.38-.84-1.73-3.42-1.52-4.32,0-.67,1.15-.86,2.51-.46,3.79l3.08-3.08c.78.74,1.04.9.8.49-.07-.13-.08-.15-.03-.05.09.21-.1-.37-.12-.43s-.12-.68-.09-.43c.03.23-.03-.5-.03-.46-.06-1.08-.1-2.13-.25-3.2s-1.42-1.88-2.41-1.84c-1.19.05-1.99.76-2.41,1.84-.53,1.35-.89,2.74-1.09,4.18-.18,1.29.31,2.75,1.75,3.08,1.18.27,2.88-.36,3.08-1.75.11-.81.21-1.59.2-2.41-.02-1.31-1.13-2.56-2.5-2.5s-2.41,1.1-2.5,2.5c-.05.81.04,1.6.21,2.39.27,1.28,1.85,2.14,3.08,1.75,1.36-.44,2.03-1.7,1.75-3.08-.06-.3-.06-.56-.03-1.07h-5c0,.24,0,.49,0,.73,0,.05-.05.59-.01.35l4.82,1.33c.2-1.44.56-2.83,1.09-4.18h-4.82c-.03-.2-.03-.14,0,.18.01.19.02.38.03.56.01.28.02.57.03.85.03.75.1,1.51.25,2.25.31,1.53,1.23,3.38,2.9,3.73,1.78.37,3.68-1.15,3.08-3.08-.1-.31-.03-.2-.06.04-.01.12-.25.48.02.02h-4.32c-.13-.26-.09-.41.02-.66l4.57.6c-.58-1.44-1.13-2.88-1.67-4.33-.45-1.22-1.71-2.19-3.08-1.75s-2.09,1.72-1.75,3.08c.06.23.11.46.16.69.09.48-.02-.53.04.32.03.47.03.94,0,1.42-.09,1.31,1.22,2.56,2.5,2.5,1.5-.07,2.32-1.1,2.5-2.5-.06.49.12-.45.15-.54.04-.16.09-.31.15-.47.1-.25.12-.31.06-.16-.06.15-.04.1.08-.15.07-.15.15-.29.24-.43.05-.08.57-.81.32-.49l-4.18-2.43c.18-.44-.16.2-.18.24l4.57,1.93c.32-.92.47-1.86.57-2.83.22-2.15-2.89-3.31-4.27-1.77-.1.12-.21.24-.33.35-.2.18-.24.21-.12.11.12-.1.07-.08-.15.07-.44.21-.27.18.5-.09l1.77.73-.11-.09.64,1.1v.86c.02-.08.04-.16.07-.25l.09-.24c-.07.16-.06.17.01.01.19-.34.39-.66.62-.98,1.25-1.69-.85-4.46-2.82-3.67-.38.15-.76.27-1.15.37-.81.2-1.56.93-1.75,1.75-.26,1.14-.38,2.31-.28,3.48.09,1.02.56,1.87,1.54,2.28.91.38,2.03.2,2.73-.52,1.47-1.5,2.93-3,4.4-4.5l-3.54-3.54c-.23.27-.46.54-.72.79-.08.08-.71.63-.51.48l3.42,3.42c.99-1.55,1.41-3.84-.26-5.13-1.57-1.22-3.45-.38-4.88.63l3.42,3.42c.4-.69.8-1.37,1.2-2.06l-4.57-1.93c-.45,1.75-.04,4.04,2.02,4.53,1.4.33,2.95-.28,3.91-1.31,1.04-1.11,1.37-2.78.78-4.18-.69-1.64-2.56-2.85-4.28-1.78-1.43.89-1.72,2.91-1.41,4.44.34,1.68,2.02,2.42,3.58,2.25s3.01-.97,3.51-2.57c.43-1.37-.04-2.86-.74-4.06-.89-1.51-2.69-1.5-3.93-.51-1.7,1.37-1.02,3.9.51,5.03,1.28.94,3.23,1.25,4.77.96s2.94-1.54,3.34-3.11-.15-3.44-1.23-4.64c-1.21-1.35-3.2-1.6-4.73-.69s-2.6,2.65-2.23,4.43,2.25,2.85,3.95,2.78c2.11-.08,3.62-1.92,3.14-4.02-.45-1.94-2.47-2.92-4.3-3.03-1.58-.1-3.26.6-4.32,1.77-.88.97-1.03,2.59,0,3.54.96.88,2.59,1.03,3.54,0h0Z"/>
        </g>
        <g>
          <path class="cls-3" d="M267.62,283.49c-.37-1.36-.26-2.82.11-4.19s.99-2.65,1.64-3.9c.83-1.58,1.72-3.14,2.9-4.49s2.65-2.47,4.36-2.99c.38-.12.77-.2,1.16-.22,1.15-.05,2.32.53,2.92,1.51s.56,2.33-.14,3.24c-1.02,1.33-3.02,1.47-4.22,2.64-.36.35-.63.77-.89,1.19-.5.79-1,1.57-1.5,2.36-.28.44-.56.87-.75,1.35-.69,1.72-.2,3.69.59,5.36s1.85,3.23,2.37,5.01c-1.86-1.04-3.72-2.07-5.58-3.11-.5-.28-1.01-.56-1.39-.99-.5-.57-.72-1.33-.93-2.06,1.16.54,2.32,1.09,3.48,1.63.66.31,1.4.73,1.5,1.45"/>
          <path class="cls-3" d="M270.03,282.83c-.45-1.9.3-3.79,1.14-5.48s1.66-3.31,2.86-4.67c.92-1.04,2.28-2.34,3.76-2.47.3-.03.65.07.77.24.21.3.07.46-.18.67-.48.42-1.38.65-1.99.95-.89.44-1.67,1.04-2.29,1.82-1.26,1.56-2.61,3.55-3.31,5.44s-.43,4.12.29,6.01,2.04,3.69,2.66,5.7l3.67-2.82c-1.49-.83-2.97-1.66-4.46-2.48-.54-.3-1.29-.57-1.75-.98-.34-.3-.39-.72-.53-1.19l-3.67,2.82c.84.39,1.68.79,2.52,1.18.37.17.75.34,1.11.52.55.28.35.38.21-.12.86,3.1,5.68,1.78,4.82-1.33-.74-2.68-3.89-3.52-6.13-4.57-1.88-.88-4.32.58-3.67,2.82.6,2.08,1.58,3.47,3.47,4.54s3.72,2.07,5.58,3.11,4.34-.68,3.67-2.82c-.6-1.93-1.68-3.61-2.53-5.43-.59-1.26-.98-2.62-.23-3.87.47-.8.99-1.57,1.49-2.35.42-.67.67-1.15,1.34-1.52,1.52-.82,3.07-1.31,4.1-2.82,2.45-3.59-.45-8.41-4.63-8.51-3.93-.1-7.24,3.08-9.27,6.12-2.47,3.71-4.69,8.3-3.63,12.83.73,3.13,5.56,1.81,4.82-1.33h0Z"/>
        </g>
      </g>
    </g>
    <rect class="cls-2" x="295.32" y="277.85" width="6.92" height="28.6" rx="3.46" ry="3.46" transform="translate(703.6 395.76) rotate(150)"/>
    <rect class="cls-2" x="319.47" y="277.87" width="6.92" height="28.29" rx="3.46" ry="3.46" transform="translate(456.59 706.36) rotate(-150)"/>
    <rect class="cls-2" x="295.37" y="320.45" width="6.92" height="28.49" rx="3.46" ry="3.46" transform="translate(390.28 773.97) rotate(-150)"/>
    <rect class="cls-2" x="319.45" y="320.27" width="6.92" height="28.69" rx="3.46" ry="3.46" transform="translate(769.86 462.93) rotate(150)"/>
    <rect class="cls-2" x="332.21" y="299.2" width="6.92" height="28.4" rx="3.46" ry="3.46" transform="translate(22.28 649.07) rotate(-90)"/>
    <rect class="cls-2" x="282.78" y="298.91" width="6.92" height="28.97" rx="3.46" ry="3.46" transform="translate(-27.16 599.64) rotate(-90)"/>
    <path class="cls-2" d="M324.44,309.97c-.58-2.71-1.93-5.14-3.81-7.05-1.63-1.65-3.65-2.9-5.91-3.61-1.36-.43-2.8-.65-4.29-.65-1.25,0-2.47.16-3.63.46-2.3.6-4.38,1.76-6.07,3.32-2.13,1.96-3.67,4.56-4.3,7.5-.21.98-.33,2-.33,3.05,0,1.34.19,2.64.53,3.87.77,2.76,2.35,5.18,4.47,7,1.75,1.5,3.86,2.59,6.19,3.11,1.01.23,2.06.35,3.14.35,1.37,0,2.7-.2,3.96-.56,2.28-.65,4.32-1.86,5.99-3.46,1.82-1.76,3.18-4,3.87-6.51.33-1.21.51-2.49.51-3.8,0-1.03-.11-2.04-.32-3.01ZM310.08,320.33c-4.06,0-7.35-3.29-7.35-7.35s3.29-7.35,7.35-7.35,7.35,3.29,7.35,7.35-3.29,7.35-7.35,7.35Z"/>
    <circle class="cls-2" cx="309.65" cy="312.76" r="8.18"/>
  </g>
  <g id="sol">
    <circle class="cls-2" cx="309.65" cy="681.78" r="61.25"/>
    <rect class="cls-2" x="309.03" y="568.88" width="6.52" height="40.46" rx="3.26" ry="3.26"/>
    <rect class="cls-2" x="356.77" y="582.61" width="6.52" height="40.46" rx="3.26" ry="3.26" transform="translate(383.19 -98.94) rotate(32.74)"/>
    <rect class="cls-2" x="387.63" y="617.5" width="6.52" height="40.46" rx="3.26" ry="3.26" transform="translate(747.73 -19.66) rotate(60)"/>
    <rect class="cls-2" x="259.71" y="581.03" width="6.52" height="40.46" rx="3.26" ry="3.26" transform="translate(824.93 940.18) rotate(144.72)"/>
    <rect class="cls-2" x="225.58" y="617.5" width="6.52" height="40.46" rx="3.26" ry="3.26" transform="translate(889.02 790.11) rotate(122.74)"/>
    <rect class="cls-2" x="387.63" y="703.85" width="6.52" height="40.46" rx="3.26" ry="3.26" transform="translate(1213.4 747.6) rotate(120)"/>
    <rect class="cls-2" x="359.32" y="736.92" width="6.52" height="40.46" rx="3.26" ry="3.26" transform="translate(1114.22 1130.98) rotate(142.03)"/>
    <rect class="cls-2" x="229.35" y="713.65" width="6.52" height="40.46" rx="3.26" ry="3.26" transform="translate(751.86 165.49) rotate(60)"/>
    <rect class="cls-2" x="264.72" y="744.51" width="6.52" height="40.46" rx="3.26" ry="3.26" transform="translate(418.27 -31.53) rotate(30)"/>
    <rect class="cls-2" x="397.4" y="663.2" width="6.52" height="40.46" rx="3.26" ry="3.26" transform="translate(-282.77 1084.08) rotate(-90)"/>
    <rect class="cls-2" x="214.04" y="665.72" width="6.52" height="40.46" rx="3.26" ry="3.26" transform="translate(-468.65 903.25) rotate(-90)"/>
    <rect class="cls-2" x="314.12" y="754.19" width="6.52" height="40.46" rx="3.26" ry="3.26" transform="translate(689.38 1524.13) rotate(175.9)"/>
  </g>
  <g id="Layer_7" data-name="Layer 7">
    <path class="cls-1" d="M687.58,568.23c3.8.08,13.24,31.96,12.11,35.5-.91,2.84,5.82-11.22,8.44-10.64,7.12,1.59,4.49,27.98,3.85,30.18-.64,2.2,4.58-4.21,6.7-3.39,2.6,1.01,2.03,9.43.73,15.32-1.5,6.84-4.86,12.27-7.89,18.62-1.08,2.26-3.21,5.06-4.71,9.18-.14.39-.22,1.95.39,1.82,1.08-.22,2.97-4.3,7.34-10.92,0,0,3.24-4.91,9.45-11.1,2.2-2.2,4.57-4.26,4.95-3.3.76,1.9.26,4.87.55,5.87.4,1.39,4.78-3.92,10.64-9.17.49-.43,8.19-5.82,10.73-5.04,1.74.53-.36,8.16-1.93,10.37-2.45,3.46,24.8-12.94,28.25-11.83,2.98.95-11.72,23.07-15.87,25.96-2.05,1.43,9.58-1.71,10.36-.3,1.34,2.42-13.04,15.39-17.98,18.83-1.54,1.07,4.98.56,5.5,2.11.73,2.17-6.43,7.35-14.22,10.37-5.99,2.32-7.37,1.42-16.79,4.49-2.88.94-11.09,3.62-10.82,4.95.16.82,3.52.92,5.87.73,6.54-.53,8.38-3.55,15.04-5.6,6.55-2.01,13.06-1.62,13.39-.37.23.89-2.66,2.02-2.38,2.84.36,1.11,5.75-.47,12.84.92,1.75.34,4.97.97,5.14,2.29.22,1.79-7.1,4.06-5.41,4.68,4.24,1.56,20.16,5.23,20.09,7.34-.07,2.1-13.23,5.11-20.55,5.96-2.05.24,5.62,3.9,5.23,5.23-.64,2.17-12.07,2.19-17.7,1.65-1.21-.12,1.64,2.29,1.19,3.3-.76,1.71-7.98,1.63-14.4-1.47-5.82-2.8-9.01-7.14-15.23-7.89-1.26-.15-2.24-.11-2.48.37-.18.37-.05,1.31,5.69,6.05,4.93,4.07,7.83,5.86,7.43,6.97-.36,1-3.02.35-3.39,1.38-.48,1.34,3.77,3.11,6.88,8.07.39.62,2.45,3.91,1.56,4.86-1.03,1.1-6.03-2.4-5.96-1.01s2.04,4.42,5.59,11.84c2.31,4.83,1.81,5.37,1.56,5.59-1.55,1.33-12.54-7.38-15.87-9.63-1.27-.86.82,5.03-.09,5.5-1.56.81-8.53-5.35-11.28-9.63-.66-1.03-.83,2.13-1.74,2.38-3.12.86-7.72-15.52-18.16-20.91-2.33-1.21-3.49.43-4.86.18-16.67-2.94-5.8-159.68,2.2-159.51Z"/>
    <path class="cls-1" d="M687.81,568.23c-3.8.08-13.24,31.96-12.11,35.5.91,2.84-5.82-11.22-8.44-10.64-7.12,1.59-4.49,27.98-3.85,30.18.64,2.2-4.58-4.21-6.7-3.39-2.6,1.01-2.03,9.43-.73,15.32,1.5,6.84,4.86,12.27,7.89,18.62,1.08,2.26,3.21,5.06,4.71,9.18.14.39.22,1.95-.39,1.82-1.08-.22-2.97-4.3-7.34-10.92,0,0-3.24-4.91-9.45-11.1-2.2-2.2-4.57-4.26-4.95-3.3-.76,1.9-.26,4.87-.55,5.87-.4,1.39-4.78-3.92-10.64-9.17-.49-.43-8.19-5.82-10.73-5.04-1.74.53.36,8.16,1.93,10.37,2.45,3.46-24.8-12.94-28.25-11.83-2.98.95,11.72,23.07,15.87,25.96,2.05,1.43-9.58-1.71-10.36-.3-1.34,2.42,13.04,15.39,17.98,18.83,1.54,1.07-4.98.56-5.5,2.11-.73,2.17,6.43,7.35,14.22,10.37,5.99,2.32,7.37,1.42,16.79,4.49,2.88.94,11.09,3.62,10.82,4.95-.16.82-3.52.92-5.87.73-6.54-.53-8.38-3.55-15.04-5.6-6.55-2.01-13.06-1.62-13.39-.37-.23.89,2.66,2.02,2.38,2.84-.36,1.11-5.75-.47-12.84.92-1.75.34-4.97.97-5.14,2.29-.22,1.79,7.1,4.06,5.41,4.68-4.24,1.56-20.16,5.23-20.09,7.34.07,2.1,13.23,5.11,20.55,5.96,2.05.24-5.62,3.9-5.23,5.23.64,2.17,12.07,2.19,17.7,1.65,1.21-.12-1.64,2.29-1.19,3.3.76,1.71,7.98,1.63,14.4-1.47,5.82-2.8,9.01-7.14,15.23-7.89,1.26-.15,2.24-.11,2.48.37.18.37.05,1.31-5.69,6.05-4.93,4.07-7.83,5.86-7.43,6.97.36,1,3.02.35,3.39,1.38.48,1.34-3.77,3.11-6.88,8.07-.39.62-2.45,3.91-1.56,4.86,1.03,1.1,6.03-2.4,5.96-1.01-.07,1.36-2.04,4.42-5.59,11.84-2.31,4.83-1.81,5.37-1.56,5.59,1.55,1.33,12.54-7.38,15.87-9.63,1.27-.86-.82,5.03.09,5.5,1.56.81,8.53-5.35,11.28-9.63.66-1.03.83,2.13,1.74,2.38,3.12.86,7.72-15.52,18.16-20.91,2.33-1.21,3.49.43,4.86.18,16.67-2.94,5.8-159.68-2.2-159.51Z"/>
    <polygon class="cls-1" points="684.42 792.46 690.85 792.46 689.42 724.66 685.49 724.66 684.42 792.46"/>
  </g>
  <g id="Layer_9" data-name="Layer 9">
    <path class="cls-3" d="M704.19,266.89c0,23.82-11.72,44.07-28.09,51.59-16.37-7.51-28.09-27.77-28.09-51.59s11.72-44.07,28.09-51.59c16.37,7.51,28.09,27.77,28.09,51.59Z"/>
    <path class="cls-3" d="M704.19,266.89c0,23.82-11.72,44.07-28.09,51.59-16.37-7.51-28.09-27.77-28.09-51.59s11.72-44.07,28.09-51.59c16.37,7.51,28.09,27.77,28.09,51.59Z"/>
    <path class="cls-3" d="M707.35,274.74c-4.02,23.24-16.92,40.24-31.41,43.71-11.95-11.19-18.01-33.72-13.98-56.95,4.02-23.24,16.92-40.24,31.41-43.71,11.95,11.19,18.01,33.72,13.98,56.95Z"/>
    <path class="cls-3" d="M700.96,409.43c-6.46,12.98-15.09,22.79-22.47,26.5-1.19.6-2.34,1.04-3.45,1.31-.96-2.23-1.44-5.08-1.44-8.39,0-6.17,1.65-13.91,4.89-22.05.92-2.31,1.96-4.66,3.13-7,7.5-15.06,17.92-25.86,25.92-27.8,3.27,7.55.92,22.38-6.59,37.43Z"/>
    <path class="cls-3" d="M645.57,274.46c4.02,23.24,16.52,40.35,30.46,43.99,11.4-11.03,17.06-33.44,13.04-56.68s-16.52-40.35-30.46-43.99c-11.4,11.03-17.06,33.44-13.04,56.68Z"/>
    <path class="cls-3" d="M678.49,317.21v118.72c-1.19.6-2.34,1.04-3.45,1.31h-1.44v-120.03h4.89Z"/>
  </g>
  <g id="ssoner">
    <rect class="cls-1" x="496.95" y="164.5" width="19.76" height="671" rx="9.87" ry="9.87"/>
    <rect class="cls-1" x="496.36" y="164.5" width="20.95" height="671" rx="10.47" ry="10.47" transform="translate(6.83 1006.83) rotate(-90)"/>
  </g>
</svg>