<?xml version="1.0" encoding="UTF-8"?>
<svg id="Layer_12" data-name="Layer 12" xmlns="http://www.w3.org/2000/svg" viewBox="0 0 1000 1000">
  <defs>
    <style>
      .cls-1 {
        stroke-width: 2px;
      }

      .cls-1, .cls-2 {
        fill: #a5a2ae;
        stroke: #fff;
        stroke-miterlimit: 10;
      }
    </style>
  </defs>
  <polygon class="cls-1" points="540.99 626.69 421.47 626.69 421.47 717.97 404.45 717.7 404.45 626.69 284.92 626.69 337.74 531.65 306.51 531.65 359.73 435.9 328.48 435.9 380.02 343.19 347.06 343.19 412.96 224.64 478.85 343.19 445.9 343.19 497.44 435.9 466.18 435.9 519.4 531.65 488.17 531.65 540.99 626.69"/>
  <g>
    <polygon class="cls-2" points="667.26 595.7 568.58 595.7 568.58 671.08 554.51 670.86 554.51 595.7 455.83 595.7 499.44 517.22 473.65 517.22 517.59 438.17 491.78 438.17 534.33 361.61 507.13 361.61 561.54 263.72 615.96 361.61 588.74 361.61 631.29 438.17 605.5 438.17 649.44 517.22 623.65 517.22 667.26 595.7"/>
    <polygon class="cls-2" points="568.89 652.52 496.92 652.52 496.92 707.49 486.66 707.32 486.66 652.52 414.67 652.52 446.49 595.27 427.69 595.27 459.73 537.61 440.91 537.61 471.93 481.78 452.1 481.78 491.78 410.38 531.48 481.78 511.63 481.78 542.67 537.61 523.84 537.61 555.89 595.27 537.08 595.27 568.89 652.52"/>
  </g>
  <polygon class="cls-2" points="623.46 680.04 568.94 680.04 568.94 721.67 561.17 721.54 561.17 680.04 506.67 680.04 530.77 636.68 516.51 636.68 540.78 593.02 526.53 593.02 550.04 550.72 535 550.72 565.06 496.66 595.11 550.72 580.08 550.72 603.59 593.02 589.34 593.02 613.61 636.68 599.36 636.68 623.46 680.04"/>
</svg>