<svg width="148" height="149" viewBox="0 0 148 149" fill="none" xmlns="http://www.w3.org/2000/svg">
<path d="M74.5827 114.714C96.6044 114.714 114.456 96.8622 114.456 74.8405C114.456 52.8189 96.6044 34.9668 74.5827 34.9668C52.5611 34.9668 34.709 52.8189 34.709 74.8405C34.709 96.8622 52.5611 114.714 74.5827 114.714Z" fill="#BA8A3F" stroke="#BA8A3F" stroke-miterlimit="10"/>
<path d="M78.4232 3.46406C78.4232 2.29197 77.4731 1.3418 76.301 1.3418C75.1289 1.3418 74.1787 2.29197 74.1787 3.46406V25.559C74.1787 26.7311 75.1289 27.6813 76.301 27.6813C77.4731 27.6813 78.4232 26.7311 78.4232 25.559V3.46406Z" fill="#BA8A3F" stroke="#BA8A3F" stroke-miterlimit="10"/>
<path d="M115.114 15.3072C115.748 14.3213 115.463 13.0082 114.477 12.3743C113.491 11.7404 112.178 12.0258 111.544 13.0117L99.5946 31.5965C98.9607 32.5823 99.246 33.8955 100.232 34.5294C101.218 35.1633 102.531 34.8779 103.165 33.892L115.114 15.3072Z" fill="#BA8A3F" stroke="#BA8A3F" stroke-miterlimit="10"/>
<path d="M138.095 42.4753C139.11 41.8892 139.458 40.5913 138.872 39.5762C138.286 38.5612 136.988 38.2134 135.973 38.7994L116.838 49.8469C115.823 50.4329 115.475 51.7309 116.061 52.746C116.647 53.761 117.945 54.1088 118.96 53.5227L138.095 42.4753Z" fill="#BA8A3F" stroke="#BA8A3F" stroke-miterlimit="10"/>
<path d="M48.8523 32.6468C49.5292 33.6036 50.8537 33.8305 51.8105 33.1535C52.7673 32.4765 52.9942 31.1521 52.3172 30.1953L39.5558 12.1583C38.8788 11.2015 37.5544 10.9746 36.5975 11.6516C35.6407 12.3286 35.4138 13.653 36.0908 14.6098L48.8523 32.6468Z" fill="#BA8A3F" stroke="#BA8A3F" stroke-miterlimit="10"/>
<path d="M30.1205 53.899C31.1064 54.5329 32.4195 54.2475 33.0534 53.2617C33.6873 52.2758 33.4019 50.9627 32.4161 50.3288L13.8313 38.3792C12.8454 37.7453 11.5323 38.0307 10.8984 39.0165C10.2645 40.0024 10.5498 41.3155 11.5357 41.9494L30.1205 53.899Z" fill="#BA8A3F" stroke="#BA8A3F" stroke-miterlimit="10"/>
<path d="M135.972 109.74C136.987 110.326 138.285 109.978 138.871 108.963C139.457 107.948 139.109 106.65 138.094 106.064L118.959 95.0164C117.944 94.4304 116.646 94.7781 116.06 95.7932C115.474 96.8083 115.822 98.1062 116.837 98.6923L135.972 109.74Z" fill="#BA8A3F" stroke="#BA8A3F" stroke-miterlimit="10"/>
<path d="M114.145 133.934C114.866 134.858 116.199 135.023 117.123 134.302C118.047 133.581 118.212 132.247 117.491 131.323L103.897 113.905C103.176 112.981 101.842 112.816 100.918 113.538C99.994 114.259 99.8296 115.592 100.551 116.516L114.145 133.934Z" fill="#BA8A3F" stroke="#BA8A3F" stroke-miterlimit="10"/>
<path d="M35.0558 105.069C36.0709 104.483 36.4187 103.185 35.8326 102.17C35.2466 101.155 33.9486 100.807 32.9336 101.393L13.7988 112.441C12.7837 113.027 12.4359 114.325 13.022 115.34C13.608 116.355 14.906 116.703 15.9211 116.116L35.0558 105.069Z" fill="#BA8A3F" stroke="#BA8A3F" stroke-miterlimit="10"/>
<path d="M54.8154 120.343C55.4015 119.328 55.0537 118.03 54.0386 117.444C53.0236 116.858 51.7256 117.206 51.1396 118.221L40.0921 137.356C39.506 138.371 39.8538 139.669 40.8689 140.255C41.884 140.841 43.1819 140.493 43.7679 139.478L54.8154 120.343Z" fill="#BA8A3F" stroke="#BA8A3F" stroke-miterlimit="10"/>
<path d="M122.782 73.7848C121.61 73.7848 120.66 74.7349 120.66 75.907C120.66 77.0791 121.61 78.0293 122.782 78.0293H144.877C146.049 78.0293 147 77.0791 147 75.907C147 74.7349 146.049 73.7848 144.877 73.7848H122.782Z" fill="#BA8A3F" stroke="#BA8A3F" stroke-miterlimit="10"/>
<path d="M3.41524 75.4313C2.24314 75.4313 1.29297 76.3814 1.29297 77.5535C1.29297 78.7256 2.24314 79.6758 3.41524 79.6758H25.5102C26.6823 79.6758 27.6324 78.7256 27.6324 77.5535C27.6324 76.3814 26.6823 75.4313 25.5102 75.4313H3.41524Z" fill="#BA8A3F" stroke="#BA8A3F" stroke-miterlimit="10"/>
<path d="M78.3289 146.296C78.4128 147.465 79.4284 148.345 80.5975 148.261C81.7666 148.177 82.6464 147.162 82.5626 145.993L80.9829 123.954C80.8991 122.785 79.8834 121.905 78.7143 121.989C77.5452 122.073 76.6654 123.089 76.7492 124.258L78.3289 146.296Z" fill="#BA8A3F" stroke="#BA8A3F" stroke-miterlimit="10"/>
</svg>
