<?xml version="1.0" encoding="UTF-8"?><svg id="Layer_1" xmlns="http://www.w3.org/2000/svg" width="81" height="39" viewBox="0 0 81 39"><defs><style>.cls-1{fill:none;stroke:#fff;stroke-miterlimit:10;stroke-width:3px;}.cls-2{fill:#517d5b;stroke-width:0px;}</style></defs><rect class="cls-2" x="1.5" y="1.5" width="78" height="36" rx="9.04" ry="9.04"/><path class="cls-2" d="m70.46,2c4.71,0,8.54,3.83,8.54,8.54v17.93c0,4.71-3.83,8.54-8.54,8.54H10.54c-4.71,0-8.54-3.83-8.54-8.54V10.54C2,5.83,5.83,2,10.54,2h59.93m0-1H10.54C5.27,1,1,5.27,1,10.54v17.93c0,5.27,4.27,9.54,9.54,9.54h59.93c5.27,0,9.54-4.27,9.54-9.54V10.54c0-5.27-4.27-9.54-9.54-9.54h0Z"/><line class="cls-1" x1="16" y1="19.5" x2="61.5" y2="19.5"/><line class="cls-1" x1="23.5" y1="30.5" x2="14.82" y2="18.5"/><line class="cls-1" x1="14.74" y1="20.49" x2="23.5" y2="8.5"/></svg>