<svg width="43" height="145" viewBox="0 0 43 145" fill="none" xmlns="http://www.w3.org/2000/svg">
<path d="M39.4277 33.7453C39.4277 49.2521 31.7979 62.4348 21.1411 67.3303C10.4842 62.4413 2.85449 49.2521 2.85449 33.7453C2.85449 18.2384 10.4842 5.05568 21.1411 0.160156C31.7979 5.04917 39.4277 18.2384 39.4277 33.7453Z" fill="#2A6238"/>
<path d="M39.4277 33.7453C39.4277 49.2521 31.7979 62.4348 21.1411 67.3303C10.4842 62.4413 2.85449 49.2521 2.85449 33.7453C2.85449 18.2384 10.4842 5.05568 21.1411 0.160156C31.7979 5.04917 39.4277 18.2384 39.4277 33.7453Z" fill="#2A6238"/>
<path d="M41.485 38.8557C38.8679 53.9849 30.4701 65.0519 21.0371 67.3109C13.2576 60.0262 9.31257 45.3592 11.9361 30.2365C14.5531 15.1072 22.951 4.04022 32.384 1.78125C40.1634 9.06594 44.1085 23.733 41.485 38.8557Z" fill="#2A6238"/>
<path d="M37.3251 126.539C33.1196 134.989 27.5015 141.375 22.6971 143.79C21.9224 144.181 21.1737 144.467 20.4511 144.643C19.8262 143.191 19.5137 141.336 19.5137 139.181C19.5137 135.165 20.5878 130.126 22.6971 124.827C23.296 123.323 23.973 121.793 24.7347 120.27C29.6172 110.466 36.4006 103.435 41.6086 102.172C43.7374 107.087 42.2076 116.741 37.3185 126.539H37.3251Z" fill="#2A6238"/>
<path d="M1.26643 38.6741C3.88345 53.8033 12.021 64.9419 21.0959 67.3116C28.5173 60.131 32.202 45.5421 29.5849 30.4129C26.9679 15.2836 18.8304 4.14503 9.75546 1.77539C2.33406 8.95592 -1.35059 23.5448 1.26643 38.6741Z" fill="#2A6238"/>
<path d="M22.6971 66.5039V143.791C21.9224 144.181 21.1737 144.468 20.4511 144.643H19.5137V66.5039H22.6971Z" fill="#2A6238"/>
</svg>
