<?xml version="1.0" encoding="UTF-8"?>
<svg id="Layer_1" data-name="Layer 1" xmlns="http://www.w3.org/2000/svg" viewBox="0 0 1000 1000">
  <defs>
    <style>
      .cls-1 {
        fill: #2a6238;
      }

      .cls-1, .cls-2 {
        stroke-width: 0px;
      }

      .cls-2 {
        fill: #026433;
      }
    </style>
  </defs>
  <g>
    <path class="cls-2" d="M391.18,366.69c0,45.56-22.43,84.32-53.73,98.69-31.31-14.37-53.73-53.13-53.73-98.69s22.43-84.32,53.73-98.69c31.31,14.37,53.73,53.13,53.73,98.69Z"/>
    <path class="cls-2" d="M391.18,366.69c0,45.56-22.43,84.32-53.73,98.69-31.31-14.37-53.73-53.13-53.73-98.69s22.43-84.32,53.73-98.69c31.31,14.37,53.73,53.13,53.73,98.69Z"/>
    <path class="cls-2" d="M397.23,381.71c-7.7,44.45-32.36,76.98-60.09,83.63-22.87-21.4-34.45-64.5-26.75-108.95,7.7-44.45,32.36-76.98,60.09-83.63,22.87,21.4,34.45,64.5,26.75,108.95Z"/>
    <path class="cls-2" d="M385,639.39c-12.37,24.83-28.87,43.6-42.98,50.7-2.27,1.14-4.48,1.99-6.6,2.5-1.84-4.26-2.75-9.72-2.75-16.05,0-11.81,3.17-26.6,9.35-42.18,1.75-4.42,3.75-8.91,5.99-13.4,14.35-28.81,34.28-49.47,49.59-53.19,6.25,14.45,1.75,42.81-12.6,71.62Z"/>
    <path class="cls-2" d="M279.05,381.19c7.7,44.45,31.61,77.2,58.28,84.15,21.82-21.1,32.64-63.98,24.94-108.43-7.7-44.45-31.61-77.2-58.28-84.15-21.82,21.1-32.64,63.98-24.94,108.43Z"/>
    <path class="cls-2" d="M342.02,462.96v227.12c-2.27,1.14-4.48,1.99-6.6,2.5h-2.75v-229.62h9.35Z"/>
  </g>
  <path class="cls-2" d="M662.83,420.36c-15.61,35.63-35.06,61.94-48.61,67.6-3.7-16.82,3.39-51.14,19-86.77,15.61-35.63,35.06-61.94,48.61-67.6,3.7,16.82-3.39,51.14-19,86.77Z"/>
  <path class="cls-2" d="M541.46,690.9c-.71-15.78-.48-31.6.91-47.33,1.4-15.8,3.99-31.51,7.95-46.87,3.64-14.12,8.43-27.94,14.52-41.19,5.76-12.53,12.63-24.56,20.61-35.82s17.16-21.76,27.37-31.1c1.26-1.16,2.55-2.29,3.84-3.42,1.46-1.27-.67-3.38-2.12-2.12-10.55,9.15-20.03,19.47-28.41,30.64-8.36,11.14-15.58,23.12-21.67,35.64-6.35,13.06-11.49,26.69-15.43,40.67-4.34,15.38-7.26,31.13-9,47.01-1.74,15.93-2.27,31.99-1.78,48.01.06,1.96.14,3.92.22,5.88s3.09,1.93,3,0h0Z"/>
  <path class="cls-2" d="M553.97,411.11c15.61,35.63,35.06,61.94,48.61,67.6,3.7-16.82-3.39-51.14-19-86.77-15.61-35.63-35.06-61.94-48.61-67.6-3.7,16.82,3.39,51.14,19,86.77Z"/>
  <path class="cls-2" d="M678.35,681.65c.72-16.01.48-32.07-.97-48.04-1.44-15.83-4.02-31.57-7.99-46.97-3.69-14.31-8.58-28.29-14.74-41.72-5.83-12.72-12.81-24.93-20.93-36.34s-17.3-21.95-27.6-31.37c-1.26-1.16-2.55-2.29-3.84-3.42-1.45-1.26-3.58.85-2.12,2.12,10.4,9.02,19.81,19.18,28.06,30.2s15.49,23.02,21.55,35.48,11.31,26.37,15.19,40.18c4.28,15.19,7.19,30.77,8.88,46.45,1.7,15.78,2.21,31.68,1.73,47.54-.06,1.96-.14,3.92-.22,5.88s2.91,1.93,3,0h0Z"/>
  <path class="cls-2" d="M418.63,478.14c-12.17,27.78-27.34,48.29-37.9,52.7-2.89-13.12,2.64-39.87,14.81-67.64,12.17-27.78,27.34-48.29,37.9-52.7,2.89,13.12-2.64,39.87-14.81,67.64Z"/>
  <path class="cls-2" d="M324.34,689.05c-1.1-24.59.73-49.4,6.88-73.29,5.52-21.46,14.58-42.02,27.44-60.12,6.98-9.83,15.1-18.84,24.21-26.75,1.46-1.27-.67-3.38-2.12-2.12-16.47,14.29-29.59,32.21-39.11,51.78-10.44,21.46-16.48,44.78-19.07,68.45-1.53,13.96-1.85,28.03-1.22,42.05.09,1.92,3.09,1.93,3,0h0Z"/>
  <path class="cls-2" d="M277.49,478.14c12.17,27.78,27.34,48.29,37.9,52.7,2.89-13.12-2.64-39.87-14.81-67.64-12.17-27.78-27.34-48.29-37.9-52.7-2.89,13.12,2.64,39.87,14.81,67.64Z"/>
  <path class="cls-2" d="M374.78,689.05c1.12-24.85-.77-49.95-6.98-74.08-5.6-21.75-14.81-42.68-27.86-61.01-7.1-9.98-15.3-19.16-24.56-27.19-1.45-1.26-3.58.85-2.12,2.12,16.3,14.14,29.22,31.8,38.64,51.17,10.29,21.16,16.25,44.28,18.74,67.64,1.46,13.73,1.76,27.56,1.14,41.35-.09,1.93,2.91,1.93,3,0h0Z"/>
  <path class="cls-2" d="M423.38,693.85c-.96-15.48-1.95-31.35,2.09-46.5,3.84-14.39,11.64-27.31,17.37-40.96,11.22-26.72,17.03-55.69,17.22-84.66.11-16.26-1.58-32.53-5.03-48.41-.41-1.89-3.3-1.09-2.89.8,6.12,28.22,6.52,57.65,1.31,86.05-2.62,14.26-6.62,28.26-11.99,41.73s-13.03,26.34-17.59,40.29c-5.45,16.72-4.56,34.36-3.49,51.66.12,1.92,3.12,1.93,3,0h0Z"/>
  <g>
    <path class="cls-1" d="M457.48,492.04c1.67-2.28,3.7-4.3,5.99-5.96.46,4.62-1.49,9.42-5.06,12.4"/>
    <path class="cls-2" d="M458.78,492.8c1.52-2.06,3.38-3.91,5.45-5.42l-2.26-1.3c.4,4.3-1.29,8.52-4.62,11.34-.62.52-.54,1.58,0,2.12.61.61,1.5.53,2.12,0,3.84-3.26,5.96-8.45,5.49-13.47-.09-1.01-1.25-2.03-2.26-1.3-2.51,1.83-4.68,3.99-6.52,6.5-.48.65-.11,1.67.54,2.05.76.45,1.57.12,2.05-.54h0Z"/>
  </g>
  <g>
    <path class="cls-1" d="M452.61,471.76c-5.47-8.2-9.02-17.67-10.3-27.44,1.47-.86,3.1.84,3.91,2.35,4.83,9.01,7.45,19.19,7.57,29.41"/>
    <path class="cls-2" d="M453.91,471c-5.3-8.01-8.82-17.15-10.1-26.68l-.74,1.3c1.26-.59,3.41,4.9,3.75,5.65,1.18,2.62,2.17,5.33,2.97,8.09,1.59,5.44,2.42,11.05,2.5,16.72.03,1.93,3.03,1.93,3,0-.1-6.82-1.24-13.63-3.42-20.1-1.07-3.18-2.39-6.29-3.94-9.27-1.24-2.4-3.41-5.08-6.38-3.68-.42.2-.81.83-.74,1.3,1.35,10.07,4.89,19.71,10.51,28.19,1.06,1.6,3.66.1,2.59-1.51h0Z"/>
  </g>
  <g>
    <path class="cls-1" d="M452.86,573.57c2.55-2.15,5.45-3.89,8.54-5.14,1.2-.49,2.99-.66,3.42.57.25.73-.22,1.53-.87,1.95s-1.42.56-2.16.77c-3.53,1-6.27,3.71-8.84,6.32"/>
    <path class="cls-2" d="M453.92,574.63c1.45-1.21,3.02-2.27,4.67-3.19.88-.49,1.78-.94,2.71-1.35.3-.13.6-.26.91-.36.17-.05.33-.09.5-.13.07-.02.15-.03.22-.04-.26.03.07,0,.12,0,.1,0,.52.04.23-.01.06.01.13.03.19.05.18.05-.06-.03-.06-.04l.11.06-.11-.09s.11.23.04.04c-.01-.04-.07-.19-.08-.2-.06-.07.18-.12.01,0-.14.1-.16.29-.45.44-.31.16-.73.25-1.09.35-1.86.49-3.58,1.34-5.13,2.48-1.76,1.29-3.31,2.81-4.84,4.36-1.36,1.38.76,3.5,2.12,2.12,1.48-1.5,2.97-3.03,4.71-4.23.82-.56,1.7-1.09,2.64-1.44,1.05-.39,2.2-.53,3.19-1.09,1.08-.61,1.92-1.82,1.83-3.09s-.9-2.17-2.05-2.53c-2.02-.63-4.22.57-5.97,1.44-2.36,1.18-4.54,2.66-6.57,4.35-.62.52-.54,1.58,0,2.12.62.62,1.5.52,2.12,0h0Z"/>
  </g>
  <path class="cls-2" d="M429.87,631.85l-.44-10.46-.22-5.23c-.03-.78-.09-1.57-.1-2.35,0-.26.12-.69.07-.94-.09-.44.27.17-.25-.3l-.44-1.06c.68,5.56.86,11.15.53,16.74-.11,1.93,2.89,1.92,3,0,.23-3.86.23-7.72-.03-11.58-.06-.93-.14-1.86-.23-2.79-.08-.85-.04-1.97-.32-2.78-.53-1.55-2.55-1.72-3.77-.95-1.53.96-1.59,2.77-1.52,4.38.08,1.88.16,3.76.24,5.63l.5,11.67c.08,1.92,3.08,1.93,3,0h0Z"/>
  <g>
    <path class="cls-2" d="M578.73,692c-.59-9.51-1.21-19.27,1.3-28.58,2.37-8.81,7.15-16.73,10.66-25.1,6.92-16.5,10.5-34.39,10.62-52.28.07-10.05-.99-20.1-3.11-29.93-.41-1.89-3.3-1.09-2.89.8,3.76,17.39,4,35.52.74,53.01-1.63,8.73-4.1,17.3-7.4,25.55s-8.03,16.18-10.8,24.77c-3.31,10.28-2.76,21.13-2.11,31.76.12,1.92,3.12,1.93,3,0h0Z"/>
    <path class="cls-2" d="M600.44,568.55s.23-.31.12-.16.13-.16.12-.16c.12-.15.25-.3.38-.45.27-.31.55-.62.85-.91.28-.28.56-.54.86-.8.16-.14.33-.28.5-.42.1-.08.12-.09,0,0,.1-.08.21-.16.31-.23l-2.26-1.3c.03.33.05.66.04,1,0,.18-.01.35-.03.53,0,.08-.01.16-.02.23-.04.38.04-.21,0,0-.06.33-.12.65-.21.98-.05.17-.1.34-.15.51-.04.12-.09.41-.18.5.07-.06.09-.21.01-.03-.03.07-.06.14-.1.21-.08.16-.16.32-.24.47-.16.29-.34.57-.53.85-.02.03-.22.3-.09.13.11-.15-.04.05-.06.08-.11.14-.23.27-.35.4-.24.26-.5.5-.76.73-.6.51-.56,1.6,0,2.12.64.59,1.48.54,2.12,0,2.46-2.09,3.85-5.48,3.55-8.7-.05-.54-.25-1.01-.74-1.3-.43-.25-1.09-.31-1.51,0-1.63,1.19-3.02,2.58-4.22,4.21-.47.63-.13,1.7.54,2.05.78.41,1.55.14,2.05-.54h0Z"/>
    <g>
      <path class="cls-1" d="M596.15,555.31c-3.37-5.05-5.55-10.87-6.34-16.89.91-.53,1.91.52,2.41,1.45,2.97,5.54,4.59,11.81,4.66,18.1"/>
      <path class="cls-2" d="M597.45,554.55c-3.3-4.99-5.39-10.6-6.19-16.53l-.69,1.69c-.4-.04-.49,0-.25.11.11.1.22.21.32.33.22.28.37.62.53.93.4.78.78,1.56,1.13,2.36.64,1.48,1.18,3.02,1.62,4.57.93,3.24,1.41,6.57,1.46,9.94.03,1.93,3.03,1.93,3,0-.07-4.32-.79-8.65-2.2-12.74-.68-1.99-1.52-3.95-2.5-5.81s-2.55-3.21-4.62-2.29c-.66.29-.77,1.08-.69,1.69.83,6.15,3.07,12.07,6.49,17.24,1.06,1.6,3.66.1,2.59-1.51h0Z"/>
    </g>
    <path class="cls-2" d="M597.37,619.03c.11-.1.23-.19.35-.28.05-.04.1-.08.15-.12-.04.04-.23.17,0,0,.24-.18.48-.36.73-.52.49-.34,1-.65,1.53-.95s1.1-.58,1.67-.83c.06-.03.12-.05.18-.08-.05.02-.27.1,0,0,.08-.03.16-.06.25-.09.1-.03.21-.05.31-.08.04,0,.1,0,.14-.03-.22.13-.27.01-.08.02.04,0,.09,0,.13,0,.24-.02-.11,0-.14-.03.03.02.09,0,.12.03.14.08-.19-.09-.17-.08.2.12-.1-.1-.12-.11.05.05.1.13-.02-.04-.08-.13-.15-.24-.16-.39,0-.05.06-.35.02-.23-.06.2.13-.25.02-.06-.08.14.06-.07.07-.08-.02.03-.17.15-.01.03.16-.13-.05,0-.09.04-.14.1.08-.02.09-.03-.05.03-.17.06-.22.08-.13.04-.27.08-.4.11-1.19.31-2.31.86-3.3,1.58-1.12.83-2.12,1.78-3.09,2.77-.55.56-.6,1.57,0,2.12s1.53.6,2.12,0c.47-.48.94-.95,1.44-1.41.24-.22.48-.44.73-.64.06-.05.13-.1.19-.15.04-.03.24-.18.09-.07s.05-.04.09-.06c.08-.06.16-.12.25-.17.26-.18.53-.35.81-.5.14-.08.28-.15.42-.22.06-.03.15-.08.22-.1-.19.04-.13.05.03,0,.7-.26,1.44-.36,2.1-.73.84-.47,1.47-1.42,1.41-2.4s-.72-1.82-1.68-2.11c-1.42-.43-2.89.33-4.12.95-1.5.75-2.88,1.69-4.16,2.76-.6.5-.56,1.61,0,2.12.64.59,1.48.54,2.12,0h0Z"/>
    <path class="cls-2" d="M582.73,653.84l-.27-6.44-.14-3.22c-.02-.48-.05-.96-.06-1.45,0-.02-.02-.42.02-.42-.05.1-.12.18-.21.23-.32.15-.63.1-.91-.16l-.44-1.06c.42,3.42.53,6.87.32,10.3-.05.81.72,1.5,1.5,1.5.85,0,1.45-.69,1.5-1.5.14-2.37.14-4.75-.02-7.12-.04-.57-.09-1.14-.14-1.71s-.06-1.29-.22-1.86c-.37-1.35-2.13-1.57-3.17-.93-1.13.7-1.27,1.99-1.22,3.2s.1,2.31.15,3.47l.3,7.18c.03.81.66,1.5,1.5,1.5.79,0,1.53-.69,1.5-1.5h0Z"/>
  </g>
  <g>
    <path class="cls-2" d="M649.11,693.85c.58-9.41,1.13-19.01-1.12-28.26s-6.8-16.7-10.4-24.94c-7.11-16.3-10.82-34.1-11.05-51.87-.13-10.09.87-20.16,3-30.02.41-1.88-2.48-2.69-2.89-.8-3.79,17.51-4.08,35.66-.98,53.3,1.55,8.82,3.97,17.49,7.23,25.82s8,16.35,10.92,24.95c3.5,10.3,2.94,21.13,2.28,31.82-.12,1.93,2.88,1.92,3,0h0Z"/>
    <path class="cls-2" d="M626.99,568.89c-1.2-1.63-2.59-3.01-4.22-4.21-.42-.31-1.09-.25-1.51,0-.49.29-.69.75-.74,1.3-.3,3.22,1.09,6.6,3.55,8.7.6.51,1.54.63,2.12,0,.51-.56.64-1.58,0-2.12-.25-.22-.5-.44-.72-.68-.12-.13-.24-.26-.35-.4-.05-.06-.1-.12-.15-.18.21.26.03.03-.01-.03-.19-.27-.37-.55-.53-.84-.09-.15-.17-.31-.24-.47-.03-.07-.07-.14-.1-.21-.02-.04-.03-.07-.05-.11-.04-.1-.03-.07.04.09-.08-.08-.13-.33-.16-.44-.06-.17-.11-.34-.16-.5-.09-.32-.16-.65-.21-.97-.05-.29.01.18,0,0,0-.08-.02-.16-.02-.23-.02-.18-.03-.35-.03-.53,0-.35,0-.7.04-1.06l-2.26,1.3c.09.06.17.13.26.19.19.14-.27-.22.06.05.15.12.3.25.45.37.31.27.62.55.91.84.28.28.55.56.8.86.14.16.28.33.42.5.05.07.11.14.16.2-.2-.26.06.09.08.11.46.63,1.32,1.01,2.05.54.62-.4,1.04-1.38.54-2.05h0Z"/>
    <g>
      <path class="cls-1" d="M628.7,557.16c3.37-5.05,5.55-10.87,6.34-16.89-.91-.53-1.91.52-2.41,1.45-2.97,5.54-4.59,11.81-4.66,18.1"/>
      <path class="cls-2" d="M629.99,557.92c3.42-5.18,5.66-11.1,6.49-17.24.08-.6-.04-1.41-.69-1.69-1.98-.87-3.6.41-4.54,2.14-1.03,1.9-1.88,3.92-2.58,5.96-1.41,4.09-2.13,8.42-2.2,12.74-.03,1.93,2.97,1.93,3,0,.05-3.37.53-6.7,1.46-9.94.44-1.55.98-3.09,1.62-4.57.32-.75.68-1.48,1.05-2.21.19-.36.36-.76.61-1.08.1-.12.21-.23.32-.33.24-.11.15-.15-.25-.11l-.69-1.69c-.8,5.92-2.89,11.54-6.19,16.53-1.07,1.62,1.53,3.12,2.59,1.51h0Z"/>
    </g>
    <path class="cls-2" d="M629.6,618.76c-1.15-.96-2.38-1.82-3.7-2.53-.7-.37-1.42-.7-2.16-1-.55-.22-1.19-.35-1.77-.29-.92.09-1.75.52-2.13,1.41-.41.97-.12,2.06.64,2.78.61.58,1.39.77,2.17.99.15.04.31.09.46.15.06.02.16.05.22.09-.26-.15-.1-.04-.03,0,.32.15.64.32.95.51.14.08.27.17.4.26.07.05.13.09.2.14.04.03.36.27.08.06.29.22.57.46.84.7.58.52,1.12,1.06,1.66,1.61s1.58.59,2.12,0,.59-1.52,0-2.12c-1.71-1.74-3.55-3.48-5.93-4.23-.25-.08-.5-.13-.75-.21-.08-.02-.15-.05-.23-.07-.04-.01-.2-.09-.04-.01.18.09-.04-.04-.08-.06-.17-.07.16.16.04.03-.14-.15.13.22.03.04-.08-.15.03.11.04.11-.02-.05-.03-.21,0,0,.01.14.02.25-.03.39-.04.11-.1.2-.18.28.08-.08.18-.11-.13.09.18-.12-.33.1-.03.03.18-.05-.34,0-.15.02.04,0,.09,0,.13,0,.03,0,.16.02.18,0-.01,0-.32-.07-.17-.02.22.07.44.11.65.19.27.1-.15-.07.12.05.14.06.27.12.41.18.29.13.58.28.86.43.59.31,1.16.65,1.71,1.01.29.19.57.38.84.59.07.05.14.1.21.15.18.14-.17-.14,0,0,.15.12.3.24.45.36.6.5,1.54.63,2.12,0,.51-.55.64-1.58,0-2.12h0Z"/>
    <path class="cls-2" d="M645.11,655.69l.3-7.18c.05-1.16.1-2.31.15-3.47s-.09-2.5-1.22-3.2c-1.04-.64-2.8-.42-3.17.93-.16.58-.16,1.27-.22,1.86s-.1,1.14-.14,1.71c-.16,2.37-.16,4.75-.02,7.12.05.81.66,1.5,1.5,1.5.78,0,1.55-.69,1.5-1.5-.2-3.44-.09-6.88.32-10.3l-.44,1.06c-.29.26-.59.31-.91.16-.06-.03-.11-.08-.14-.14-.08-.08-.1-.11-.05-.08,0,.14.01.28,0,.42,0,.48-.04.96-.06,1.45l-.14,3.22-.27,6.44c-.03.81.71,1.5,1.5,1.5.84,0,1.47-.69,1.5-1.5h0Z"/>
  </g>
  <path class="cls-2" d="M519.62,692c-.96-15.48-1.95-31.35,2.09-46.5,3.84-14.39,11.64-27.31,17.37-40.96,11.22-26.72,17.03-55.69,17.22-84.66.11-16.26-1.58-32.53-5.03-48.41-.41-1.89-3.3-1.09-2.89.8,6.12,28.22,6.52,57.65,1.31,86.05-2.62,14.26-6.62,28.26-11.99,41.73s-13.03,26.34-17.59,40.29c-5.45,16.72-4.56,34.36-3.49,51.66.12,1.92,3.12,1.93,3,0h0Z"/>
  <g>
    <path class="cls-1" d="M553.73,490.19c1.67-2.28,3.7-4.3,5.99-5.96.46,4.62-1.49,9.42-5.06,12.4"/>
    <path class="cls-2" d="M555.02,490.95c1.52-2.06,3.38-3.91,5.45-5.42l-2.26-1.3c.4,4.3-1.29,8.52-4.62,11.34-.62.52-.54,1.58,0,2.12.61.61,1.5.53,2.12,0,3.84-3.26,5.96-8.45,5.49-13.47-.09-1.01-1.25-2.03-2.26-1.3-2.51,1.83-4.68,3.99-6.52,6.5-.48.65-.11,1.67.54,2.05.76.45,1.57.12,2.05-.54h0Z"/>
  </g>
  <path class="cls-2" d="M550.15,469.15c-5.3-8.01-8.82-17.15-10.1-26.68l-.74,1.3c1.26-.59,3.41,4.9,3.75,5.65,1.18,2.62,2.17,5.33,2.97,8.09,1.59,5.44,2.42,11.05,2.5,16.72.03,1.93,3.03,1.93,3,0-.1-6.82-1.24-13.63-3.42-20.1-1.07-3.18-2.39-6.29-3.94-9.27-1.24-2.4-3.41-5.08-6.38-3.68-.42.2-.81.83-.74,1.3,1.35,10.07,4.89,19.71,10.51,28.19,1.06,1.6,3.66.1,2.59-1.51h0Z"/>
  <g>
    <path class="cls-1" d="M549.11,571.72c2.55-2.15,5.45-3.89,8.54-5.14,1.2-.49,2.99-.66,3.42.57.25.73-.22,1.53-.87,1.95s-1.42.56-2.16.77c-3.53,1-6.27,3.71-8.84,6.32"/>
    <path class="cls-2" d="M550.17,572.78c1.45-1.21,3.02-2.27,4.67-3.19.88-.49,1.78-.94,2.71-1.35.3-.13.6-.26.91-.36.17-.05.33-.09.5-.13.07-.02.15-.03.22-.04-.26.03.07,0,.12,0,.1,0,.52.04.23-.01.06.01.13.03.19.05.18.05-.06-.03-.06-.04l.11.06-.11-.09s.11.23.04.04c-.01-.04-.07-.19-.08-.2-.06-.07.18-.12.01,0-.14.1-.16.29-.45.44-.31.16-.73.25-1.09.35-1.86.49-3.58,1.34-5.13,2.48-1.76,1.29-3.31,2.81-4.84,4.36-1.36,1.38.76,3.5,2.12,2.12,1.48-1.5,2.97-3.03,4.71-4.23.82-.56,1.7-1.09,2.64-1.44,1.05-.39,2.2-.53,3.19-1.09,1.08-.61,1.92-1.82,1.83-3.09s-.9-2.17-2.05-2.53c-2.02-.63-4.22.57-5.97,1.44-2.36,1.18-4.54,2.66-6.57,4.35-.62.52-.54,1.58,0,2.12.62.62,1.5.52,2.12,0h0Z"/>
  </g>
  <path class="cls-2" d="M526.12,630l-.44-10.46-.22-5.23c-.03-.78-.09-1.57-.1-2.35,0-.26.12-.69.07-.94-.09-.44.27.17-.25-.3l-.44-1.06c.68,5.56.86,11.15.53,16.74-.11,1.93,2.89,1.92,3,0,.23-3.86.23-7.72-.03-11.58-.06-.93-.14-1.86-.23-2.79-.08-.85-.04-1.97-.32-2.78-.53-1.55-2.55-1.72-3.77-.95-1.53.96-1.59,2.77-1.52,4.38.08,1.88.16,3.76.24,5.63l.5,11.67c.08,1.92,3.08,1.93,3,0h0Z"/>
  <path class="cls-2" d="M397.07,697.55c.96-15.45,1.88-31.25-1.97-46.42-3.63-14.3-11.27-27.11-17.06-40.57-11.41-26.53-17.35-55.4-17.65-84.25-.17-16.29,1.46-32.58,4.91-48.5.41-1.88-2.48-2.69-2.89-.8-6.15,28.34-6.61,57.79-1.54,86.34,2.53,14.27,6.45,28.3,11.74,41.8,2.68,6.84,5.77,13.48,8.94,20.09s6.46,13.49,8.85,20.58c5.64,16.74,4.75,34.36,3.67,51.73-.12,1.93,2.88,1.92,3,0h0Z"/>
  <g>
    <path class="cls-1" d="M359.96,495.75c-1.67-2.28-3.7-4.3-5.99-5.96-.46,4.62,1.49,9.42,5.06,12.4"/>
    <path class="cls-2" d="M361.26,494.99c-1.84-2.51-4.01-4.66-6.52-6.5-1.01-.74-2.16.29-2.26,1.3-.47,5.01,1.66,10.21,5.49,13.47.62.52,1.52.61,2.12,0,.54-.54.62-1.59,0-2.12-3.33-2.82-5.02-7.05-4.62-11.34l-2.26,1.3c2.07,1.51,3.93,3.36,5.45,5.42.48.65,1.3.98,2.05.54.64-.38,1.02-1.4.54-2.05h0Z"/>
  </g>
  <g>
    <path class="cls-1" d="M364.83,475.46c5.47-8.2,9.02-17.67,10.3-27.44-1.47-.86-3.1.84-3.91,2.35-4.83,9.01-7.45,19.19-7.57,29.41"/>
    <path class="cls-2" d="M366.13,476.22c5.61-8.48,9.15-18.12,10.51-28.19.06-.47-.32-1.1-.74-1.3-2.98-1.39-5.14,1.29-6.38,3.68-1.55,2.98-2.86,6.09-3.94,9.27-2.18,6.47-3.32,13.27-3.42,20.1-.03,1.93,2.97,1.93,3,0,.08-5.67.91-11.28,2.5-16.72.78-2.69,1.73-5.33,2.88-7.89.33-.74,2.57-6.45,3.85-5.86l-.74-1.3c-1.28,9.53-4.79,18.67-10.1,26.68-1.07,1.61,1.53,3.12,2.59,1.51h0Z"/>
  </g>
  <g>
    <path class="cls-1" d="M364.58,577.27c-2.55-2.15-5.45-3.89-8.54-5.14-1.2-.49-2.99-.66-3.42.57-.25.73.22,1.53.87,1.95s1.42.56,2.16.77c3.53,1,6.27,3.71,8.84,6.32"/>
    <path class="cls-2" d="M365.64,576.21c-1.81-1.51-3.74-2.86-5.82-3.96-1.07-.57-2.16-1.07-3.28-1.52-.82-.33-1.75-.53-2.63-.44-1.12.11-2.13.64-2.6,1.71-.53,1.22-.1,2.61.84,3.5.86.81,2.01,1.06,3.11,1.37,1.01.29,1.93.73,2.82,1.29,2.02,1.25,3.7,2.97,5.36,4.65,1.36,1.38,3.48-.75,2.12-2.12-2.67-2.7-5.51-5.46-9.22-6.63-.66-.21-1.69-.32-2.13-.75-.03-.03-.16-.21-.13-.16-.1-.2.03-.17-.02,0-.02.07-.07.1-.11.16.1-.15.13,0-.02,0,.06,0,.16-.02.05-.03-.13-.02.06-.01.13-.02.23-.03-.23,0,0,0,.07,0,.14,0,.21,0,.1,0,.19,0,.29.02-.03,0-.21-.03-.03,0,.36.06.71.17,1.06.3.85.33,1.67.74,2.48,1.16,1.92,1.01,3.74,2.2,5.4,3.59.62.52,1.51.61,2.12,0,.53-.53.62-1.6,0-2.12h0Z"/>
  </g>
  <path class="cls-2" d="M390.57,635.55c.17-3.89.33-7.78.5-11.67.08-1.88.16-3.76.24-5.63.07-1.61,0-3.42-1.52-4.38-1.19-.75-3.28-.62-3.77.95-.27.85-.23,1.9-.32,2.78-.09.93-.17,1.86-.23,2.79-.26,3.85-.26,7.72-.03,11.58.11,1.92,3.11,1.93,3,0-.33-5.59-.15-11.19.53-16.74l-.44,1.06c-.51.46-.16-.09-.27.24-.06.19.08.77.08,1,0,.78-.06,1.57-.1,2.35l-.22,5.23-.44,10.46c-.08,1.93,2.92,1.93,3,0h0Z"/>
  <g>
    <path class="cls-1" d="M456.24,561.9c0,18.33-9.02,33.92-21.62,39.7-12.6-5.78-21.62-21.38-21.62-39.7s9.02-33.92,21.62-39.7c12.6,5.78,21.62,21.38,21.62,39.7Z"/>
    <path class="cls-1" d="M456.24,561.9c0,18.33-9.02,33.92-21.62,39.7-12.6-5.78-21.62-21.38-21.62-39.7s9.02-33.92,21.62-39.7c12.6,5.78,21.62,21.38,21.62,39.7Z"/>
    <path class="cls-1" d="M458.67,567.94c-3.1,17.88-13.02,30.97-24.17,33.64-9.2-8.61-13.86-25.95-10.76-43.83s13.02-30.97,24.17-33.64c9.2,8.61,13.86,25.95,10.76,43.83Z"/>
    <path class="cls-1" d="M453.76,671.61c-4.98,9.99-11.61,17.54-17.29,20.4-.91.46-1.8.8-2.65,1.01-.74-1.71-1.11-3.91-1.11-6.46,0-4.75,1.27-10.7,3.76-16.97.71-1.78,1.51-3.58,2.41-5.39,5.77-11.59,13.79-19.9,19.95-21.4,2.51,5.81.71,17.22-5.07,28.81Z"/>
    <path class="cls-1" d="M411.13,567.73c3.1,17.88,12.72,31.06,23.45,33.86,8.78-8.49,13.13-25.74,10.03-43.62-3.1-17.88-12.72-31.06-23.45-33.86-8.78,8.49-13.13,25.74-10.03,43.62Z"/>
    <path class="cls-1" d="M436.46,600.63v91.37c-.91.46-1.8.8-2.65,1.01h-1.11v-92.38h3.76Z"/>
  </g>
  <g>
    <path class="cls-1" d="M715.42,519.06c0,22.77-11.21,42.13-26.85,49.31-15.64-7.18-26.85-26.55-26.85-49.31s11.21-42.13,26.85-49.31c15.64,7.18,26.85,26.55,26.85,49.31Z"/>
    <path class="cls-1" d="M715.42,519.06c0,22.77-11.21,42.13-26.85,49.31-15.64-7.18-26.85-26.55-26.85-49.31s11.21-42.13,26.85-49.31c15.64,7.18,26.85,26.55,26.85,49.31Z"/>
    <path class="cls-1" d="M718.44,526.57c-3.85,22.21-16.17,38.47-30.03,41.79-11.43-10.69-17.21-32.23-13.37-54.44,3.85-22.21,16.17-38.47,30.03-41.79,11.43,10.69,17.21,32.23,13.37,54.44Z"/>
    <path class="cls-1" d="M712.33,655.32c-6.18,12.41-14.43,21.78-21.48,25.33-1.14.57-2.24.99-3.3,1.25-.92-2.13-1.37-4.86-1.37-8.02,0-5.9,1.58-13.29,4.67-21.08.88-2.21,1.88-4.45,3-6.7,7.17-14.39,17.13-24.72,24.78-26.58,3.12,7.22.88,21.39-6.3,35.78Z"/>
    <path class="cls-1" d="M659.39,526.3c3.85,22.21,15.79,38.58,29.12,42.05,10.9-10.54,16.31-31.97,12.46-54.18-3.85-22.21-15.79-38.58-29.12-42.05-10.9,10.54-16.31,31.97-12.46,54.18Z"/>
    <path class="cls-1" d="M690.85,567.17v113.49c-1.14.57-2.24.99-3.3,1.25h-1.37v-114.74h4.67Z"/>
  </g>
  <g>
    <path class="cls-1" d="M545.55,460.55c0,32.5-16,60.14-38.33,70.4-22.33-10.25-38.33-37.9-38.33-70.4s16-60.14,38.33-70.4c22.33,10.25,38.33,37.9,38.33,70.4Z"/>
    <path class="cls-1" d="M545.55,460.55c0,32.5-16,60.14-38.33,70.4-22.33-10.25-38.33-37.9-38.33-70.4s16-60.14,38.33-70.4c22.33,10.25,38.33,37.9,38.33,70.4Z"/>
    <path class="cls-1" d="M549.87,471.27c-5.49,31.71-23.08,54.91-42.86,59.65-16.31-15.27-24.57-46.01-19.08-77.72,5.49-31.71,23.08-54.91,42.86-59.65,16.31,15.27,24.57,46.01,19.08,77.72Z"/>
    <path class="cls-1" d="M541.15,655.06c-8.82,17.71-20.59,31.1-30.66,36.16-1.62.82-3.19,1.42-4.71,1.78-1.31-3.04-1.96-6.93-1.96-11.45,0-8.42,2.26-18.97,6.67-30.08,1.25-3.15,2.68-6.35,4.28-9.56,10.24-20.55,24.45-35.29,35.37-37.94,4.46,10.31,1.25,30.54-8.99,51.08Z"/>
    <path class="cls-1" d="M465.57,470.89c5.49,31.71,22.55,55.07,41.57,60.03,15.56-15.05,23.28-45.63,17.79-77.34-5.49-31.71-22.55-55.07-41.57-60.03-15.56,15.05-23.28,45.63-17.79,77.34Z"/>
    <path class="cls-1" d="M510.49,529.22v162c-1.62.82-3.19,1.42-4.71,1.78h-1.96v-163.79h6.67Z"/>
  </g>
</svg>